<?xml version="1.0" encoding="UTF-8"?>
<!DOCTYPE svg PUBLIC "-//W3C//DTD SVG 1.1//EN" "http://www.w3.org/Graphics/SVG/1.1/DTD/svg11.dtd">
<svg 
	xmlns="http://www.w3.org/2000/svg" 
	xml:space="preserve" 
	width="1208px" 
	height="403px" 
	version="1.1" 
	style="shape-rendering:geometricPrecision; text-rendering:geometricPrecision; image-rendering:optimizeQuality; fill-rule:evenodd; clip-rule:evenodd" 
	viewBox="0 0 867 289"
	xmlns:xlink="http://www.w3.org/1999/xlink"
>
	<defs>
		<style type="text/css">
			<![CDATA[
				.isoblack {fill:#668899;fill-rule:nonzero}
				.isored {fill:#668899;fill-rule:nonzero}
				.bit {fill:#668899;fill-rule:nonzero}
				.hive {fill:#668899;fill-rule:nonzero}
			]]>
		</style>
	</defs>
	<g id="bithive">
		<path class="isoblack" d="M9 188l-8 -28c-1,-6 -1,-12 0,-17 2,-5 4,-10 9,-14l20 -21c4,-4 9,-7 14,-8 6,-2 11,-2 17,0l28 7c5,2 10,5 14,9 4,4 7,9 9,14l7 28c1,4 1,7 1,11 4,0 7,0 11,1l28 7c6,2 10,5 14,9 4,4 7,9 9,14l7 28c2,6 2,11 0,17 -1,5 -4,10 -8,14l-20 21c-5,4 -10,7 -15,8 -5,1 -11,1 -17,0l-27 -7c-6,-2 -11,-5 -15,-9 -4,-4 -7,-9 -8,-14l-8 -28c-1,-4 -1,-7 -1,-11 -3,0 -7,0 -11,-1l-28 -8c-5,-1 -10,-4 -14,-8 -4,-4 -7,-9 -8,-14zm81 52l3 14c1,3 3,5 5,7 2,2 4,4 8,5l27 7c3,1 6,1 9,0 3,0 5,-2 8,-4l20 -20c2,-3 4,-5 4,-8 1,-3 1,-6 0,-9l-7 -28c-1,-3 -2,-5 -4,-7 -2,-2 -5,-4 -8,-5l-28 -7c-3,-1 -6,-1 -9,0 -2,0 -5,2 -7,4l-21 20c-2,3 -3,5 -4,8 -1,3 -1,6 0,9l4 14zm-70 -70l3 14c1,3 3,5 5,7 2,2 4,4 7,5l28 7c3,1 6,1 9,0 3,-1 5,-2 8,-4l20 -21c2,-2 4,-4 4,-7 1,-3 1,-6 0,-9l-7 -28c-1,-3 -2,-5 -4,-8 -3,-2 -5,-3 -8,-4l-28 -7c-3,-1 -6,-1 -9,0 -3,0 -5,2 -7,4l-21 20c-2,3 -3,5 -4,8 -1,3 -1,6 0,9l4 14z"/>
		<path class="isored" d="M154 195l-28 -7c-6,-2 -11,-5 -16,-9 -4,-5 -7,-10 -9,-16l-7 -28c-1,-3 -1,-6 -1,-9 -3,0 -6,0 -9,-1l-28 -7c-6,-2 -11,-5 -16,-9 -4,-5 -7,-10 -9,-16l-7 -28c-2,-6 -2,-13 0,-18 1,-6 4,-12 9,-16l20 -21c5,-4 10,-7 16,-9 6,-1 12,-1 19,0l27 8c6,1 12,4 16,9 4,4 8,9 9,16l8 27c0,3 1,6 1,9 3,0 6,1 9,1l27 8c7,1 12,5 16,9 5,4 8,10 9,16l8 27c1,7 1,13 0,19 -2,6 -5,11 -9,16l-21 20c-4,5 -10,8 -16,9 -5,2 -12,2 -18,0zm-78 -94l14 3c2,1 5,1 7,1 2,-1 4,-2 6,-4l20 -20c2,-2 3,-5 4,-7 1,-2 1,-5 0,-7l-7 -28c-1,-2 -2,-4 -4,-6 -2,-2 -4,-3 -6,-4l-28 -7c-3,-1 -5,-1 -7,0 -3,0 -5,2 -7,4l-20 20c-2,2 -3,4 -4,6 0,2 0,5 0,7l8 28c1,3 2,5 3,6 2,2 4,3 7,4l14 4zm70 70l14 4c2,0 5,0 7,0 2,-1 4,-2 6,-4l20 -20c2,-2 4,-4 4,-7 1,-2 1,-4 0,-7l-7 -28c-1,-2 -2,-4 -4,-6 -2,-2 -4,-3 -6,-4l-28 -7c-2,-1 -5,-1 -7,0 -3,0 -5,2 -7,4l-20 20c-2,2 -3,4 -4,6 0,2 0,5 1,7l7 28c1,3 2,5 4,7 1,1 3,2 6,3l14 4z"/>
		<path class="bit" d="M260 213l57 0c28,0 35,-4 43,-12 7,-7 12,-17 12,-28 0,-13 -5,-27 -21,-33 5,-3 16,-8 16,-28 0,-14 -8,-35 -41,-35l-66 0 0 136zm27 -59l36 0c10,0 20,4 20,16 0,14 -8,20 -21,20l-35 0 0 -36zm0 -53l32 0c13,0 21,3 21,15 0,10 -9,15 -20,15l-33 0 0 -30zm108 12l0 100 26 0 0 -100 -26 0zm26 -37l-26 0 0 25 26 0 0 -25zm55 9l-26 0 0 28 -14 0 0 19 14 0 0 61c0,13 4,21 27,21l3 0c4,0 9,0 13,0l0 -20c-2,0 -4,0 -6,0 -10,0 -11,-2 -11,-8l0 -54 17 0 0 -19 -17 0 0 -28z"/>
		<path class="hive" d="M601 144c0,-22 -16,-34 -35,-34 -15,0 -26,7 -29,16l-1 0 0 -49 -26 0 0 136 26 0 0 -57c0,-16 9,-24 21,-24 17,0 17,13 17,20l0 61 27 0 0 -69zm25 -31l0 100 26 0 0 -100 -26 0zm26 -37l-26 0 0 25 26 0 0 -25zm116 37l-28 0 -21 74 -1 0 -20 -74 -30 0 36 100 28 0 36 -100zm70 71c-2,7 -9,11 -17,11 -21,0 -22,-17 -23,-25l69 0 0 -5c0,-46 -28,-55 -47,-55 -45,0 -49,39 -49,51 0,41 22,55 50,55 18,0 38,-8 45,-32l-28 0zm-39 -31c1,-13 8,-21 20,-21 9,0 19,5 21,21l-41 0z"/>
	</g>
</svg>