<?xml version="1.0" encoding="UTF-8"?>
<!DOCTYPE svg PUBLIC "-//W3C//DTD SVG 1.1//EN" "http://www.w3.org/Graphics/SVG/1.1/DTD/svg11.dtd">
<svg xmlns="http://www.w3.org/2000/svg" 
    xml:space="preserve" 
    width="2832px" 
    height="3307px" 
    version="1.1" 
    style="shape-rendering:geometricPrecision; text-rendering:geometricPrecision; image-rendering:optimizeQuality; fill-rule:evenodd; clip-rule:evenodd"
    viewBox="0 0 2832 3306.91"
    xmlns:xlink="http://www.w3.org/1999/xlink"
>
    <defs>
        <style type="text/css">
            <![CDATA[
                .eyes {fill:#AB0000}
                .mouth {fill:#000000;fill-rule:nonzero}
                .hytcom {fill:#000000;fill-rule:nonzero}
            ]]>
        </style>
    </defs>
    <g id="hytcom">
        <path class="mouth" d="M595.07 1588.3c0,67.96 -55.1,123.06 -123.06,123.06 -67.96,0 -123.06,-55.1 -123.06,-123.06 0,-163.77 66.91,-312.57 174.7,-420.36 107.8,-107.79 256.6,-174.7 420.36,-174.7 79.94,0 156.69,16.2 227.11,45.48 73.07,30.39 138.65,74.62 193.25,129.22 144.65,144.65 159.2,275.79 173.74,406.9 9.74,87.86 19.49,175.75 103.56,259.81 32.58,32.59 71.1,58.73 113.46,76.34 40.64,16.9 85.52,26.25 132.88,26.25 95.84,0 183.05,-39.29 246.35,-102.59 63.3,-63.31 102.59,-150.52 102.59,-246.35 0,-67.96 55.1,-123.06 123.06,-123.06 67.97,0 123.06,55.1 123.06,123.06 0,163.76 -66.91,312.57 -174.7,420.36 -107.79,107.79 -256.58,174.7 -420.36,174.7 -79.93,0 -156.69,-16.2 -227.1,-45.48 -73.07,-30.38 -138.66,-74.62 -193.26,-129.22 -144.65,-144.65 -159.2,-275.78 -173.74,-406.9 -9.74,-87.86 -19.49,-175.74 -103.55,-259.8 -32.59,-32.59 -71.1,-58.74 -113.46,-76.35 -40.65,-16.9 -85.54,-26.25 -132.89,-26.25 -95.83,0 -183.04,39.29 -246.35,102.6 -63.3,63.3 -102.59,150.51 -102.59,246.34z"/>
        <path class="eyes" d="M299.72 228.31c0,-95.15 77.14,-172.3 172.3,-172.3 95.15,0 172.3,77.15 172.3,172.3l0 472c0,95.16 -77.15,172.3 -172.3,172.3 -95.16,0 -172.3,-77.14 -172.3,-172.3l0 -472zm2232.59 415.99c0,95.16 -77.14,172.3 -172.3,172.3 -95.15,0 -172.29,-77.14 -172.29,-172.3 0,-82.24 -33.78,-157.13 -88.18,-211.53 -54.39,-54.4 -129.29,-88.17 -211.53,-88.17 -82.23,0 -157.12,33.77 -211.53,88.17 -54.4,54.4 -88.17,129.29 -88.17,211.53 0,95.16 -77.14,172.3 -172.3,172.3 -95.15,0 -172.3,-77.14 -172.3,-172.3 0,-177.37 72.44,-338.49 189.13,-455.17 116.7,-116.69 277.82,-189.13 455.17,-189.13 177.37,0 338.49,72.44 455.18,189.13 116.68,116.68 189.12,277.8 189.12,455.17z"/>
        <path class="hytcom" d="M399.71 2823.19c0,-97.24 -67.31,-147.93 -153.73,-147.93 -63.16,0 -113.02,32.41 -127.97,68.98l-1.66 0 0 -211.94 -116.35 0 0 596.75 116.35 0 0 -253.49c0,-67.32 39.88,-102.23 91.41,-102.23 73.95,0 75.61,54.86 75.61,87.27l0 268.45 116.34 0 0 -305.86zm485.3 -136.3l-122.99 0 -90.58 325.81 -1.66 0 -94.73 -325.81 -129.63 0 162.87 460.44c-10.81,60.68 -34.07,66.49 -76.45,66.49 -9.98,0 -17.46,-0.83 -22.44,-1.66l0 93.09c16.62,0.83 36.56,1.66 52.35,1.66 101.38,0 116.34,-21.61 171.18,-185.34l152.08 -434.68zm198.6 -119.68l-116.35 0 0 119.68 -59.82 0 0 83.11 59.82 0 0 268.46c0,57.35 18.29,95.57 118.84,95.57l14.95 0c18.29,0 36.57,-0.83 54.85,-1.66l0 -88.09c-8.31,0.83 -16.62,1.66 -24.09,1.66 -47.37,0 -48.2,-9.98 -48.2,-35.74l0 -240.2 72.29 0 0 -83.11 -72.29 0 0 -119.68zm408.84 400.6c0,20.78 -19.94,77.3 -78.94,77.3 -88.09,0 -89.75,-95.58 -89.75,-143.79 0,-54.85 19.12,-127.99 92.24,-127.99l5.82 0c49.86,0 66.48,43.22 71.46,71.48l118 0c-10.79,-137.97 -125.47,-169.55 -195.28,-169.55 -149.57,0 -211.9,102.23 -211.9,245.18 0,93.09 38.22,220.25 204.43,220.25 162.03,0 197.76,-127.16 201.92,-172.88l-118 0zm625.73 -59.84c0,-159.57 -107.19,-232.71 -226.03,-232.71 -118.82,0 -226.02,73.14 -226.02,232.71 0,159.58 107.2,232.72 226.02,232.72 118.84,0 226.03,-73.14 226.03,-232.72zm-119.66 0c0,56.52 -16.62,134.64 -106.37,134.64 -89.75,0 -106.37,-78.12 -106.37,-134.64 0,-56.52 16.62,-134.64 106.37,-134.64 89.75,0 106.37,78.12 106.37,134.64zm833.48 -84.78c0,-97.24 -67.32,-147.93 -153.74,-147.93 -70.63,0 -103.04,49.03 -118,70.65 -29.91,-47.38 -58.99,-70.65 -122.98,-70.65 -78.11,0 -110.52,47.37 -125.48,76.46l-1.67 0 0 -64.83 -111.35 0 0 442.16 116.34 0 0 -269.28c0,-48.21 17.46,-86.44 72.29,-86.44 69.81,0 69.81,52.36 69.81,89.76l0 265.96 116.33 0 0 -265.13c0,-52.36 20.79,-90.59 78.95,-90.59 34.08,0 63.15,21.61 63.15,87.27l0 268.45 116.35 0 0 -305.86z"/>
    </g>
</svg>
