<?xml version="1.0" encoding="UTF-8"?>
<!DOCTYPE svg PUBLIC "-//W3C//DTD SVG 1.1//EN" "http://www.w3.org/Graphics/SVG/1.1/DTD/svg11.dtd">
<!-- Creator: CorelDRAW 2020 (64-Bit) -->
<svg xmlns="http://www.w3.org/2000/svg" xml:space="preserve" width="420mm" height="297mm" version="1.1" style="shape-rendering:geometricPrecision; text-rendering:geometricPrecision; image-rendering:optimizeQuality; fill-rule:evenodd; clip-rule:evenodd"
viewBox="0 0 42000 29700"
 xmlns:xlink="http://www.w3.org/1999/xlink"
 xmlns:xodm="http://www.corel.com/coreldraw/odm/2003">
 <defs>
  <style type="text/css">
   <![CDATA[
    .fil1 {fill:#AB0000}
    .fil0 {fill:black;fill-rule:nonzero}
   ]]>
  </style>
 </defs>
 <g id="Capa_x0020_1">
  <metadata id="CorelCorpID_0Corel-Layer"/>
  <g id="_2750848369952">
   <path class="fil0" d="M14049.07 14298.36c0,575.43 -466.53,1041.96 -1041.96,1041.96 -575.43,0 -1041.97,-466.53 -1041.97,-1041.96 0,-1386.69 566.54,-2646.58 1479.22,-3559.25 912.73,-912.67 2172.68,-1479.21 3559.24,-1479.21 676.85,0 1326.71,137.16 1922.92,385.07 618.72,257.31 1174.01,631.83 1636.33,1094.14 1224.78,1224.78 1348,2335.17 1471.09,3445.3 82.49,743.92 165.04,1488.04 876.8,2199.8 275.92,275.91 602.03,497.29 960.69,646.41 344.15,143.1 724.17,222.26 1125.16,222.26 811.45,0 1549.87,-332.7 2085.85,-868.67 535.98,-536.04 868.68,-1274.47 868.68,-2085.85 0,-575.43 466.53,-1041.97 1041.96,-1041.97 575.43,0 1041.97,466.54 1041.97,1041.97 0,1386.56 -566.54,2646.51 -1479.21,3559.24 -912.68,912.67 -2172.56,1479.22 -3559.25,1479.22 -676.78,0 -1326.71,-137.16 -1922.92,-385.07 -618.72,-257.31 -1174.01,-631.83 -1636.33,-1094.15 -1224.78,-1224.78 -1348,-2335.1 -1471.09,-3445.3 -82.49,-743.92 -165.04,-1488.03 -876.8,-2199.79 -275.92,-275.92 -602.03,-497.3 -960.69,-646.41 -344.15,-143.11 -724.23,-222.27 -1125.16,-222.27 -811.38,0 -1549.81,332.7 -2085.85,868.68 -535.98,535.97 -868.68,1274.4 -868.68,2085.85z"/>
   <path class="fil1" d="M11548.29 2783.15c0,-805.7 653.19,-1458.88 1458.88,-1458.88 805.69,0 1458.88,653.18 1458.88,1458.88l0 3996.49c0,805.69 -653.19,1458.88 -1458.88,1458.88 -805.69,0 -1458.88,-653.19 -1458.88,-1458.88l0 -3996.49zm18903.67 3522.22c0,805.69 -653.18,1458.88 -1458.88,1458.88 -805.69,0 -1458.88,-653.19 -1458.88,-1458.88 0,-696.35 -285.95,-1330.48 -746.54,-1791.07 -460.59,-460.59 -1094.72,-746.55 -1791.07,-746.55 -696.29,0 -1330.42,285.96 -1791.07,746.55 -460.59,460.59 -746.54,1094.72 -746.54,1791.07 0,805.69 -653.19,1458.88 -1458.88,1458.88 -805.7,0 -1458.88,-653.19 -1458.88,-1458.88 0,-1501.79 613.35,-2866.03 1601.34,-3854.03 988.13,-988 2352.37,-1601.35 3854.03,-1601.35 1501.79,0 2866.03,613.35 3854.03,1601.35 987.99,988 1601.34,2352.24 1601.34,3854.03z"/>
   <path class="fil0" d="M12394.97 24754.34c0,-823.35 -569.93,-1252.6 -1301.7,-1252.6 -534.77,0 -956.92,274.45 -1083.53,584.06l-14.07 0 0 -1794.46 -985.12 0 0 5052.72 985.12 0 0 -2146.34c0,-569.99 337.69,-865.61 773.98,-865.61 626.13,0 640.27,464.49 640.27,738.94l0 2273.01 985.05 0 0 -2589.72zm4109.04 -1154.06l-1041.33 0 -766.94 2758.6 -14.07 0 -802.11 -2758.6 -1097.6 0 1379.02 3898.59c-91.51,513.73 -288.46,562.96 -647.31,562.96 -84.47,0 -147.77,-7.03 -189.98,-14.06l0 788.17c140.74,7.03 309.56,14.07 443.26,14.07 858.39,0 985.06,-182.95 1449.42,-1569.25l1287.64 -3680.48zm1681.59 -1013.39l-985.12 0 0 1013.39 -506.5 0 0 703.7 506.5 0 0 2273.01c0,485.59 154.88,809.28 1006.23,809.28l126.6 0c154.81,0 309.62,-7.04 464.37,-14.07l0 -745.91c-70.34,7.04 -140.68,14.07 -203.99,14.07 -401.05,0 -408.09,-84.47 -408.09,-302.64l0 -2033.74 612.08 0 0 -703.7 -612.08 0 0 -1013.39zm3461.74 3391.97c0,175.91 -168.88,654.47 -668.41,654.47 -745.84,0 -759.91,-809.28 -759.91,-1217.49 0,-464.43 161.84,-1083.73 781.01,-1083.73l49.24 0c422.16,0 562.9,365.96 605.1,605.23l999.12 0c-91.44,-1168.19 -1062.43,-1435.6 -1653.46,-1435.6 -1266.47,0 -1794.2,865.61 -1794.2,2076 0,788.17 323.62,1864.86 1730.9,1864.86 1371.98,0 1674.5,-1076.69 1709.73,-1463.74l-999.12 0zm5298.13 -506.69c0,-1351.13 -907.62,-1970.43 -1913.84,-1970.43 -1006.09,0 -1913.78,619.3 -1913.78,1970.43 0,1351.14 907.69,1970.43 1913.78,1970.43 1006.22,0 1913.84,-619.29 1913.84,-1970.43zm-1013.19 0c0,478.56 -140.74,1139.99 -900.65,1139.99 -759.91,0 -900.65,-661.43 -900.65,-1139.99 0,-478.56 140.74,-1140.06 900.65,-1140.06 759.91,0 900.65,661.5 900.65,1140.06zm7057.17 -717.83c0,-823.35 -570,-1252.6 -1301.71,-1252.6 -598.06,0 -872.51,415.19 -999.12,598.19 -253.28,-401.12 -499.53,-598.19 -1041.33,-598.19 -661.37,0 -935.75,401.12 -1062.42,647.43l-14.14 0 0 -548.89 -942.85 0 0 3743.78 985.12 0 0 -2280.04c0,-408.16 147.78,-731.91 612.07,-731.91 591.1,0 591.1,443.39 591.1,760.04l0 2251.91 984.99 0 0 -2244.87c0,-443.33 175.97,-767.08 668.47,-767.08 288.52,0 534.7,183.01 534.7,738.94l0 2273.01 985.12 0 0 -2589.72z"/>
  </g>
 </g>
</svg>
