<?xml version="1.0" encoding="UTF-8"?>
<!DOCTYPE svg PUBLIC "-//W3C//DTD SVG 1.1//EN" "http://www.w3.org/Graphics/SVG/1.1/DTD/svg11.dtd">
<svg 
	xmlns="http://www.w3.org/2000/svg" 
	xml:space="preserve" 
	width="1024px" 
	height="1024px" 
	version="1.1" 
	style="shape-rendering:geometricPrecision; text-rendering:geometricPrecision; image-rendering:optimizeQuality; fill-rule:evenodd; clip-rule:evenodd"
	viewBox="0 0 122 122"
	xmlns:xlink="http://www.w3.org/1999/xlink"
>
	<defs>
		<style type="text/css">
			<![CDATA[
				.grey { fill: #607D8B; }
			]]>
		</style>
	</defs>
	<g id="hytcom">
		<path class="grey" d="M49 30l-25 31 61 61 -85 -61 49 -31zm24 61l25 -30 -61 -61 85 61 -49 30z"/>
		<g id="_2209666527376">
			<path class="grey" d="M61 40c10,0 18,8 18,18 0,10 -8,18 -18,18l-6 0 0 -9 6 0c5,0 9,-4 9,-9 0,-5 -4,-9 -9,-9 -5,0 -9,4 -9,9l0 6 -9 0 0 -6c0,-10 8,-18 18,-18z"/>
			<circle class="grey" cx="59" cy="84" r="5"/>
		</g>
	</g>
</svg>
