<?xml version="1.0" encoding="UTF-8"?>
<!DOCTYPE svg PUBLIC "-//W3C//DTD SVG 1.1//EN" "http://www.w3.org/Graphics/SVG/1.1/DTD/svg11.dtd">
<svg xmlns="http://www.w3.org/2000/svg" 
    xml:space="preserve" 
    width="3450px" 
    height="3373px" 
    version="1.1" 
    style="shape-rendering:geometricPrecision; text-rendering:geometricPrecision; image-rendering:optimizeQuality; fill-rule:evenodd; clip-rule:evenodd"
    viewBox="0 0 3450 3373.93"
    xmlns:xlink="http://www.w3.org/1999/xlink"
>
    <defs>
        <style type="text/css">
            <![CDATA[
                .eyes {fill:#FFFFFF}
                .mouth {fill:#FFFFFF;fill-rule:nonzero}
            ]]>
        </style>
    </defs>
    <g id="hytcom">
        <path class="mouth" d="M456.4 2454.38c0,105.02 -85.14,190.17 -190.16,190.17 -105.02,0 -190.16,-85.15 -190.16,-190.17 0,-253.07 103.39,-483.01 269.96,-649.57 166.58,-166.57 396.52,-269.97 649.58,-269.97 123.52,0 242.13,25.04 350.94,70.28 112.92,46.96 214.26,115.31 298.63,199.69 223.53,223.52 246.02,426.17 268.49,628.78 15.05,135.77 30.12,271.57 160.01,401.47 50.36,50.36 109.88,90.76 175.34,117.97 62.8,26.12 132.16,40.57 205.34,40.57 148.09,0 282.86,-60.72 380.68,-158.54 97.82,-97.83 158.54,-232.6 158.54,-380.68 0,-105.02 85.14,-190.16 190.16,-190.16 105.02,0 190.16,85.14 190.16,190.16 0,253.06 -103.39,483 -269.96,649.58 -166.57,166.57 -396.5,269.96 -649.58,269.96 -123.51,0 -242.13,-25.03 -350.94,-70.27 -112.92,-46.96 -214.26,-115.31 -298.64,-199.69 -223.52,-223.53 -246.01,-426.16 -268.48,-628.78 -15.05,-135.77 -30.12,-271.57 -160.02,-401.47 -50.35,-50.36 -109.87,-90.76 -175.33,-117.97 -62.8,-26.12 -132.17,-40.57 -205.34,-40.57 -148.08,0 -282.85,60.72 -380.68,158.54 -97.82,97.82 -158.54,232.58 -158.54,380.67z"/>
        <path class="eyes" d="M0 352.81c0,-147.04 119.21,-266.25 266.25,-266.25 147.04,0 266.25,119.21 266.25,266.25l0 729.38c0,147.04 -119.21,266.25 -266.25,266.25 -147.04,0 -266.25,-119.21 -266.25,-266.25l0 -729.38zm3450 642.82c0,147.04 -119.21,266.25 -266.25,266.25 -147.04,0 -266.25,-119.21 -266.25,-266.25 0,-127.09 -52.19,-242.82 -136.25,-326.88 -84.06,-84.06 -199.79,-136.25 -326.88,-136.25 -127.07,0 -242.81,52.19 -326.88,136.25 -84.06,84.06 -136.24,199.79 -136.24,326.88 0,147.04 -119.21,266.25 -266.26,266.25 -147.04,0 -266.25,-119.21 -266.25,-266.25 0,-274.08 111.94,-523.06 292.26,-703.38 180.33,-180.31 429.31,-292.25 703.37,-292.25 274.08,0 523.06,111.94 703.38,292.25 180.31,180.32 292.25,429.3 292.25,703.38z"/>
    </g>
</svg>
