<?xml version="1.0" encoding="UTF-8"?>
<!DOCTYPE svg PUBLIC "-//W3C//DTD SVG 1.1//EN" "http://www.w3.org/Graphics/SVG/1.1/DTD/svg11.dtd">
<!-- Creator: CorelDRAW 2020 (64-Bit) -->
<svg xmlns="http://www.w3.org/2000/svg" xml:space="preserve" width="420mm" height="297mm" version="1.1" style="shape-rendering:geometricPrecision; text-rendering:geometricPrecision; image-rendering:optimizeQuality; fill-rule:evenodd; clip-rule:evenodd"
viewBox="0 0 42000 29700"
 xmlns:xlink="http://www.w3.org/1999/xlink"
 xmlns:xodm="http://www.corel.com/coreldraw/odm/2003">
 <defs>
  <style type="text/css">
   <![CDATA[
    .fil1 {fill:#AB0000}
    .fil0 {fill:black;fill-rule:nonzero}
   ]]>
  </style>
 </defs>
 <g id="Capa_x0020_1">
  <metadata id="CorelCorpID_0Corel-Layer"/>
  <g id="_2133677094304">
   <path class="fil0" d="M10584.8 21150.54c0,862.21 -699.04,1561.25 -1561.25,1561.25 -862.2,0 -1561.24,-699.04 -1561.24,-1561.25 0,-2077.76 848.88,-3965.53 2216.4,-5333.04 1367.61,-1367.52 3255.48,-2216.41 5333.05,-2216.41 1014.16,0 1987.89,205.52 2881.23,576.98 927.07,385.54 1759.1,946.71 2451.82,1639.43 1835.17,1835.17 2019.79,3498.93 2204.23,5162.31 123.6,1114.67 247.29,2229.62 1313.76,3296.1 413.43,413.42 902.07,745.12 1439.47,968.55 515.66,214.43 1085.07,333.04 1685.9,333.04 1215.84,0 2322.27,-498.5 3125.36,-1301.59 803.09,-803.19 1301.6,-1909.62 1301.6,-3125.37 0,-862.2 699.04,-1561.24 1561.24,-1561.24 862.21,0 1561.25,699.04 1561.25,1561.24 0,2077.58 -848.89,3965.44 -2216.4,5333.05 -1367.52,1367.52 -3255.29,2216.4 -5333.05,2216.4 -1014.07,0 -1987.89,-205.51 -2881.24,-576.97 -927.07,-385.55 -1759.09,-946.71 -2451.81,-1639.43 -1835.17,-1835.17 -2019.8,-3498.83 -2204.23,-5162.31 -123.6,-1114.67 -247.29,-2229.62 -1313.77,-3296.1 -413.42,-413.43 -902.06,-745.12 -1439.47,-968.56 -515.65,-214.42 -1085.16,-333.04 -1685.89,-333.04 -1215.75,0 -2322.18,498.51 -3125.37,1301.6 -803.09,803.09 -1301.59,1909.52 -1301.59,3125.36z"/>
   <path class="fil1" d="M6837.71 3896.56c0,-1207.22 978.72,-2185.94 2185.94,-2185.94 1207.22,0 2185.93,978.72 2185.93,2185.94l0 5988.21c0,1207.22 -978.71,2185.93 -2185.93,2185.93 -1207.22,0 -2185.94,-978.71 -2185.94,-2185.93l0 -5988.21zm28324.6 5277.57c0,1207.22 -978.71,2185.94 -2185.94,2185.94 -1207.22,0 -2185.93,-978.72 -2185.93,-2185.94 0,-1043.38 -428.47,-1993.54 -1118.6,-2683.67 -690.13,-690.13 -1640.29,-1118.6 -2683.67,-1118.6 -1043.29,0 -1993.45,428.47 -2683.68,1118.6 -690.12,690.13 -1118.59,1640.29 -1118.59,2683.67 0,1207.22 -978.71,2185.94 -2185.94,2185.94 -1207.22,0 -2185.93,-978.72 -2185.93,-2185.94 0,-2250.22 919.02,-4294.36 2399.4,-5774.74 1480.57,-1480.38 3524.71,-2399.4 5774.74,-2399.4 2250.22,0 4294.36,919.02 5774.74,2399.4 1480.38,1480.38 2399.4,3524.52 2399.4,5774.74z"/>
  </g>
 </g>
</svg>
