<?xml version="1.0" encoding="UTF-8"?>
<!DOCTYPE svg PUBLIC "-//W3C//DTD SVG 1.1//EN" "http://www.w3.org/Graphics/SVG/1.1/DTD/svg11.dtd">
<svg 
	xmlns="http://www.w3.org/2000/svg" 
	xml:space="preserve" 
	width="3030px" 
	height="1674px" 
	version="1.1" 
	style="shape-rendering:geometricPrecision; text-rendering:geometricPrecision; image-rendering:optimizeQuality; fill-rule:evenodd; clip-rule:evenodd"
	viewBox="0 0 3028 1672"
	xmlns:xlink="http://www.w3.org/1999/xlink"
>
	<defs>
		<style type="text/css">
			<![CDATA[
				.eyes {fill:#FFFFFF}
				.lens {fill:#AB0000}
				.text {fill:#FFFFFF}
				.face {fill:#FFFFFF; fill-rule:nonzero}
			]]>
		</style>
	</defs>
	<g id="qareful">
		<path class="eyes" d="M831 604c-80,0 -144,65 -144,144 0,80 64,145 144,145 80,0 145,-65 145,-145 0,-79 -65,-144 -145,-144z"/>
		<path class="eyes" d="M283 837c-46,0 -84,37 -84,83 0,47 38,84 84,84 46,0 84,-37 84,-84 0,-46 -38,-83 -84,-83z"/>
		<path class="text" d="M1577 711c0,-89 -93,-105 -144,-105 -74,0 -150,16 -161,126l91 0c3,-21 11,-50 59,-50 24,0 62,2 62,42 0,21 -18,27 -33,29l-86 13c-60,8 -105,44 -105,115 0,75 56,105 110,105 65,0 95,-30 117,-52 2,20 3,26 9,43l102 0 0 -15c-11,-4 -21,-13 -21,-56l0 -195zm-93 136c0,74 -129,102 -129,28 0,-69 92,-45 129,-74l0 46zm177 130l95 0 0 -188c0,-40 14,-87 88,-87 9,0 19,0 27,2l0 -96c-67,-8 -92,22 -117,70l-2 0 0 -62 -91 0 0 361zm464 -106c-8,26 -35,39 -61,39 -77,0 -83,-61 -85,-88l247 0 0 -17c0,-165 -98,-199 -169,-199 -158,0 -173,139 -173,183 0,148 78,197 180,197 61,0 133,-28 158,-115l-97 0zm-144 -111c6,-47 30,-76 74,-76 31,0 68,18 74,76l-148 0zm418 -77l62 0 0 -67 -62 0c0,-57 -1,-55 60,-55l0 -76c-71,-6 -155,-5 -155,101l0 30 -52 0 0 67 52 0 0 294 95 0 0 -294zm442 -67l-95 0 0 208c0,64 -42,82 -73,82 -29,0 -62,-11 -62,-66l0 -224 -95 0 0 237c0,92 52,133 123,133 50,0 88,-22 110,-60l1 0 0 51 91 0 0 -361zm187 -127l-95 0 0 488 95 0 0 -488z"/>
		<path class="face" d="M730 1315c18,-18 46,-18 64,0 17,17 17,46 0,63 -22,22 -48,40 -78,52 -28,12 -59,18 -91,18 -32,0 -62,-6 -90,-18 -30,-12 -56,-30 -78,-52 -17,-17 -17,-46 0,-63 18,-18 46,-18 64,0 13,14 30,25 48,32 17,7 36,11 56,11 21,0 40,-4 57,-11 18,-7 34,-18 48,-32zm-447 -677c-33,0 -63,5 -91,14 2,-5 3,-10 5,-15 51,-109 128,-200 223,-267 96,-67 208,-109 327,-120 59,-5 51,-94 -7,-89 -34,3 -67,12 -100,16 -5,0 50,-72 60,-83 37,-46 -31,-103 -69,-58 -14,17 -66,93 -67,93l-13 -89c-6,-58 -95,-50 -90,8 2,22 19,113 19,113l-72 -53c-46,-38 -103,31 -58,68 15,13 100,71 100,71 -24,21 -55,32 -81,50 -108,76 -196,179 -253,303 -21,45 -37,91 -49,137 -83,100 -96,254 1,367 6,27 14,53 24,79 67,183 204,341 395,429 30,14 61,26 93,36 32,10 64,18 97,24 25,4 48,-13 52,-37 4,-24 -12,-47 -37,-52 -29,-5 -57,-12 -85,-20 -28,-9 -56,-20 -82,-32 -156,-72 -271,-197 -335,-343 172,60 376,-62 376,-268 0,-156 -127,-282 -283,-282zm-137 146c35,-35 84,-57 137,-57 53,0 102,22 137,57 35,35 56,83 56,136 0,54 -21,102 -56,137 -35,35 -84,57 -137,57 -53,0 -102,-22 -137,-57 -34,-35 -56,-83 -56,-137 0,-53 22,-101 56,-136z"/>
		<path class="lens" d="M665 920c-45,-43 -72,-103 -73,-167l0 0c1,-2 -3,-43 17,-92 35,-90 121,-150 218,-151l0 -1c132,-2 241,103 243,235l0 0c1,99 -54,185 -144,224l0 0c-88,38 -192,19 -261,-48zm423 86l199 283c15,23 10,54 -13,70l-20 15c-23,16 -55,10 -70,-13l-198 -283c-185,87 -407,5 -489,-184 -19,-43 -29,-90 -30,-139l0 -1 0 0c-3,-201 157,-367 358,-370 261,-4 443,262 343,504 -19,45 -46,85 -80,118z"/>
	</g>
</svg>
