<?xml version="1.0" encoding="UTF-8"?>
<!DOCTYPE svg PUBLIC "-//W3C//DTD SVG 1.1//EN" "http://www.w3.org/Graphics/SVG/1.1/DTD/svg11.dtd">
<svg 
	xmlns="http://www.w3.org/2000/svg" 
	xml:space="preserve" 
	width="1297px" 
	height="1674px" 
	version="1.1" 
	style="shape-rendering:geometricPrecision; text-rendering:geometricPrecision; image-rendering:optimizeQuality; fill-rule:evenodd; clip-rule:evenodd"
	viewBox="0 0 555 716"
	xmlns:xlink="http://www.w3.org/1999/xlink"
>
	<defs>
		<style type="text/css">
			<![CDATA[
				.eyes {fill:#FFFFFF}
				.lens {fill:#000000}
				.text {fill:#FFFFFF; fill-rule:nonzero}
			]]>
		</style>
	</defs>
	<g id="qareful">
		<path class="eyes" d="M356 258c-34,0 -62,28 -62,62 0,35 28,62 62,62 34,0 62,-27 62,-62 0,-34 -28,-62 -62,-62z"/>
		<path class="eyes" d="M121 358c-20,0 -36,16 -36,36 0,20 16,36 36,36 20,0 36,-16 36,-36 0,-20 -16,-36 -36,-36z"/>
		<path class="text" d="M313 563c7,-8 19,-8 27,0 7,7 7,20 0,27 -10,9 -21,17 -33,22 -12,5 -26,8 -39,8 -14,0 -27,-3 -39,-8 -13,-5 -24,-13 -33,-22 -8,-7 -8,-20 0,-27 7,-8 19,-8 27,0 6,6 13,11 20,14 8,3 16,4 25,4 8,0 17,-1 24,-4 8,-3 15,-8 21,-14zm-192 -290c-14,0 -27,2 -39,6 1,-2 2,-4 2,-6 22,-47 55,-86 96,-115 41,-28 89,-46 140,-51 25,-2 22,-40 -3,-38 -15,1 -29,5 -43,7 -2,0 21,-31 25,-36 17,-19 -13,-44 -29,-25 -6,8 -28,40 -28,40l-6 -38c-3,-25 -41,-21 -38,4 0,9 8,48 8,48l-32 -23c-19,-16 -43,13 -24,30 6,5 43,30 43,30 -11,9 -24,13 -35,21 -46,33 -84,77 -108,130 -9,19 -16,39 -21,59 -36,42 -41,108 0,156 3,12 6,23 10,34 29,79 88,146 170,184 12,6 26,11 39,16 14,4 28,7 42,10 10,1 20,-6 22,-16 2,-11 -5,-20 -16,-22 -12,-2 -24,-5 -36,-9 -12,-4 -24,-8 -35,-14 -67,-31 -116,-84 -143,-146 73,25 160,-27 160,-115 0,-67 -54,-121 -121,-121zm-58 63c15,-15 35,-25 58,-25 23,0 44,10 59,25 15,14 24,35 24,58 0,23 -9,43 -24,58 -15,15 -36,25 -59,25 -23,0 -43,-10 -58,-25 -15,-15 -25,-35 -25,-58 0,-23 10,-44 25,-58z"/>
		<path class="lens" d="M285 394c-20,-19 -31,-44 -32,-72l0 0c1,-1 -1,-18 8,-39 15,-39 51,-64 93,-65l0 0c56,-1 103,44 104,100l0 0c0,43 -23,80 -62,96l0 0c-37,17 -82,8 -111,-20zm181 37l85 121c6,10 4,23 -6,30l-8 6c-10,7 -24,4 -30,-5l-85 -121c-79,37 -174,2 -209,-79 -8,-19 -13,-39 -13,-60l0 0 0 0c-2,-86 67,-157 153,-159 112,-1 190,112 147,216 -8,19 -20,36 -34,51z"/>
	</g>
</svg>
