<?xml version="1.0" encoding="UTF-8"?>
<!DOCTYPE svg PUBLIC "-//W3C//DTD SVG 1.1//EN" "http://www.w3.org/Graphics/SVG/1.1/DTD/svg11.dtd">
<svg 
    xmlns="http://www.w3.org/2000/svg" 
    xml:space="preserve" 
    width="4749px" 
    height="1840px" 
    version="1.1" 
    style="shape-rendering:geometricPrecision; text-rendering:geometricPrecision; image-rendering:optimizeQuality; fill-rule:evenodd; clip-rule:evenodd" 
    viewBox="0 0 4749 1840" 
    xmlns:xlink="http://www.w3.org/1999/xlink"
>
    <defs>
        <style type="text/css">
            <![CDATA[
                .e { fill:#668899; fill-rule:nonzero; }
                .bloock { fill:#668899; fill-rule:nonzero; }
                .cover { fill:#668899; fill-rule:nonzero; }
                .pages { fill:#668899; fill-rule:nonzero; }
                .padlock { fill:#668899; fill-rule:nonzero; }
            ]]>
        </style>
    </defs>
    <g id="ebloock">
        <g>
            <path class="e" d="M1915,1078.91796875 c-9,31 -41,47 -73,47 c-91,0 -98,-73 -101,-105 l296,0 l0,-21 c0,-197 -118,-237 -203,-237 c-189,0 -207,166 -207,218 c0,177 94,236 215,236 c74,0 160,-34 190,-138 l-117,0 zm-171,-132 c7,-57 35,-91 88,-91 c37,0 81,21 88,91 l-176,0 z" id="svg_2"/>
            <path class="bloock" d="M2121,1204.91796875 l246,0 c119,0 151,-20 184,-52 c31,-30 50,-74 50,-120 c0,-58 -18,-115 -90,-141 c25,-12 72,-36 72,-119 c0,-60 -37,-149 -179,-149 l-283,0 l0,581 zm116,-256 l155,0 c44,0 88,20 88,71 c0,59 -34,85 -93,85 l-150,0 l0,-156 zm0,-225 l140,0 c55,0 89,15 89,62 c0,47 -38,65 -86,65 l-143,0 l0,-127 zm576,-100 l-113,0 l0,581 l113,0 l0,-581 zm525,366 c0,-156 -105,-227 -221,-227 c-116,0 -220,71 -220,227 c0,155 104,227 220,227 c116,0 221,-72 221,-227 zm-117,0 c0,55 -16,131 -104,131 c-87,0 -103,-76 -103,-131 c0,-55 16,-131 103,-131 c88,0 104,76 104,131 zm611,0 c0,-156 -104,-227 -220,-227 c-116,0 -220,71 -220,227 c0,155 104,227 220,227 c116,0 220,-72 220,-227 zm-116,0 c0,55 -16,131 -104,131 c-87,0 -104,-76 -104,-131 c0,-55 17,-131 104,-131 c88,0 104,76 104,131 zm452,58 c0,20 -20,75 -77,75 c-86,0 -88,-93 -88,-140 c0,-53 19,-124 90,-124 l6,0 c49,0 65,42 70,69 l115,0 c-11,-134 -123,-165 -191,-165 c-145,0 -206,100 -206,239 c0,91 37,215 199,215 c158,0 193,-124 197,-169 l-115,0 zm295,21 l47,-48 l103,184 l136,0 l-157,-264 l153,-167 l-140,0 l-142,164 l0,-314 l-114,0 l0,581 l114,0 l0,-136 z" id="svg_3"/>
        </g>
        <g>
            <path class="cover" d="M59,155.91796875 l928,-155 c36,-6 69,18 75,54 c1,3 1,7 1,10 l0,0 l0,1710 c0,36 -29,65 -65,65 c-5,0 -10,-1 -15,-2 l-928,-154 c-32,-6 -55,-33 -55,-65 l0,0 l0,-1398 c0,-34 26,-62 59,-65 zm874,-14 l-802,134 l0,1288 l802,134 l0,-1556 z" id="svg_5"/>
            <path class="cover" d="M1321,142.91796875 c0,-36 30,-65 66,-65 c36,0 65,29 65,65 l0,1554 c0,36 -29,65 -65,65 c-36,0 -66,-29 -66,-65 l0,-1554 z" id="svg_6"/>
            <path class="pages" d="M1146,181.91796875 c0,-26 21,-47 46,-47 c26,0 47,21 47,47 l0,1476 c0,26 -21,47 -47,47 c-25,0 -46,-21 -46,-47 l0,-1476 z" id="svg_7"/>
            <path class="padlock" d="M718,1074.91796875 c0,-25 21,-46 47,-46 c26,0 47,21 47,46 l0,272 c0,26 -21,47 -47,47 c-2,0 -4,0 -6,0 l-464,-39 c-24,-2 -43,-22 -43,-46 l0,-349 c0,-26 21,-47 47,-47 l341,0 l0,-224 c0,-30 -13,-57 -32,-77 c-20,-19 -47,-31 -77,-31 c-30,0 -57,12 -76,31 c-20,20 -32,47 -32,77 l0,0 l0,116 c0,26 -21,47 -47,47 c-25,0 -46,-21 -46,-47 l0,-116 l0,0 c0,-56 22,-106 59,-143 c36,-36 87,-59 142,-59 c56,0 106,23 143,59 c36,37 59,87 59,143 l0,271 c0,26 -21,47 -47,47 l-341,0 l0,259 l373,31 l0,-222 z" id="svg_8"/>
        </g>
    </g>
</svg>