<?xml version="1.0" encoding="UTF-8"?>
<!DOCTYPE svg PUBLIC "-//W3C//DTD SVG 1.1//EN" "http://www.w3.org/Graphics/SVG/1.1/DTD/svg11.dtd">
<svg xmlns="http://www.w3.org/2000/svg" 
    xml:space="preserve" 
    width="4961px" 
    height="3508px" 
    version="1.1" 
    style="shape-rendering:geometricPrecision; text-rendering:geometricPrecision; image-rendering:optimizeQuality; fill-rule:evenodd; clip-rule:evenodd"
    viewBox="0 0 4961 3508"
    xmlns:xlink="http://www.w3.org/1999/xlink"
>
    <defs>
        <style type="text/css">
            <![CDATA[
                .fil0 {fill:#FEFEFE}
                .fil2 {fill:black;fill-rule:nonzero}
                .fil1 {fill:#AB0000;fill-rule:nonzero}
            ]]>
        </style>
    </defs>
    <g id="ebloock">
        <rect class="fil0" x="118" y="420" width="4725" height="2223"/>
        <g>
            <g>
                <path class="fil1" d="M2087 1664c-7,26 -35,40 -62,40 -78,0 -84,-63 -87,-90l253 0 0 -18c0,-168 -100,-203 -173,-203 -162,0 -177,142 -177,187 0,151 80,201 184,201 63,0 136,-29 162,-117l-100 0zm-146 -113c6,-49 30,-78 76,-78 31,0 69,18 74,78l-150 0z"/>
                <path class="fil2" d="M2263 1772l211 0c102,0 129,-18 158,-45 26,-26 43,-63 43,-103 0,-49 -16,-98 -77,-121 20,-10 61,-30 61,-102 0,-51 -32,-127 -154,-127l-242 0 0 498zm100 -219l133 0c37,0 75,16 75,60 0,51 -30,73 -80,73l-128 0 0 -133zm0 -193l119 0c48,0 77,12 77,53 0,40 -33,56 -74,56l-122 0 0 -109zm493 -86l-97 0 0 498 97 0 0 -498zm449 313c0,-133 -90,-194 -189,-194 -99,0 -188,61 -188,194 0,133 89,194 188,194 99,0 189,-61 189,-194zm-100 0c0,47 -14,113 -89,113 -75,0 -89,-66 -89,-113 0,-47 14,-112 89,-112 75,0 89,65 89,112zm523 0c0,-133 -89,-194 -188,-194 -99,0 -189,61 -189,194 0,133 90,194 189,194 99,0 188,-61 188,-194zm-99 0c0,47 -14,113 -89,113 -75,0 -89,-66 -89,-113 0,-47 14,-112 89,-112 75,0 89,65 89,112zm386 50c0,18 -16,65 -65,65 -74,0 -75,-80 -75,-120 0,-46 16,-107 77,-107l4 0c42,0 56,36 60,60l99 0c-9,-116 -105,-142 -163,-142 -125,0 -177,85 -177,205 0,77 32,183 170,183 136,0 165,-106 169,-144l-99 0zm253 18l40 -41 88 158 116 0 -133 -226 130 -143 -119 0 -122 140 0 -269 -97 0 0 498 97 0 0 -117z"/>
            </g>
            <g>
                <path class="fil1" d="M499 873l794 -132c31,-5 59,15 64,46 1,3 1,6 1,9l0 0 0 1463c0,31 -25,56 -56,56 -4,0 -8,0 -12,-1l-795 -133c-27,-4 -46,-28 -46,-55l0 0 0 -1197c0,-29 22,-53 50,-56zm748 -11l-687 114 0 1103 687 114 0 -1331z"/>
                <path class="fil1" d="M1579 863c0,-31 25,-56 56,-56 31,0 56,25 56,56l0 1330c0,30 -25,56 -56,56 -31,0 -56,-26 -56,-56l0 -1330z"/>
                <path class="fil2" d="M1429 896c0,-22 18,-40 40,-40 22,0 40,18 40,40l0 1263c0,22 -18,40 -40,40 -22,0 -40,-18 -40,-40l0 -1263z"/>
                <path class="fil2" d="M1063 1661c0,-22 18,-40 40,-40 22,0 40,18 40,40l0 232c0,22 -18,40 -40,40 -2,0 -3,0 -5,0l-397 -33c-21,-2 -37,-19 -37,-40l0 -298c0,-22 18,-40 40,-40l292 0 0 -192c0,-26 -11,-49 -28,-66 -16,-16 -39,-27 -65,-27 -26,0 -49,11 -66,27 -16,17 -27,40 -27,66l0 0 0 99c0,22 -18,40 -40,40 -22,0 -39,-18 -39,-40l0 -99 0 0c0,-48 19,-91 50,-122 31,-31 74,-51 122,-51 48,0 91,20 122,51 31,31 50,74 50,122l0 232c0,22 -17,40 -39,40l-292 0 0 221 319 27 0 -189z"/>
            </g>
        </g>
        <path class="fil2" d="M2304 2324l49 0 20 -110 1 0c4,19 20,40 51,40 71,0 92,-79 92,-121 0,-64 -42,-79 -64,-79 -31,0 -50,14 -64,42l-1 -1 8 -36 -44 0 -48 265zm78 -155c0,-12 4,-75 51,-75 19,0 35,15 35,39 0,34 -14,79 -52,79 -19,0 -34,-12 -34,-43zm283 -115c-27,0 -40,9 -61,44l9 -39 -46 0 -34 190 50 0 15 -86c11,-51 29,-60 50,-60 7,0 12,2 16,3l7 -52 -6 0zm55 112c0,-44 25,-72 54,-72 23,0 40,16 40,48 0,44 -25,72 -55,72 -23,0 -39,-16 -39,-48zm-52 0c0,58 40,88 87,88 84,0 110,-72 110,-112 0,-60 -38,-88 -87,-88 -84,0 -110,72 -110,112zm254 -107l-27 0 -7 35 27 0 -16 98c-3,14 -3,18 -3,23 0,29 23,36 45,36 13,0 22,-2 31,-4l5 -41c-5,1 -11,3 -19,3 -7,0 -11,-2 -11,-9 0,-4 1,-10 2,-15l15 -91 28 0 6 -35 -27 0 10 -54 -49 0 -10 54zm251 112c2,-7 3,-16 3,-29 0,-62 -38,-88 -81,-88 -69,0 -100,61 -100,108 0,57 30,92 82,92 52,0 82,-29 92,-59l-56 0c-5,11 -18,19 -33,19 -25,0 -36,-16 -36,-32 0,-6 0,-8 1,-11l128 0zm-125 -34c4,-21 17,-43 43,-43 26,0 36,18 36,35l0 8 -79 0zm272 44c-6,17 -19,33 -41,33 -23,0 -35,-19 -35,-45 0,-45 18,-75 47,-75 22,0 31,12 33,32l51 0c-2,-47 -38,-72 -81,-72 -75,0 -100,62 -100,110 0,57 30,90 88,90 48,0 81,-30 88,-73l-50 0zm108 -122l-26 0 -7 35 27 0 -17 98c-2,14 -3,18 -3,23 0,29 24,36 46,36 13,0 21,-2 30,-4l6 -41c-5,1 -11,3 -19,3 -7,0 -11,-2 -11,-9 0,-4 1,-10 1,-15l16 -91 28 0 6 -35 -27 0 10 -54 -49 0 -11 54zm252 112c2,-7 3,-16 3,-29 0,-62 -39,-88 -82,-88 -68,0 -99,61 -99,108 0,57 30,92 82,92 51,0 81,-29 91,-59l-55 0c-6,11 -18,19 -34,19 -25,0 -35,-16 -35,-32 0,-6 0,-8 0,-11l129 0zm-125 -34c3,-21 17,-43 43,-43 26,0 36,18 36,35l0 8 -79 0zm266 112l45 0 46 -256 -50 0 -19 102c0,-6 -12,-42 -52,-42 -63,0 -90,71 -90,121 0,39 18,80 63,80 34,0 52,-17 65,-41l-8 36zm14 -111c0,32 -14,76 -49,76 -12,0 -35,-6 -35,-42 0,-19 9,-76 50,-76 25,0 34,20 34,42z"/>
        <path class="fil1" d="M4123 2095l32 0 7 -36 -32 0 2 -7c3,-16 4,-21 21,-21l14 0 9 -40c-4,-1 -11,-1 -25,-1 -34,0 -59,15 -68,54l-3 15 -27 0 -8 36 28 0 -33 154 50 0 33 -154zm69 -36l-40 190 50 0 40 -190 -50 0zm65 -68l-50 0 -10 46 50 0 10 -46zm-26 258l50 0 46 -256 -50 0 -46 256zm279 -78c1,-7 2,-16 2,-29 0,-62 -38,-88 -81,-88 -69,0 -100,61 -100,108 0,57 30,92 82,92 52,0 82,-29 92,-59l-55 0c-6,11 -19,19 -34,19 -25,0 -36,-16 -36,-32 0,-6 1,-8 1,-11l129 0zm-125 -34c3,-21 16,-43 42,-43 26,0 36,18 36,35l0 8 -78 0z"/>
    </g>
</svg>