<?xml version="1.0" encoding="UTF-8"?>
<!DOCTYPE svg PUBLIC "-//W3C//DTD SVG 1.1//EN" "http://www.w3.org/Graphics/SVG/1.1/DTD/svg11.dtd">
<svg
	xmlns="http://www.w3.org/2000/svg" 
	xml:space="preserve" 
	xmlns:xlink="http://www.w3.org/1999/xlink"
	version="1.1" 
	style="shape-rendering:geometricPrecision; text-rendering:geometricPrecision; image-rendering:optimizeQuality; fill-rule:evenodd; clip-rule:evenodd" 
	viewBox="0 0 185.34236 234.93925"
	height="234.93925mm"
	width="185.34236mm"
>
	<defs>
			<style type="text/css">
					<![CDATA[
						.cover { fill:#AB0000; fill-rule:nonzero; }
						.pages { fill:#FFFFFF; fill-rule:nonzero; }
						.padlock { fill:#FFFFFF; fill-rule:nonzero; }
					]]>
			</style>
	</defs>
	<g transform="translate(-11.413335,-30.388867)" id="ebloock">
	  <g transform="matrix(2.8002453,0,0,2.8002453,-1723.2451,-762.43135)" id="Layer1164">
		  <path
				class="cover"
				d="m 622.1444,290.2208 42.3299,-7.0547 c 1.6181,-0.2695 3.1486,0.8236 3.4182,2.4417 0.0274,0.1641 0.0405,0.3272 0.0407,0.4883 h 0.006 v 77.9523 c 0,1.6436 -1.3327,2.9764 -2.9763,2.9764 -0.2353,0 -0.464,-0.0272 -0.6834,-0.0789 l -42.3246,-7.0539 c -1.454,-0.2422 -2.484,-1.5026 -2.4823,-2.9299 h -0.006 v -63.7797 c 0,-1.5429 1.1744,-2.8117 2.6779,-2.9616 z m 39.8418,-0.6173 -36.567,6.0942 v 58.7491 l 36.567,6.0942 z"
				id="path4818" />
		  <path
				class="cover"
				d="m 679.7018,289.6405 c 0,-1.6436 1.3327,-2.9763 2.9763,-2.9763 1.6437,0 2.9764,1.3327 2.9764,2.9763 v 70.865 c 0,1.6436 -1.3327,2.9764 -2.9764,2.9764 -1.6436,0 -2.9763,-1.3328 -2.9763,-2.9764 z"
				id="path4820" />
		  <path
				class="pages"
				d="m 671.6941,291.4122 c 0,-1.174 0.9519,-2.1259 2.126,-2.1259 1.174,0 2.126,0.9519 2.126,2.1259 v 67.3218 c 0,1.174 -0.952,2.1259 -2.126,2.1259 -1.1741,0 -2.126,-0.9519 -2.126,-2.1259 z"
				id="path4822" />
		  <path
				class="padlock"
				d="m 652.2061,332.1595 c 0,-1.174 0.952,-2.126 2.126,-2.126 1.1741,0 2.126,0.952 2.126,2.126 v 12.4015 c 0,1.174 -0.9519,2.1259 -2.126,2.1259 -0.084,0 -0.1667,-0.005 -0.2481,-0.0144 l -21.1857,-1.7656 c -1.111,-0.0915 -1.9517,-1.0222 -1.9505,-2.1176 l -10e-4,-15.8915 c 0,-1.1741 0.952,-2.126 2.126,-2.126 h 15.5428 v -10.2343 c 0,-1.363 -0.5526,-2.5976 -1.4458,-3.4907 -0.8933,-0.8933 -2.1275,-1.4458 -3.4909,-1.4458 -1.3633,0 -2.5976,0.5525 -3.4907,1.4458 -0.8932,0.8931 -1.4458,2.1273 -1.4458,3.4907 h -0.008 l -6e-4,5.2973 c 0,1.1694 -0.9481,2.1176 -2.1176,2.1176 -1.1695,0 -2.1177,-0.9482 -2.1177,-2.1176 l 6e-4,-5.2973 h -0.008 c 0,-2.5372 1.0287,-4.8345 2.6915,-6.497 1.6625,-1.6629 3.9598,-2.6915 6.497,-2.6915 2.5371,0 4.8343,1.0286 6.4972,2.6915 1.6629,1.6625 2.6915,3.9599 2.6915,6.497 v 12.3603 c 0,1.174 -0.9519,2.126 -2.126,2.126 h -15.5428 v 11.8104 l 17.0075,1.4174 z"
				id="path4824" />
	  </g>
  </g>
</svg>
