<?xml version="1.0" encoding="UTF-8" standalone="no"?>
<svg
   xmlns:dc="http://purl.org/dc/elements/1.1/"
   xmlns:cc="http://creativecommons.org/ns#"
   xmlns:rdf="http://www.w3.org/1999/02/22-rdf-syntax-ns#"
   xmlns:svg="http://www.w3.org/2000/svg"
   xmlns="http://www.w3.org/2000/svg"
   id="svg4889"
   version="1.1"
   viewBox="0 0 285.75 285.75"
   height="1080"
   width="1080">
  <defs
     id="defs4883" />
  <metadata
     id="metadata4886">
    <rdf:RDF>
      <cc:Work
         rdf:about="">
        <dc:format>image/svg+xml</dc:format>
        <dc:type
           rdf:resource="http://purl.org/dc/dcmitype/StillImage" />
        <dc:title></dc:title>
      </cc:Work>
    </rdf:RDF>
  </metadata>
  <g
     style="display:none"
     transform="translate(-9.9014387,10.594482)"
     id="layer1">
    <rect
       ry="45.667805"
       rx="45.667805"
       y="-10.594482"
       x="9.9014387"
       height="285.75"
       width="285.75"
       id="rect9281"
       style="fill:#000000;fill-opacity:1;stroke-width:0.45667803" />
  </g>
  <g
     style="display:none"
     id="layer3">
    <g
       transform="matrix(0.22717909,0,0,0.22717909,15.508583,79.496392)"
       id="Layer1151">
      <path
         id="path10749"
         style="fill:#000000;fill-rule:evenodd"
         d="m 127.9331,150.3787 h -4.8911 v 23.4124 h 16.5323 v -4.239 h -11.6412 z m 31.4013,14.7386 c 0,-6.2607 -4.2063,-9.1301 -8.8691,-9.1301 -4.6629,0 -8.8695,2.8694 -8.8695,9.1301 0,6.2607 4.2066,9.1304 8.8695,9.1304 4.6628,0 8.8691,-2.8697 8.8691,-9.1304 z m -4.6952,0 c 0,2.2174 -0.6523,5.2824 -4.1739,5.2824 -3.5217,0 -4.174,-3.065 -4.174,-5.2824 0,-2.2172 0.6523,-5.2825 4.174,-5.2825 3.5216,0 4.1739,3.0653 4.1739,5.2825 z m 18.1949,2.3477 c 0,0.8153 -0.7826,3.0327 -3.0977,3.0327 -3.4564,0 -3.5217,-3.7499 -3.5217,-5.6411 0,-2.1521 0.75,-5.0218 3.6197,-5.0218 h 0.2283 c 1.9564,0 2.6084,1.6958 2.804,2.8044 h 4.6303 c -0.4237,-5.4128 -4.9236,-6.652 -7.6626,-6.652 -5.8695,0 -8.3152,4.0109 -8.3152,9.6193 0,3.652 1.5002,8.6412 8.0215,8.6412 6.3587,0 7.7606,-4.9892 7.9239,-6.7827 z m 11.8691,0.8479 1.8912,-1.9564 4.1413,7.4346 h 5.4781 l -6.2934,-10.6303 6.1304,-6.717 h -5.6085 l -5.7391,6.5867 v -12.6518 h -4.5652 v 23.4124 h 4.5652 z m 13.5644,-11.8691 v 17.3473 h 4.5652 v -17.3473 z m 4.5652,-6.2934 h -4.5652 v 4.2389 h 4.5652 z m 29.1842,11.6409 c 0,-3.815 -2.6411,-5.8041 -6.0325,-5.8041 -2.7717,0 -4.0432,1.9238 -4.6302,2.7717 -1.1739,-1.8585 -2.3151,-2.7717 -4.8261,-2.7717 -3.0651,0 -4.3366,1.8588 -4.9236,3 h -0.0653 v -2.5434 h -4.3696 v 17.3473 h 4.5652 v -10.565 c 0,-1.8911 0.6847,-3.3913 2.8368,-3.3913 2.739,0 2.739,2.0544 2.739,3.5216 v 10.4347 h 4.5652 v -10.402 c 0,-2.0541 0.8153,-3.5543 3.0977,-3.5543 1.3369,0 2.4781,0.8479 2.4781,3.424 v 10.5323 h 4.5653 z m 15.7171,-5.3475 v 2.576 h -0.0654 c -0.5542,-1.1415 -1.8584,-3.0326 -5.0868,-3.0326 -3.815,0 -7.2063,2.9347 -7.2063,8.9344 0,6.0651 3.2934,8.9671 7.4673,8.9671 2.739,0 3.8803,-1.2715 4.6302,-2.6084 l 0.0653,0.0653 v 2.0868 c 0,2.8041 -1.1739,3.978 -3.6193,3.978 -2.6414,0 -3,-0.8803 -3.1957,-1.7608 h -4.9565 c 0.1957,3.6849 3.9783,5.2174 7.5653,5.2174 8.5431,0 8.7714,-4.9891 8.7714,-7.9888 v -16.4344 z m -7.6629,8.7714 c 0,-4.0432 1.8914,-5.2824 3.5869,-5.2824 2.5434,0 3.913,2.2824 3.913,5.0868 0,2.3804 -0.7826,5.0215 -3.8803,5.0215 -2.7064,0 -3.6196,-2.6084 -3.6196,-4.8259 z" />
      <g
         id="Layer1152">
        <path
           id="path10751"
           style="fill:#000000;fill-rule:evenodd"
           d="m 111.9076,161.5765 c -3.8732,0 -7.393,-1.5824 -9.9413,-4.1314 -2.549,-2.5483 -4.1314,-6.0681 -4.1314,-9.9413 V 108.15 c 0,-3.8717 1.5833,-7.3915 4.1323,-9.9404 2.549,-2.5487 6.0685,-4.1324 9.9404,-4.1324 h 0.002 v -1.5405 c 0,-1.6946 1.3865,-3.081 3.0814,-3.081 h 12.013 c 1.6949,0 3.0814,1.387 3.0814,3.081 v 1.5405 h 26.4407 44.6181 c 3.872,0 7.3915,1.5837 9.9404,4.1324 1.2824,1.2823 2.3232,2.8194 3.0377,4.514 0.6507,1.5646 -0.0971,3.3778 -1.661,4.0285 l -1.4229,0.5916 c -1.5642,0.6507 -3.3771,-0.0968 -4.0282,-1.6616 -0.3241,-0.7604 -0.793,-1.4481 -1.3716,-2.0265 -1.157,-1.1569 -2.749,-1.8757 -4.4944,-1.8757 h -28.9447 c -9.2343,-7.7027 -20.075,-6.6024 -25.115,-2.609 -1.7023,0.7049 -3.2376,1.5882 -4.6086,2.609 h -30.5685 c -1.7454,0 -3.3374,0.7188 -4.4943,1.8757 -1.157,1.157 -1.8758,2.749 -1.8758,4.4944 v 39.3538 c 0,1.7469 0.7185,3.3389 1.8749,4.4952 1.1563,1.1564 2.7483,1.8749 4.4952,1.8749 1.6949,0 3.0814,1.3864 3.0814,3.081 v 1.5406 c 0,1.6945 -1.3865,3.081 -3.0814,3.081 z" />
        <path
           id="path10753"
           style="fill:#ab0000;fill-rule:evenodd"
           d="m 134.661,139.135 c -19.3402,-19.3401 -5.5629,-52.5296 21.7581,-52.5296 14.9099,0 27.5231,10.6607 30.236,25.028 20.3788,0 40.7569,0 61.1353,0 2.3722,0 4.3132,1.9408 4.3132,4.3132 v 2.1574 c 0,2.3721 -1.9413,4.3132 -4.3132,4.3132 v 13.4306 c 0,2.3721 -1.9407,4.3132 -4.3131,4.3132 h -2.1574 c -2.3724,0 -4.3132,-1.9411 -4.3132,-4.3132 v -13.4306 h -6.9635 v 10.3495 c 0,2.3722 -1.9407,4.3132 -4.3132,4.3132 h -2.1573 c -2.3724,0 -4.3132,-1.941 -4.3132,-4.3132 v -10.3495 h -32.4799 c -4.0378,24.4993 -34.3594,34.477 -52.1186,16.7178 z m 35.8919,-35.8919 c -12.5566,-12.5578 -34.1216,-3.6206 -34.1216,14.1337 0,17.7531 21.5632,26.6922 34.1216,14.1338 7.8052,-7.8053 7.8055,-20.4626 0,-28.2675 z" />
      </g>
    </g>
    <g
       transform="matrix(0.22717909,0,0,0.22717909,15.508583,79.496392)"
       id="Layer1153">
      <path
         id="path10757"
         style="fill:#000000;fill-rule:evenodd"
         d="m 698.0571,185.9072 c 0,-4.4192 -3.0594,-6.7231 -6.9874,-6.7231 -3.8146,0 -5.3253,2.2663 -6.0429,3.4749 h -0.0755 v -2.9461 h -5.0611 v 20.0933 h 5.2877 v -11.5196 c 0,-3.0594 1.8129,-4.6457 4.1544,-4.6457 3.3614,0 3.4371,2.4929 3.4371,3.9657 v 12.1996 h 5.2877 z m 24.2856,3.8524 c 0,-7.2517 -4.8723,-10.5755 -10.2733,-10.5755 -5.401,0 -10.2733,3.3238 -10.2733,10.5755 0,7.2516 4.8723,10.5754 10.2733,10.5754 5.401,0 10.2733,-3.3238 10.2733,-10.5754 z m -5.4388,0 c 0,2.5682 -0.7555,6.1186 -4.8345,6.1186 -4.0791,0 -4.8345,-3.5504 -4.8345,-6.1186 0,-2.5683 0.7554,-6.1187 4.8345,-6.1187 4.079,0 4.8345,3.5504 4.8345,6.1187 z m 22.5103,-10.0467 v 2.9838 h -0.0755 c -0.6421,-1.322 -2.1528,-3.5126 -5.892,-3.5126 -4.4189,0 -8.347,3.3993 -8.347,10.3488 0,7.0251 3.8148,10.3866 8.6493,10.3866 3.1725,0 4.4944,-1.4731 5.3631,-3.0216 l 0.0755,0.0756 v 2.4171 c 0,3.2482 -1.3596,4.6079 -4.1924,4.6079 -3.0592,0 -3.4747,-1.0197 -3.7013,-2.0395 h -5.7409 c 0.2266,4.268 4.6078,6.0431 8.7625,6.0431 9.8955,0 10.1598,-5.7787 10.1598,-9.2534 v -19.0358 z m -8.8757,10.16 c 0,-4.6834 2.1906,-6.1187 4.1547,-6.1187 2.9459,0 4.5322,2.6438 4.5322,5.892 0,2.7573 -0.9064,5.8165 -4.4946,5.8165 -3.1348,0 -4.1923,-3.0216 -4.1923,-5.5898 z m 34.8609,-4.8723 c 0,-4.9478 -5.1743,-5.8165 -8.007,-5.8165 -4.1168,0 -8.3847,0.8687 -8.989,7.0251 h 5.0987 c 0.1512,-1.1708 0.6044,-2.7949 3.2482,-2.7949 1.3597,0 3.4748,0.1133 3.4748,2.3417 0,1.133 -1.0197,1.4731 -1.8506,1.5864 l -4.7591,0.7176 c -3.3614,0.491 -5.8541,2.4927 -5.8541,6.4207 0,4.1547 3.097,5.8543 6.1186,5.8543 3.588,0 5.2877,-1.662 6.4963,-2.9083 0.1133,1.133 0.1888,1.4353 0.491,2.3795 h 5.7032 v -0.7931 c -0.6421,-0.2268 -1.171,-0.7555 -1.171,-3.1349 z m -5.1743,7.5916 c 0,2.4551 -2.3795,3.9658 -4.7211,3.9658 -1.0198,0 -2.455,-0.5665 -2.455,-2.4172 0,-2.1907 1.624,-2.6817 3.588,-3.0216 2.1907,-0.3399 3.0594,-0.6798 3.5881,-1.0953 z m 15.334,-19.9044 h -5.2875 v 27.1184 h 5.2875 z" />
      <path
         id="path10759"
         style="fill:#000000;fill-rule:evenodd"
         d="m 676.4867,98.8015 c -12.6018,0.1862 -18.8983,15.5405 -9.9326,24.5062 2.6031,2.6031 6.1915,4.2135 10.1473,4.2135 1.4619,0 2.6471,1.1852 2.6471,2.6471 0,11.1323 12.1183,17.8876 21.536,12.4376 2.5259,-1.4618 3.4839,1.9125 9.8325,1.9125 6.376,0 7.2985,-3.3943 9.8601,-1.8968 4.3631,2.551 9.9617,2.5081 14.3227,-0.0157 2.5259,-1.4618 3.4839,1.9125 9.8325,1.9125 6.376,0 7.2985,-3.3943 9.8601,-1.8968 9.2659,5.4173 21.5084,-1.2617 21.5084,-12.4533 0,-1.4619 1.1852,-2.6471 2.647,-2.6471 12.7124,0 19.1809,-15.4746 10.1474,-24.5081 -2.6031,-2.6031 -6.1915,-4.2135 -10.1474,-4.2135 -1.4618,0 -2.647,-1.1853 -2.647,-2.6471 0,-7.9065 -6.4288,-14.3502 -14.3606,-14.3502 -1.5229,0 -2.7017,-1.2016 -2.649,-2.8722 -0.0572,-3.871 -1.6557,-7.3767 -4.2116,-9.9326 -4.5915,-4.5915 -11.7288,-5.5273 -17.3223,-2.2903 -2.5261,1.4618 -3.4836,-1.9125 -9.8327,-1.9125 -6.3756,0 -7.2983,3.3943 -9.8599,1.8968 -9.2658,-5.4172 -21.5085,1.2615 -21.5085,12.4534 0,1.4618 -1.1853,2.647 -2.6471,2.647 v 0.0104 c -7.9261,0 -14.3502,6.4245 -14.3502,14.3502 0,1.5486 -1.3168,2.7704 -2.8722,2.649 z m -13.6905,0.4537 c 2.9985,-2.9985 6.9688,-5.0316 11.404,-5.5926 1.1208,-8.8696 8.1493,-15.8981 17.0189,-17.019 1.6868,-13.3337 16.0038,-21.0015 28.0016,-15.2275 5.3645,-2.5823 11.643,-2.5818 17.0077,0 11.9943,-5.7736 26.3148,1.8915 28.0017,15.2275 8.8679,1.1206 15.8901,8.1372 17.009,17.0177 16.1079,2.0297 22.9819,21.8364 11.414,33.4043 -3.0007,3.0006 -6.9748,5.0345 -11.414,5.5939 -1.681,13.3418 -16.0053,21.0126 -28.0031,15.2376 -5.3647,2.5818 -11.6431,2.5822 -17.0076,0 -5.3647,2.5818 -11.6432,2.5822 -17.0077,0 -5.3647,2.5818 -11.6432,2.5822 -17.0077,0 -12.0011,5.7756 -26.322,-1.8983 -28.0028,-15.2376 -16.1079,-2.0297 -22.9819,-21.8364 -11.414,-33.4043 z" />
      <path
         id="path10761"
         style="fill:#ab0000;fill-rule:evenodd"
         d="m 720.2837,120.0224 v -19.0862 c 0,-3.6697 -1.4873,-6.9919 -3.8914,-9.396 -2.4043,-2.4043 -5.7266,-3.8914 -9.396,-3.8914 -2.0546,0 -3.7205,-1.6659 -3.7205,-3.7205 0,-2.0545 1.6659,-3.7205 3.7205,-3.7205 5.7234,0 10.9057,2.3203 14.657,6.0714 3.751,3.7511 6.0713,8.9334 6.0713,14.657 0,-5.7236 2.3203,-10.9059 6.0714,-14.657 3.7513,-3.7511 8.9336,-6.0714 14.657,-6.0714 2.0545,0 3.7205,1.666 3.7205,3.7205 0,2.0546 -1.666,3.7205 -3.7205,3.7205 -3.6695,0 -6.9917,1.4871 -9.396,3.8914 -2.4041,2.4041 -3.8914,5.7263 -3.8914,9.396 v 19.0862 l 16.5165,-9.5359 -0.004,-0.006 c 3.1792,-1.8356 5.3144,-4.7873 6.1952,-8.0749 0.8814,-3.2906 0.5108,-6.9133 -1.3213,-10.0866 -1.0273,-1.7737 -0.4223,-4.0446 1.3514,-5.0719 1.7737,-1.0273 4.0447,-0.4222 5.072,1.3515 2.8643,4.9612 3.4481,10.6078 2.0773,15.7255 -1.3721,5.1208 -4.6988,9.7189 -9.6541,12.5798 l -0.004,-0.006 -10.0976,5.8299 h 11.6589 c 3.6697,0 6.992,-1.4873 9.396,-3.8914 2.4043,-2.4043 3.8914,-5.7265 3.8914,-9.396 0,-2.0545 1.6659,-3.7205 3.7205,-3.7205 2.0545,0 3.7205,1.666 3.7205,3.7205 0,5.7234 -2.3203,10.9057 -6.0714,14.657 -3.7511,3.7511 -8.9334,6.0714 -14.657,6.0714 h -21.7911 v 21.7911 c 0,3.6694 1.4871,6.9917 3.8914,9.396 2.4043,2.4043 5.7265,3.8914 9.396,3.8914 2.0545,0 3.7205,1.6659 3.7205,3.7205 0,2.0545 -1.666,3.7204 -3.7205,3.7204 -5.7234,0 -10.9057,-2.3203 -14.657,-6.0713 -3.7511,-3.7513 -6.0714,-8.9336 -6.0714,-14.657 0,5.7234 -2.3203,10.9057 -6.0713,14.657 -3.7513,3.751 -8.9336,6.0713 -14.657,6.0713 -2.0546,0 -3.7205,-1.6659 -3.7205,-3.7204 0,-2.0546 1.6659,-3.7205 3.7205,-3.7205 3.6694,0 6.9917,-1.4871 9.396,-3.8914 2.4043,-2.4043 3.8914,-5.7266 3.8914,-9.396 v -21.7911 h -21.7911 c -5.7236,0 -10.9059,-2.3203 -14.657,-6.0714 -3.7511,-3.7513 -6.0714,-8.9336 -6.0714,-14.657 0,-2.0545 1.6659,-3.7205 3.7205,-3.7205 2.0545,0 3.7205,1.666 3.7205,3.7205 0,3.6695 1.4871,6.9917 3.8914,9.396 2.404,2.4041 5.7263,3.8914 9.396,3.8914 h 11.6589 l -10.0976,-5.8299 -0.004,0.006 c -4.9553,-2.8609 -8.282,-7.459 -9.6541,-12.5798 -1.3709,-5.1177 -0.7871,-10.7643 2.0773,-15.7255 1.0273,-1.7737 3.2982,-2.3788 5.0719,-1.3515 1.7737,1.0273 2.3788,3.2982 1.3515,5.0719 -1.8321,3.1733 -2.2027,6.796 -1.3213,10.0866 0.8808,3.2876 3.0159,6.2393 6.1951,8.0749 l -0.004,0.006 z" />
    </g>
    <g
       transform="matrix(0.22717909,0,0,0.22717909,15.508583,79.496392)"
       id="Layer1154">
      <g
         id="Layer1155">
        <path
           id="path10764"
           style="fill:#ab0000;fill-rule:evenodd"
           d="m 1014.9126,104.3998 c 0,-2.549 2.0669,-4.6159 4.6159,-4.6159 2.5491,0 4.6159,2.0669 4.6159,4.6159 v 14.7572 l 14.0285,-4.5581 c 2.4198,-0.7866 5.0192,0.5373 5.8057,2.9571 0.7866,2.4198 -0.5373,5.0192 -2.957,5.8057 l -14.0361,4.5606 8.6787,11.9454 c 1.4937,2.0611 1.0334,4.9433 -1.0277,6.437 -2.061,1.4937 -4.9432,1.0334 -6.4369,-1.0276 l -8.6708,-11.9344 -8.6711,11.9346 c -1.4937,2.0611 -4.3759,2.5214 -6.437,1.0277 -2.061,-1.4937 -2.5213,-4.3759 -1.0276,-6.437 l 8.679,-11.9455 -14.0366,-4.5605 c -2.4198,-0.7865 -3.7437,-3.386 -2.9571,-5.8058 0.7865,-2.4198 3.386,-3.7436 5.8058,-2.9571 l 14.0284,4.5582 z" />
        <path
           id="path10766"
           style="fill:#000000;fill-rule:evenodd"
           d="m 974.0287,127.5161 c 0,-1.8208 1.4763,-3.2971 3.2971,-3.2971 1.8208,0 3.2971,1.4763 3.2971,3.2971 v 6.0194 l 5.7198,-1.8585 c 1.7282,-0.5618 3.5851,0.384 4.1469,2.1122 0.5619,1.7282 -0.384,3.5852 -2.1122,4.147 l -5.7256,1.8603 3.5413,4.8742 c 1.0667,1.4721 0.7381,3.531 -0.734,4.5977 -1.4721,1.0667 -3.5311,0.738 -4.5978,-0.7341 l -3.5355,-4.8665 -3.5358,4.8663 c -1.0666,1.472 -3.1256,1.8007 -4.5977,0.734 -1.4721,-1.0666 -1.8007,-3.1256 -0.7341,-4.5977 l 3.5414,-4.8741 -5.7253,-1.8604 c -1.7282,-0.5618 -2.6741,-2.4187 -2.1123,-4.1469 0.5618,-1.7282 2.4187,-2.6741 4.1469,-2.1123 l 5.7198,1.8585 z" />
        <path
           id="path10768"
           style="fill:#000000;fill-rule:evenodd"
           d="m 980.5074,115.4287 c -0.4695,1.7569 -2.2745,2.8007 -4.0314,2.3312 -1.757,-0.4695 -2.8007,-2.2745 -2.3312,-4.0314 1.1292,-4.2153 3.3364,-7.9658 6.3111,-10.9406 2.9751,-2.975 6.7256,-5.1825 10.9408,-6.3119 1.3803,-0.3698 2.7809,-0.6167 4.1852,-0.7409 l -1.7184,-2.0479 c -1.1664,-1.394 -0.982,-3.4701 0.412,-4.6365 1.394,-1.1664 3.4701,-0.982 4.6365,0.412 l 6.7817,8.0823 c 1.1664,1.394 0.982,3.4702 -0.412,4.6365 l -8.0821,6.782 c -1.394,1.1664 -3.4701,0.982 -4.6365,-0.412 -1.1664,-1.394 -0.982,-3.4701 0.412,-4.6365 l 1.6937,-1.4212 c -0.5289,0.091 -1.0533,0.2058 -1.5718,0.3448 -3.0661,0.8216 -5.8016,2.4345 -7.9787,4.6117 -2.1769,2.1768 -3.7896,4.9121 -4.6109,7.9784 z" />
      </g>
      <path
         id="path10771"
         style="fill:#000000;fill-rule:evenodd"
         d="m 927.572,170.3048 h 5.5969 c 6.2797,0 7.4511,-5.337 7.4511,-7.4524 0,-4.5888 -2.7331,-7.4852 -7.2559,-7.4852 h -10.6728 v 23.3666 h 4.8807 z m 0,-4.0353 v -6.8667 h 3.8721 c 3.0262,0 4.2952,0.9438 4.2952,3.2217 0,1.0416 0,3.645 -3.6445,3.645 z m 29.5126,-0.2928 c 0,-4.2633 -4.4576,-5.0118 -6.8983,-5.0118 -3.5466,0 -7.2232,0.7485 -7.7439,6.0531 h 4.3925 c 0.13,-1.0089 0.5207,-2.4081 2.7983,-2.4081 1.1714,0 2.9938,0.0976 2.9938,2.0175 0,0.9765 -0.8789,1.2693 -1.5945,1.3669 l -4.1,0.6185 c -2.8959,0.4228 -5.0435,2.1478 -5.0435,5.5322 0,3.5799 2.6683,5.0443 5.2714,5.0443 3.0911,0 4.5552,-1.4317 5.5966,-2.5058 0.0973,0.9762 0.1625,1.2366 0.4228,2.0503 h 4.9135 v -0.6834 c -0.5532,-0.1952 -1.0087,-0.651 -1.0087,-2.7013 z m -4.4576,6.5412 c 0,2.1154 -2.05,3.417 -4.0676,3.417 -0.8783,0 -2.1151,-0.4879 -2.1151,-2.0827 0,-1.8875 1.3995,-2.3106 3.0916,-2.6036 1.887,-0.2928 2.6353,-0.5856 3.0911,-0.9438 z m 22.7767,-5.8198 c -0.3579,-4.8871 -4.3927,-5.7332 -7.7766,-5.7332 -5.4014,0 -6.9956,3.2543 -6.9956,5.7981 0,6.471 10.7374,4.2904 10.7374,7.1868 0,0.651 -0.5531,1.79 -2.8959,1.79 -2.8632,0 -3.7745,-1.0741 -3.7745,-2.5385 h -4.6855 c 0.1303,4.6212 4.3927,5.988 8.33,5.988 2.7007,0 7.5814,-0.911 7.5814,-5.9553 0,-6.3734 -10.8353,-4.388 -10.8353,-7.1217 0,-0.7541 0.3255,-1.6979 2.7983,-1.6979 2.4731,0 2.8632,1.1717 3.0584,2.2837 z m 18.0916,0 c -0.3582,-4.8871 -4.3928,-5.7332 -7.7767,-5.7332 -5.4017,0 -6.9959,3.2543 -6.9959,5.7981 0,6.471 10.7377,4.2904 10.7377,7.1868 0,0.651 -0.5531,1.79 -2.8961,1.79 -2.8632,0 -3.7743,-1.0741 -3.7743,-2.5385 h -4.6855 c 0.1303,4.6212 4.3927,5.988 8.33,5.988 2.7007,0 7.5814,-0.911 7.5814,-5.9553 0,-6.3734 -10.8352,-4.388 -10.8352,-7.1217 0,-0.7541 0.3252,-1.6979 2.7983,-1.6979 2.4728,0 2.8631,1.1717 3.0583,2.2837 z m 26.2585,-5.2777 h -4.6856 l -2.7007,12.4318 h -0.065 l -2.6032,-12.4318 h -4.5877 l -2.4406,12.4318 h -0.065 l -2.7005,-12.4318 h -4.8483 l 4.8808,17.3134 h 4.6855 l 2.7007,-12.6271 h 0.065 l 2.701,12.6271 h 4.6855 z m 11.9415,12.2367 c -0.3577,1.2365 -1.6594,1.8875 -2.9284,1.8875 -3.6769,0 -3.9369,-2.9292 -4.0672,-4.2308 h 11.8763 v -0.8135 c 0,-7.9083 -4.718,-9.5354 -8.1345,-9.5354 -7.5815,0 -8.2971,6.6714 -8.2971,8.7541 0,7.1273 3.7418,9.4703 8.6225,9.4703 2.9608,0 6.4101,-1.3668 7.6139,-5.5322 z m -6.8653,-5.3049 c 0.26,-2.2779 1.399,-3.6447 3.5463,-3.6447 1.4644,0 3.2538,0.8461 3.5142,3.6447 z m 14.7395,10.3816 h 4.5558 v -9.0148 c 0,-1.9199 0.6504,-4.1329 4.1973,-4.1329 0.4231,0 0.9111,0 1.3014,0.0651 V 161.03 c -0.2927,-0.0327 -0.5855,-0.0651 -0.8783,-0.0651 -2.7661,0 -3.8072,1.6923 -4.7507,3.4495 h -0.065 v -2.994 h -4.3603 z m 22.2242,-5.0767 c -0.3579,1.2365 -1.6593,1.8875 -2.9286,1.8875 -3.6766,0 -3.937,-2.9292 -4.0673,-4.2308 h 11.8767 v -0.8135 c 0,-7.9083 -4.718,-9.5354 -8.1346,-9.5354 -7.5817,0 -8.2973,6.6714 -8.2973,8.7541 0,7.1273 3.7418,9.4703 8.6225,9.4703 2.9611,0 6.4101,-1.3668 7.6142,-5.5322 z m -6.8656,-5.3049 c 0.2604,-2.2779 1.399,-3.6447 3.5466,-3.6447 1.4642,0 3.2539,0.8461 3.5139,3.6447 z m 30.5862,-12.985 h -4.5553 v 8.2989 h -0.065 c -0.7162,-1.1065 -2.0827,-2.7012 -5.0111,-2.7012 -3.8069,0 -7.1911,2.9288 -7.1911,8.9169 0,4.7515 2.1476,9.3075 7.2887,9.3075 1.8873,0 3.9046,-0.6834 5.0111,-2.6361 h 0.065 v 2.1806 h 4.4577 z m -12.137,14.8401 c 0,-2.7337 0.9762,-5.3047 3.8721,-5.3047 3.1238,0 3.9048,2.7989 3.9048,5.565 0,2.5709 -1.1389,4.9794 -4.0348,4.9794 -2.9286,0 -3.7421,-3.1895 -3.7421,-5.2397 z" />
    </g>
    <g
       transform="matrix(0.22717909,0,0,0.22717909,15.508583,79.496392)"
       id="Layer1156">
      <path
         id="path10774"
         style="fill:#000000;fill-rule:evenodd"
         d="m 174.0301,302.4236 h -6.5021 v 33.3463 h 6.5021 z m 6.409,8.6385 v 24.7078 h 6.5021 v -24.7078 z m 6.5021,-8.9636 h -6.5021 v 6.0376 h 6.5021 z m 20.8993,24.6614 c 0,1.161 -1.1147,4.3192 -4.4121,4.3192 -4.9229,0 -5.0158,-5.3409 -5.0158,-8.0347 0,-3.0653 1.0681,-7.1523 5.1551,-7.1523 h 0.3252 c 2.7866,0 3.7154,2.4151 3.9941,3.9941 h 6.5948 c -0.6035,-7.7094 -7.0128,-9.4742 -10.9141,-9.4742 -8.3596,0 -11.8431,5.7125 -11.8431,13.7007 0,5.2016 2.1364,12.3073 11.4251,12.3073 9.0565,0 11.0536,-7.1057 11.2858,-9.6601 z m 16.9054,1.2076 2.6936,-2.7867 5.8981,10.5891 h 7.8026 l -8.9636,-15.1404 8.7312,-9.5674 h -7.9882 l -8.1737,9.3815 v -18.02 h -6.5022 v 33.3463 h 6.5022 z" />
      <path
         id="path10776"
         style="fill:#ab0000;fill-rule:evenodd"
         d="m 171.3951,356.9583 h 4.4342 c 4.9754,0 5.9036,-4.2278 5.9036,-5.9035 0,-3.635 -2.1655,-5.9293 -5.749,-5.9293 h -8.4557 v 18.5099 h 3.8669 z m 0,-3.1967 v -5.4395 h 3.0678 c 2.3975,0 3.4029,0.7477 3.4029,2.5522 0,0.8249 0,2.8873 -2.8873,2.8873 z m 25.2387,3.0164 c 0,-4.9499 -3.3257,-7.2186 -7.0122,-7.2186 -3.6864,0 -7.0121,2.2687 -7.0121,7.2186 0,4.9497 3.3257,7.2183 7.0121,7.2183 3.6865,0 7.0122,-2.2686 7.0122,-7.2183 z m -3.7124,0 c 0,1.7529 -0.5156,4.1763 -3.2998,4.1763 -2.7842,0 -3.2999,-2.4234 -3.2999,-4.1763 0,-1.7531 0.5157,-4.1765 3.2999,-4.1765 2.7842,0 3.2998,2.4234 3.2998,4.1765 z m 17.5302,-2.6768 c -0.2836,-3.8715 -3.4802,-4.5418 -6.1613,-4.5418 -4.2794,0 -5.5427,2.5782 -5.5427,4.5932 0,5.126 8.5074,3.3986 8.5074,5.6932 0,0.5155 -0.4384,1.4178 -2.2944,1.4178 -2.2686,0 -2.9906,-0.8508 -2.9906,-2.0108 h -3.7122 c 0.1031,3.6608 3.4802,4.7435 6.5997,4.7435 2.1396,0 6.0065,-0.7219 6.0065,-4.7177 0,-5.0486 -8.5845,-3.476 -8.5845,-5.6415 0,-0.5972 0.2577,-1.3449 2.217,-1.3449 1.9593,0 2.2686,0.9282 2.4234,1.809 z m 3.1452,-4.1808 v 13.715 h 3.6093 v -13.715 z m 3.6093,-4.9754 h -3.6093 v 3.3514 h 3.6093 z m 7.5019,1.2632 h -3.6093 v 3.7122 h -1.856 v 2.578 h 1.856 v 8.327 c 0,1.7788 0.5672,2.9647 3.6867,2.9647 h 0.4639 c 0.5672,0 1.1344,-0.0259 1.7016,-0.0516 v -2.7328 c -0.2579,0.026 -0.5157,0.0517 -0.7477,0.0517 -1.4695,0 -1.4952,-0.3093 -1.4952,-1.1085 v -7.4505 h 2.2429 v -2.578 h -2.2429 z m 4.6404,3.7122 v 13.715 h 3.6093 v -13.715 z m 3.6093,-4.9754 h -3.6093 v 3.3514 h 3.6093 z m 15.7771,4.9754 h -3.8412 l -2.9132,10.1057 h -0.0515 l -2.8358,-10.1057 h -4.0215 l 4.9237,13.715 h 3.7898 z m 14.4625,6.8576 c 0,-4.9499 -3.3257,-7.2186 -7.0122,-7.2186 -3.6864,0 -7.0121,2.2687 -7.0121,7.2186 0,4.9497 3.3257,7.2183 7.0121,7.2183 3.6865,0 7.0122,-2.2686 7.0122,-7.2183 z m -3.7124,0 c 0,1.7529 -0.5156,4.1763 -3.2998,4.1763 -2.7842,0 -3.2999,-2.4234 -3.2999,-4.1763 0,-1.7531 0.5157,-4.1765 3.2999,-4.1765 2.7842,0 3.2998,2.4234 3.2998,4.1765 z" />
      <path
         id="path10778"
         style="fill:#ab0000;fill-rule:evenodd"
         d="m 94.1817,314.3234 c 0,2.0545 -1.6659,3.7204 -3.7205,3.7204 -2.0545,0 -3.7204,-1.6659 -3.7204,-3.7204 0,-12.1787 4.939,-23.2075 12.923,-31.1912 7.9837,-7.9839 19.0124,-12.923 31.1911,-12.923 2.0546,0 3.7205,1.6659 3.7205,3.7205 0,2.0545 -1.6659,3.7204 -3.7205,3.7204 -10.1247,0 -19.2933,4.1059 -25.9302,10.7431 -6.6371,6.6369 -10.743,15.8054 -10.743,25.9302 z" />
      <path
         id="path10780"
         style="fill:#000000;fill-rule:evenodd"
         d="m 159.0242,314.3234 c 0,1.4675 -1.1899,2.6574 -2.6574,2.6574 -1.4676,0 -2.6575,-1.1899 -2.6575,-2.6574 0,-6.3112 -2.5582,-12.0252 -6.6937,-16.1607 -4.1357,-4.1357 -9.8495,-6.6937 -16.1607,-6.6937 -6.3112,0 -12.025,2.558 -16.1606,6.6937 -4.1357,4.1357 -6.6937,9.8495 -6.6937,16.1607 v 37.4481 c 0,6.3112 2.558,12.025 6.6937,16.1607 4.1356,4.1357 9.8494,6.6936 16.1606,6.6936 6.3112,0 12.025,-2.5579 16.1607,-6.6936 4.1355,-4.1355 6.6937,-9.8495 6.6937,-16.1607 0,-1.4676 1.1899,-2.6575 2.6575,-2.6575 1.4675,0 2.6574,1.1899 2.6574,2.6575 0,7.7783 -3.1532,14.8209 -8.2507,19.9186 -5.0975,5.0974 -12.1402,8.2507 -19.9186,8.2507 -7.7783,0 -14.821,-3.1533 -19.9185,-8.2507 -5.0975,-5.0975 -8.2508,-12.1403 -8.2508,-19.9186 v -37.4481 c 0,-7.7784 3.1533,-14.8211 8.2508,-19.9186 5.0975,-5.0975 12.1402,-8.2507 19.9185,-8.2507 7.7784,0 14.8211,3.1532 19.9186,8.2507 5.0975,5.0977 8.2507,12.1402 8.2507,19.9186 z" />
      <path
         id="path10782"
         style="fill:#ab0000;fill-rule:evenodd"
         d="m 127.1345,305.5441 c 0,-2.0545 1.6659,-3.7205 3.7204,-3.7205 2.0546,0 3.7205,1.666 3.7205,3.7205 v 5.0588 h 5.0588 c 2.0545,0 3.7205,1.6659 3.7205,3.7205 0,2.0545 -1.666,3.7204 -3.7205,3.7204 h -5.0588 v 5.0588 c 0,2.0546 -1.6659,3.7205 -3.7205,3.7205 -2.0545,0 -3.7204,-1.6659 -3.7204,-3.7205 v -5.0588 h -5.0588 c -2.0546,0 -3.7205,-1.6659 -3.7205,-3.7204 0,-2.0546 1.6659,-3.7205 3.7205,-3.7205 h 5.0588 z" />
    </g>
    <g
       transform="matrix(0.22717909,0,0,0.22717909,15.508583,79.496392)"
       id="Layer1157">
      <g
         id="Layer1158">
        <path
           id="path10785"
           style="fill:#000000;fill-rule:evenodd"
           d="m 344.746,335.8562 -1.8581,-6.9354 c -0.3833,-1.4319 -0.3827,-2.8665 -0.0221,-4.212 0.3616,-1.3502 1.0785,-2.5948 2.1253,-3.6418 l 5.0767,-5.0767 c 1.047,-1.0468 2.2913,-1.7635 3.6416,-2.1251 1.3457,-0.3608 2.7803,-0.3614 4.212,0.0221 l 6.9356,1.8583 c 1.4361,0.3846 2.6798,1.1026 3.6639,2.0867 0.9841,0.9841 1.7018,2.2278 2.0866,3.6639 l 1.8584,6.9356 c 0.2495,0.932 0.3363,1.8654 0.267,2.7744 0.9093,-0.0693 1.8424,0.0177 2.7744,0.2673 l 6.9354,1.8583 c 1.4361,0.3848 2.6798,1.1025 3.6639,2.0866 0.9841,0.9842 1.7018,2.2279 2.0869,3.6642 l 1.8581,6.9354 c 0.3835,1.4314 0.3827,2.866 0.0223,4.212 -0.3618,1.3502 -1.0787,2.5947 -2.1256,3.6418 l -5.0764,5.0764 c -1.0468,1.0468 -2.2916,1.7637 -3.6416,2.1253 -1.3459,0.3606 -2.7806,0.3612 -4.212,-0.0221 l -6.9354,-1.8581 c -1.4363,-0.3848 -2.68,-1.1027 -3.6639,-2.0866 -0.9841,-0.9842 -1.7021,-2.2281 -2.0869,-3.6642 l -1.8583,-6.9354 c -0.2496,-0.9322 -0.3365,-1.8655 -0.2672,-2.7748 -0.9091,0.0693 -1.8422,-0.0176 -2.7742,-0.2672 l -6.9354,-1.8581 c -1.4361,-0.3848 -2.6802,-1.103 -3.6641,-2.0867 -0.9839,-0.9841 -1.7019,-2.2276 -2.0869,-3.6641 z m 20.3533,13.1309 0.9293,3.4677 c 0.2058,0.7685 0.584,1.428 1.0989,1.9431 0.5149,0.515 1.1744,0.893 1.9432,1.099 l 6.9353,1.8581 c 0.7731,0.2071 1.5346,0.2102 2.2364,0.0221 0.6975,-0.1867 1.3536,-0.5704 1.9208,-1.1376 l 5.0766,-5.0764 c 0.567,-0.5673 0.9508,-1.2236 1.1376,-1.9209 0.188,-0.7018 0.1848,-1.4635 -0.0223,-2.2363 l -1.8581,-6.9356 c -0.206,-0.7685 -0.5842,-1.4282 -1.0989,-1.9431 -0.5149,-0.515 -1.1746,-0.8932 -1.9432,-1.099 l -6.9353,-1.8583 c -0.7733,-0.2071 -1.5346,-0.2103 -2.2366,-0.0221 -0.6973,0.1867 -1.3534,0.5704 -1.9208,1.1378 l -5.0764,5.0765 c -0.5672,0.5672 -0.951,1.2235 -1.1379,1.9206 -0.1879,0.702 -0.1847,1.4635 0.0224,2.2365 z m -17.5859,-17.5861 0.929,3.4674 c 0.2061,0.7686 0.5843,1.4283 1.0992,1.9432 0.5149,0.5147 1.1746,0.8929 1.9431,1.0989 l 6.9354,1.8581 c 0.7732,0.2071 1.5348,0.2103 2.2366,0.0223 0.6973,-0.1868 1.3534,-0.5704 1.9208,-1.1376 l 5.0764,-5.0766 c 0.5672,-0.5672 0.951,-1.2235 1.1376,-1.9208 0.1882,-0.7018 0.185,-1.4633 -0.0221,-2.2364 l -1.8583,-6.9353 c -0.2058,-0.7688 -0.5838,-1.4283 -1.0987,-1.9432 -0.5152,-0.5151 -1.1746,-0.8931 -1.9434,-1.0991 l -6.9354,-1.8581 c -0.773,-0.2071 -1.5345,-0.2103 -2.2365,-0.0221 -0.6973,0.1866 -1.3536,0.5701 -1.9206,1.1374 l -5.0767,5.0766 c -0.5672,0.5674 -0.9509,1.2235 -1.1376,1.9208 -0.1879,0.7018 -0.1849,1.4633 0.0221,2.2363 z" />
        <path
           id="path10787"
           style="fill:#ab0000;fill-rule:evenodd"
           d="m 381.2574,337.767 -6.9353,-1.8585 c -1.5701,-0.4208 -2.9305,-1.2065 -4.0082,-2.2844 -1.0774,-1.0777 -1.8634,-2.4383 -2.2841,-4.0081 l -1.8581,-6.9343 c -0.1958,-0.7309 -0.2996,-1.4633 -0.3145,-2.1864 -0.7232,-0.0149 -1.4552,-0.1186 -2.1859,-0.3144 l -6.9354,-1.8586 c -1.57,-0.4205 -2.9304,-1.2062 -4.0081,-2.2841 -1.0775,-1.0777 -1.8634,-2.4385 -2.2842,-4.0081 l -1.8581,-6.9348 c -0.419,-1.5634 -0.4173,-3.1328 -0.0223,-4.6072 0.3967,-1.4808 1.1799,-2.8429 2.3226,-3.9856 l 5.0771,-5.0773 c 1.1429,-1.1427 2.505,-1.9261 3.9858,-2.323 1.4748,-0.395 3.0438,-0.3963 4.6072,0.0223 l 6.9354,1.8585 c 1.5696,0.4203 2.93,1.2063 4.0079,2.2842 1.0777,1.0779 1.8636,2.4383 2.2844,4.0083 l 1.8581,6.9348 c 0.1958,0.7307 0.2995,1.4626 0.3144,2.1859 0.7233,0.0149 1.4553,0.1186 2.1862,0.3144 l 6.9351,1.8586 c 1.5699,0.4207 2.9303,1.2067 4.0082,2.2841 1.0776,1.0779 1.8636,2.4385 2.2841,4.0081 l 1.8583,6.9348 c 0.4189,1.5634 0.4172,3.1328 0.0224,4.6072 -0.3969,1.4808 -1.1804,2.8431 -2.3231,3.9858 l -5.0768,5.0771 c -1.1428,1.1427 -2.5049,1.9263 -3.9858,2.323 -1.4746,0.3953 -3.0436,0.3965 -4.6073,-0.0223 z m -19.6708,-23.69 3.4674,0.929 c 0.6417,0.172 1.2686,0.1758 1.8416,0.0223 0.5665,-0.1518 1.1053,-0.4687 1.5766,-0.9401 l 5.0771,-5.0773 c 0.4711,-0.4711 0.7881,-1.0098 0.9399,-1.5764 0.1535,-0.5729 0.1494,-1.2001 -0.0224,-1.8415 l -1.8583,-6.9347 c -0.1701,-0.6353 -0.4802,-1.1778 -0.9012,-1.599 -0.4212,-0.4212 -0.9639,-0.7313 -1.5987,-0.9014 l -6.9354,-1.8583 c -0.6416,-0.1718 -1.2686,-0.1759 -1.8415,-0.0226 -0.5668,0.152 -1.1053,0.4688 -1.5767,0.9401 l -5.077,5.0773 c -0.4712,0.4713 -0.7881,1.0099 -0.9399,1.5764 -0.1535,0.573 -0.1497,1.2001 0.0223,1.8418 l 1.8581,6.9345 c 0.1701,0.635 0.4805,1.178 0.9014,1.599 0.4212,0.4211 0.9639,0.7313 1.5987,0.9014 z m 17.5863,17.5861 3.4673,0.9291 c 0.6416,0.1717 1.2688,0.1758 1.8417,0.0223 0.5666,-0.1518 1.1053,-0.469 1.5764,-0.9401 l 5.0771,-5.0773 c 0.4713,-0.4713 0.7883,-1.0099 0.9401,-1.5764 0.1533,-0.5732 0.1495,-1.2001 -0.0223,-1.8418 l -1.8583,-6.9345 c -0.1701,-0.635 -0.4803,-1.1778 -0.9012,-1.599 -0.4214,-0.4211 -0.964,-0.7313 -1.599,-0.9014 l -6.9354,-1.8585 c -0.6414,-0.1718 -1.2683,-0.1758 -1.8415,-0.0223 -0.5668,0.1518 -1.1051,0.4687 -1.5766,0.9401 l -5.0771,5.0773 c -0.4711,0.4711 -0.7881,1.0098 -0.9399,1.5768 -0.1535,0.573 -0.1495,1.1997 0.0223,1.8413 l 1.8581,6.9345 c 0.1701,0.6349 0.4805,1.1778 0.9015,1.5988 0.4211,0.4214 0.9639,0.7315 1.5987,0.9016 z" />
      </g>
      <g
         id="Layer1159">
        <path
           id="path10790"
           style="fill:#ab0000;fill-rule:evenodd"
           d="m 407.7126,342.3337 h 14.4313 c 6.9783,0 8.8296,-1.1868 10.776,-3.0856 1.804,-1.7564 2.9433,-4.3199 2.9433,-7.0258 0,-3.3705 -1.092,-6.6935 -5.2694,-8.2601 1.4242,-0.7119 4.1774,-2.0886 4.1774,-6.9782 0,-3.513 -2.1361,-8.7347 -10.4912,-8.7347 h -16.5674 z m 6.8358,-15.001 h 9.067 c 2.5636,0 5.1269,1.1393 5.1269,4.1301 0,3.4654 -1.9938,4.9844 -5.4591,4.9844 h -8.7348 z m 0,-13.1969 h 8.1652 c 3.228,0 5.2218,0.8544 5.2218,3.6552 0,2.7059 -2.2312,3.7977 -5.0319,3.7977 h -8.3551 z m 27.1062,2.9431 v 25.2548 h 6.6459 v -25.2548 z m 6.6459,-9.162 h -6.6459 v 6.1714 h 6.6459 z m 13.8144,2.3262 h -6.646 v 6.8358 h -3.418 v 4.7472 h 3.418 v 15.3332 c 0,3.2756 1.0443,5.4593 6.7883,5.4593 h 0.8545 c 1.0445,0 2.0888,-0.0475 3.133,-0.095 v -5.0319 c -0.4748,0.0475 -0.9495,0.0948 -1.3766,0.0948 -2.7057,0 -2.7532,-0.5695 -2.7532,-2.0413 v -13.7191 h 4.1298 v -4.7472 h -4.1298 z" />
        <path
           id="path10792"
           style="fill:#000000;fill-rule:evenodd"
           d="m 493.3034,324.8642 c 0,-5.5542 -3.8452,-8.4499 -8.7822,-8.4499 -3.6079,0 -6.4562,1.8514 -7.3106,3.9402 h -0.095 v -12.1052 h -6.646 v 34.0844 h 6.646 V 327.855 c 0,-3.8453 2.2786,-5.8391 5.2219,-5.8391 4.2249,0 4.32,3.1332 4.32,4.9846 v 15.3332 h 6.6459 z m 6.3611,-7.7853 v 25.2548 h 6.646 v -25.2548 z m 6.646,-9.162 h -6.646 v 6.1714 h 6.646 z m 29.0524,9.162 h -7.073 l -5.3643,18.6089 h -0.0949 l -5.2219,-18.6089 h -7.4056 l 9.0672,25.2548 h 6.9782 z m 17.6119,17.8493 c -0.5221,1.8039 -2.421,2.7534 -4.2723,2.7534 -5.3643,0 -5.7441,-4.2725 -5.934,-6.1713 h 17.3272 v -1.1868 c 0,-11.5355 -6.8835,-13.9092 -11.8679,-13.9092 -11.061,0 -12.1053,9.7317 -12.1053,12.7698 0,10.3962 5.4593,13.8142 12.58,13.8142 4.3198,0 9.3519,-1.9938 11.1083,-8.0701 z m -10.0164,-7.7378 c 0.3798,-3.323 2.0413,-5.3168 5.1744,-5.3168 2.1363,0 4.7472,1.2342 5.1269,5.3168 z" />
      </g>
    </g>
    <g
       transform="matrix(0.22717909,0,0,0.22717909,15.508583,79.496392)"
       id="Layer1160">
      <path
         id="path10796"
         style="fill:#ab0000;fill-rule:evenodd"
         d="m 455.0993,126.2999 c 0,-5.2649 -5.5062,-6.1893 -8.5205,-6.1893 -4.3806,0 -8.922,0.9244 -9.5651,7.4754 h 5.4256 c 0.1608,-1.2458 0.6431,-2.974 3.4564,-2.974 1.4468,0 3.6974,0.1206 3.6974,2.4917 0,1.2057 -1.0851,1.5674 -1.9692,1.6881 l -5.0639,0.7635 c -3.577,0.5226 -6.2296,2.6525 -6.2296,6.8323 0,4.421 3.2956,6.2296 6.5109,6.2296 3.8181,0 5.6266,-1.7685 6.9127,-3.0947 0.1205,1.2058 0.2008,1.5272 0.5224,2.532 h 6.0687 v -0.8441 c -0.6831,-0.241 -1.2458,-0.8037 -1.2458,-3.3357 z m -5.5062,8.0782 c 0,4.397 -7.6361,6.0341 -7.6361,1.6478 0,-4.0646 5.4034,-2.6255 7.6361,-4.3807 z m 10.4897,7.6764 h 5.6266 v -11.1328 c 0,-2.371 0.8038,-5.104 5.1846,-5.104 0.5224,0 1.1252,0 1.6075,0.0804 v -5.7071 c -3.9894,-0.4424 -5.438,1.3589 -6.9528,4.1797 h -0.0805 v -3.6974 h -5.3854 z m 27.4499,-6.2697 c -0.4421,1.5272 -2.0498,2.331 -3.6171,2.331 -4.5415,0 -4.8631,-3.6171 -5.0238,-5.2246 h 14.6695 v -1.0048 c 0,-9.7663 -5.8276,-11.7758 -10.0476,-11.7758 -9.3644,0 -10.2485,8.2391 -10.2485,10.8111 0,8.8018 4.6218,11.6955 10.6504,11.6955 3.6572,0 7.9175,-1.6881 9.4044,-6.8324 z m -8.4802,-6.551 c 0.3216,-2.8133 1.7282,-4.5012 4.3808,-4.5012 1.8085,0 4.019,1.0449 4.3405,4.5012 z m 24.7571,-4.5415 h 3.6572 v -4.019 h -3.6572 c 0,-3.37 -0.094,-3.2151 3.5367,-3.2151 v -4.5417 c -4.2047,-0.3496 -9.1632,-0.26 -9.1632,6.0286 v 1.7282 h -3.0946 v 4.019 h 3.0946 v 17.3622 h 5.6265 z m 26.1637,-4.019 h -5.6266 v 12.3383 c 0,3.8181 -2.4918,4.8631 -4.3405,4.8631 -1.7281,0 -3.6573,-0.643 -3.6573,-3.9387 v -13.2627 h -5.6266 v 14.0665 c 0,5.4659 3.0544,7.8774 7.2744,7.8774 2.974,0 5.2246,-1.2861 6.5108,-3.577 h 0.0803 v 3.0143 h 5.3855 z m 11.0524,-7.4754 h -5.6266 v 28.8566 h 5.6266 z" />
      <g
         id="Layer1161">
        <path
           id="path10798"
           style="fill:#000000;fill-rule:evenodd"
           d="m 378.4341,121.9713 c -1.9648,0 -3.7993,0.3178 -5.4822,0.8893 0.1303,-0.3 0.2646,-0.5993 0.4029,-0.8978 2.9924,-6.4567 7.5957,-11.8715 13.2233,-15.8315 5.634,-3.9648 12.2835,-6.4752 19.3623,-7.1067 3.478,-0.3102 3.0068,-5.579 -0.4566,-5.2733 -1.9973,0.1764 -3.9269,0.7101 -5.8882,0.9213 -0.2994,0.0322 2.9374,-4.2388 3.5156,-4.9304 2.2321,-2.6704 -1.8387,-6.0733 -4.0691,-3.405 -0.8402,1.0052 -3.9317,5.5072 -3.9342,5.4956 l -0.8275,-5.2447 c -0.3065,-3.4764 -5.5793,-3.0082 -5.2733,0.4567 0.1151,1.3026 1.1158,6.6759 1.1046,6.6688 L 385.811,90.587 c -2.6705,-2.232 -6.0733,1.8388 -3.4049,4.0691 0.9037,0.7553 5.9237,4.1858 5.9201,4.189 -1.418,1.2362 -3.2652,1.8668 -4.8002,2.947 -6.3766,4.4869 -11.5937,10.6258 -14.9878,17.9491 -1.2362,2.6673 -2.1897,5.3934 -2.8734,8.1443 -4.9279,5.9096 -5.7179,15.0513 0.009,21.7044 0.3943,1.5876 0.8736,3.1523 1.436,4.6866 3.9771,10.8517 12.0969,20.1879 23.4153,25.4348 1.7903,0.83 3.631,1.5409 5.5084,2.1282 1.8817,0.5885 3.8017,1.0543 5.7469,1.3928 1.4445,0.2464 2.816,-0.725 3.0624,-2.1696 0.2464,-1.4445 -0.7249,-2.816 -2.1695,-3.0624 -1.7144,-0.2983 -3.4057,-0.7084 -5.0619,-1.2265 -1.6597,-0.5192 -3.2855,-1.1469 -4.8647,-1.8791 -9.2253,-4.2767 -16.0424,-11.6398 -19.794,-20.294 10.1607,3.5163 22.2363,-3.7125 22.2363,-15.8742 0,-9.2532 -7.5018,-16.7552 -16.7551,-16.7552 z m -8.0894,8.6655 c 2.0698,-2.07 4.9302,-3.3505 8.0895,-3.3505 3.1594,0 6.02,1.2805 8.0895,3.3505 2.0699,2.0698 3.3508,4.9302 3.3508,8.0898 0,3.1591 -1.2805,6.0195 -3.3508,8.0896 -2.0695,2.0698 -4.9301,3.3505 -8.0895,3.3505 -3.1593,0 -6.0195,-1.2807 -8.0895,-3.3507 -2.07,-2.0699 -3.3507,-4.9303 -3.3507,-8.0894 0,-3.1593 1.2805,-6.0198 3.3507,-8.0898 z" />
        <path
           id="path10800"
           style="fill:#000000;fill-rule:evenodd"
           d="m 410.914,119.9687 c -4.7325,0 -8.5689,3.8364 -8.5689,8.5689 0,4.7324 3.8364,8.5689 8.5689,8.5689 4.7326,0 8.569,-3.8365 8.569,-8.5689 0,-4.7325 -3.8364,-8.5689 -8.569,-8.5689 z" />
        <path
           id="path10802"
           style="fill:#000000;fill-rule:evenodd"
           d="m 378.4342,133.7587 c -2.7435,0 -4.9677,2.2242 -4.9677,4.9677 0,2.7436 2.2242,4.9678 4.9677,4.9678 2.7436,0 4.9678,-2.2242 4.9678,-4.9678 0,-2.7435 -2.2242,-4.9677 -4.9678,-4.9677 z" />
        <path
           id="path10804"
           style="fill:#ab0000;fill-rule:evenodd"
           d="m 401.0525,138.7224 c -2.6673,-2.5799 -4.2434,-6.1396 -4.3081,-9.9229 h -0.003 c 0.0408,-0.1334 -0.1705,-2.5079 0.9934,-5.4596 2.0995,-5.3244 7.1545,-8.853 12.9118,-8.9547 v -0.004 c 7.8216,-0.1236 14.2638,6.0575 14.4148,13.8662 l -0.005,1e-4 c 0.0316,5.8648 -3.1936,10.979 -8.5254,13.2922 l 0.004,0.009 c -5.2358,2.2659 -11.3995,1.1233 -15.4819,-2.8254 z m 25.0913,5.0937 11.7388,16.7671 c 0.9375,1.3389 0.6097,3.2061 -0.7314,4.1449 l -1.2195,0.8536 c -1.3411,0.9388 -3.2059,0.6095 -4.1447,-0.7313 l -11.7361,-16.763 c -10.906,5.1102 -24.0779,0.2715 -28.948,-10.9472 -1.096,-2.5253 -1.7253,-5.3062 -1.7755,-8.2341 l 0.003,-0.0106 -0.003,2e-4 c -0.1984,-11.9395 9.3185,-21.7387 21.2191,-21.9321 15.4779,-0.2515 26.2581,15.4953 20.2951,29.8495 -1.097,2.6406 -2.7041,5.0156 -4.6978,7.003 z" />
        <path
           id="path10806"
           style="fill:#000000;fill-rule:evenodd"
           d="m 404.9298,162.1004 c 1.0377,-1.0377 2.7202,-1.0377 3.7578,0 1.0377,1.0377 1.0377,2.7202 0,3.7579 -1.2883,1.2883 -2.8441,2.3332 -4.5865,3.055 -1.6708,0.692 -3.4898,1.074 -5.3821,1.074 -1.8925,0 -3.7111,-0.382 -5.3819,-1.074 -1.7426,-0.7218 -3.2984,-1.7671 -4.5865,-3.0552 -1.0377,-1.0377 -1.0377,-2.7202 0,-3.7579 1.0377,-1.0377 2.7201,-1.0377 3.7578,0 0.8206,0.8206 1.7854,1.4759 2.8424,1.9136 1.0245,0.4243 2.1617,0.6586 3.3682,0.6586 1.2067,0 2.3441,-0.2343 3.3684,-0.6586 1.0568,-0.4377 2.0216,-1.0925 2.8424,-1.9134 z" />
      </g>
    </g>
    <path
       id="path10810"
       style="fill:none;stroke:#000000;stroke-width:0.12878783;stroke-linecap:butt;stroke-linejoin:miter;stroke-dasharray:none"
       d="M 23.864275,88.144418 V 131.61255 H 86.651578 V 88.144418 Z" />
    <path
       id="path10812"
       style="fill:none;stroke:#000000;stroke-width:0.12878783;stroke-linecap:butt;stroke-linejoin:miter;stroke-dasharray:none"
       d="M 149.43884,88.144418 V 131.61255 H 86.651532 V 88.144418 Z" />
    <path
       id="path10814"
       style="fill:none;stroke:#000000;stroke-width:0.12878783;stroke-linecap:butt;stroke-linejoin:miter;stroke-dasharray:none"
       d="m 149.43877,88.144418 v 43.468132 h 62.7873 V 88.144418 Z" />
    <path
       id="path10816"
       style="fill:none;stroke:#000000;stroke-width:0.12878783;stroke-linecap:butt;stroke-linejoin:miter;stroke-dasharray:none"
       d="M 212.22609,131.61255 V 88.144418 h 62.7873 v 43.468132 z" />
    <path
       id="path10818"
       style="fill:none;stroke:#000000;stroke-width:0.12878783;stroke-linecap:butt;stroke-linejoin:miter;stroke-dasharray:none"
       d="M 86.651532,175.08068 V 131.61255 H 23.86423 v 43.46813 z" />
    <path
       id="path10820"
       style="fill:none;stroke:#000000;stroke-width:0.12878783;stroke-linecap:butt;stroke-linejoin:miter;stroke-dasharray:none"
       d="m 86.651487,175.08068 v -43.46813 h 62.787303 v 43.46813 z" />
    <path
       id="path10822"
       style="fill:none;stroke:#000000;stroke-width:0.12878783;stroke-linecap:butt;stroke-linejoin:miter;stroke-dasharray:none"
       d="m 149.43886,131.61255 v 43.46813 h 62.7873 v -43.46813 z" />
    <path
       id="path10824"
       style="fill:none;stroke:#000000;stroke-width:0.12878783;stroke-linecap:butt;stroke-linejoin:miter;stroke-dasharray:none"
       d="m 275.01342,131.61255 v 43.46813 h -62.78731 v -43.46813 z" />
    <path
       id="path10826"
       style="fill:none;stroke:#000000;stroke-width:0.12878783;stroke-linecap:butt;stroke-linejoin:miter;stroke-dasharray:none"
       d="m 23.864253,175.08068 v 43.46813 h 62.787302 v -43.46813 z" />
    <g
       transform="matrix(0.22717909,0,0,0.22717909,15.508583,79.496392)"
       id="Layer1162">
      <g
         id="Layer1163">
        <path
           id="path10828"
           style="fill:#ab0000;fill-rule:evenodd"
           d="m 706.7747,332.315 c -0.4063,1.4036 -1.8838,2.1423 -3.3245,2.1423 -4.1739,0 -4.4695,-3.3244 -4.6171,-4.8019 h 13.4823 v -0.9235 c 0,-8.9759 -5.356,-10.8228 -9.2344,-10.8228 -8.6065,0 -9.4192,7.5723 -9.4192,9.9364 0,8.0892 4.2477,10.7489 9.7884,10.7489 3.3614,0 7.2768,-1.5514 8.6436,-6.2794 z m -7.794,-6.021 c 0.2956,-2.5857 1.5884,-4.137 4.0263,-4.137 1.6621,0 3.6937,0.9603 3.9893,4.137 z" />
        <path
           id="path10830"
           style="fill:#000000;fill-rule:evenodd"
           d="m 716.157,338.0772 h 11.2291 c 5.4299,0 6.8705,-0.9235 8.3848,-2.401 1.4037,-1.3667 2.2903,-3.3612 2.2903,-5.4668 0,-2.6226 -0.8495,-5.2082 -4.1001,-6.4271 1.1081,-0.5541 3.2506,-1.6253 3.2506,-5.4299 0,-2.7335 -1.6624,-6.7967 -8.1635,-6.7967 H 716.157 Z m 5.319,-11.6725 h 7.0552 c 1.9947,0 3.9892,0.8866 3.9892,3.2137 0,2.6966 -1.5513,3.8784 -4.2477,3.8784 h -6.7967 z m 0,-10.2686 h 6.3533 c 2.5119,0 4.0632,0.6648 4.0632,2.8442 0,2.1054 -1.736,2.9549 -3.9154,2.9549 h -6.5011 z m 26.2629,-4.5804 h -5.1713 v 26.5215 h 5.1713 z m 23.8989,16.6961 c 0,-7.0921 -4.7649,-10.3427 -10.047,-10.3427 -5.2822,0 -10.0473,3.2506 -10.0473,10.3427 0,7.0921 4.7651,10.3426 10.0473,10.3426 5.2821,0 10.047,-3.2505 10.047,-10.3426 z m -5.319,0 c 0,2.5117 -0.7388,5.9839 -4.728,5.9839 -3.9894,0 -4.7282,-3.4722 -4.7282,-5.9839 0,-2.5119 0.7388,-5.9841 4.7282,-5.9841 3.9892,0 4.728,3.4722 4.728,5.9841 z m 27.888,0 c 0,-7.0921 -4.7649,-10.3427 -10.0471,-10.3427 -5.2821,0 -10.0472,3.2506 -10.0472,10.3427 0,7.0921 4.7651,10.3426 10.0472,10.3426 5.2822,0 10.0471,-3.2505 10.0471,-10.3426 z m -5.3191,0 c 0,2.5117 -0.7388,5.9839 -4.728,5.9839 -3.9893,0 -4.7282,-3.4722 -4.7282,-5.9839 0,-2.5119 0.7389,-5.9841 4.7282,-5.9841 3.9892,0 4.728,3.4722 4.728,5.9841 z m 20.6114,2.6595 c 0,0.9234 -0.8865,3.4353 -3.5091,3.4353 -3.9154,0 -3.9894,-4.2479 -3.9894,-6.3904 0,-2.4379 0.8498,-5.6885 4.1003,-5.6885 h 0.2585 c 2.2163,0 2.955,1.9209 3.1768,3.1768 h 5.245 c -0.4801,-6.1317 -5.5775,-7.5354 -8.6803,-7.5354 -6.6489,0 -9.4193,4.5433 -9.4193,10.8966 0,4.1372 1.6993,9.7887 9.0868,9.7887 7.2028,0 8.7912,-5.6515 8.9759,-7.6831 z m 13.4456,0.9603 2.1424,-2.2162 4.6912,8.4218 h 6.2055 l -7.1291,-12.0417 6.9443,-7.6093 h -6.3532 l -6.5011,7.4615 v -14.332 h -5.1713 v 26.5215 h 5.1713 z" />
      </g>
      <g
         id="Layer1164">
        <path
           id="path10833"
           style="fill:#ab0000;fill-rule:evenodd"
           d="m 622.1444,290.2208 42.3299,-7.0547 c 1.6181,-0.2695 3.1486,0.8236 3.4182,2.4417 0.0274,0.1641 0.0405,0.3272 0.0407,0.4883 h 0.006 v 77.9523 c 0,1.6436 -1.3327,2.9764 -2.9763,2.9764 -0.2353,0 -0.464,-0.0272 -0.6834,-0.0789 l -42.3246,-7.0539 c -1.454,-0.2422 -2.484,-1.5026 -2.4823,-2.9299 h -0.006 v -63.7797 c 0,-1.5429 1.1744,-2.8117 2.6779,-2.9616 z m 39.8418,-0.6173 -36.567,6.0942 v 58.7491 l 36.567,6.0942 z" />
        <path
           id="path10835"
           style="fill:#ab0000;fill-rule:evenodd"
           d="m 679.7018,289.6405 c 0,-1.6436 1.3327,-2.9763 2.9763,-2.9763 1.6437,0 2.9764,1.3327 2.9764,2.9763 v 70.865 c 0,1.6436 -1.3327,2.9764 -2.9764,2.9764 -1.6436,0 -2.9763,-1.3328 -2.9763,-2.9764 z" />
        <path
           id="path10837"
           style="fill:#000000;fill-rule:evenodd"
           d="m 671.6941,291.4122 c 0,-1.174 0.9519,-2.1259 2.126,-2.1259 1.174,0 2.126,0.9519 2.126,2.1259 v 67.3218 c 0,1.174 -0.952,2.1259 -2.126,2.1259 -1.1741,0 -2.126,-0.9519 -2.126,-2.1259 z" />
        <path
           id="path10839"
           style="fill:#000000;fill-rule:evenodd"
           d="m 652.2061,332.1595 c 0,-1.174 0.952,-2.126 2.126,-2.126 1.1741,0 2.126,0.952 2.126,2.126 v 12.4015 c 0,1.174 -0.9519,2.1259 -2.126,2.1259 -0.084,0 -0.1667,-0.005 -0.2481,-0.0144 l -21.1857,-1.7656 c -1.111,-0.0915 -1.9517,-1.0222 -1.9505,-2.1176 l -10e-4,-15.8915 c 0,-1.1741 0.952,-2.126 2.126,-2.126 h 15.5428 v -10.2343 c 0,-1.363 -0.5526,-2.5976 -1.4458,-3.4907 -0.8933,-0.8933 -2.1275,-1.4458 -3.4909,-1.4458 -1.3633,0 -2.5976,0.5525 -3.4907,1.4458 -0.8932,0.8931 -1.4458,2.1273 -1.4458,3.4907 h -0.008 l -6e-4,5.2973 c 0,1.1694 -0.9481,2.1176 -2.1176,2.1176 -1.1695,0 -2.1177,-0.9482 -2.1177,-2.1176 l 6e-4,-5.2973 h -0.008 c 0,-2.5372 1.0287,-4.8345 2.6915,-6.497 1.6625,-1.6629 3.9598,-2.6915 6.497,-2.6915 2.5371,0 4.8343,1.0286 6.4972,2.6915 1.6629,1.6625 2.6915,3.9599 2.6915,6.497 v 12.3603 c 0,1.174 -0.9519,2.126 -2.126,2.126 h -15.5428 v 11.8104 l 17.0075,1.4174 z" />
      </g>
    </g>
    <g
       transform="matrix(0.22717909,0,0,0.22717909,15.508583,79.496392)"
       id="Layer1165">
      <path
         id="path10843"
         style="fill:#000000;fill-rule:evenodd"
         d="m 958.5563,367.902 c 0,-3.3029 -3.4543,-3.8827 -5.3451,-3.8827 -2.7483,0 -5.5973,0.5798 -6.0008,4.6895 h 3.4039 c 0.1007,-0.7815 0.4033,-1.8658 2.1683,-1.8658 0.9075,0 2.3194,0.0757 2.3194,1.5633 0,0.7564 -0.6807,0.9832 -1.2354,1.0589 l -3.1769,0.479 c -2.2439,0.3278 -3.9079,1.664 -3.9079,4.2862 0,2.7736 2.0675,3.908 4.0844,3.908 2.3953,0 3.53,-1.1094 4.3368,-1.9412 0.0755,0.7562 0.1261,0.9579 0.3276,1.5883 h 3.8072 v -0.5294 c -0.4286,-0.1514 -0.7815,-0.5043 -0.7815,-2.0928 z m -3.4543,5.0679 c 0,1.6387 -1.5883,2.6473 -3.1515,2.6473 -0.6808,0 -1.639,-0.3782 -1.639,-1.6136 0,-1.4625 1.0843,-1.7901 2.3954,-2.0172 1.4622,-0.2268 2.0422,-0.4537 2.3951,-0.7311 z m 15.9092,-1.7903 c 0,1.5886 -0.6304,4.0594 -2.8997,4.0594 -2.2437,0 -3.1262,-1.8658 -3.1262,-3.8576 0,-2.143 0.605,-4.3113 3.0255,-4.3113 2.244,0 3.0004,1.9916 3.0004,4.1095 z m -5.8748,-11.4969 h -3.5295 v 18.1028 h 3.4541 v -1.6893 h 0.0504 c 0.8572,1.5128 2.4204,2.0422 3.8826,2.0422 3.9837,0 5.6477,-3.5298 5.6477,-7.2109 0,-4.6391 -2.622,-6.9082 -5.572,-6.9082 -2.269,0 -3.328,1.2354 -3.8827,2.0926 h -0.0506 z m 19.868,14.1695 c -0.2774,0.9582 -1.286,1.4625 -2.2693,1.4625 -2.849,0 -3.0508,-2.2693 -3.1515,-3.2777 h 9.2027 v -0.6303 c 0,-6.1269 -3.6558,-7.3874 -6.3033,-7.3874 -5.8745,0 -6.4292,5.1685 -6.4292,6.7821 0,5.5218 2.8994,7.337 6.6813,7.337 2.2944,0 4.967,-1.059 5.8999,-4.2862 z m -5.3201,-4.1095 c 0.2018,-1.765 1.0843,-2.824 2.7483,-2.824 1.1346,0 2.5212,0.6555 2.723,2.824 z m 22.3135,-1.8407 c 0,-3.3029 -3.4543,-3.8827 -5.3451,-3.8827 -2.7483,0 -5.5973,0.5798 -6.0008,4.6895 h 3.4039 c 0.1008,-0.7815 0.4033,-1.8658 2.1683,-1.8658 0.9076,0 2.3194,0.0757 2.3194,1.5633 0,0.7564 -0.6807,0.9832 -1.2354,1.0589 l -3.1768,0.479 c -2.244,0.3278 -3.908,1.664 -3.908,4.2862 0,2.7736 2.0675,3.908 4.0844,3.908 2.3954,0 3.53,-1.1094 4.3368,-1.9412 0.0755,0.7562 0.1261,0.9579 0.3276,1.5883 h 3.8072 v -0.5294 c -0.4286,-0.1514 -0.7815,-0.5043 -0.7815,-2.0928 z m -3.4543,5.0679 c 0,1.6387 -1.5883,2.6473 -3.1515,2.6473 -0.6808,0 -1.639,-0.3782 -1.639,-1.6136 0,-1.4625 1.0843,-1.7901 2.3954,-2.0172 1.4622,-0.2268 2.0422,-0.4537 2.3951,-0.7311 z m 14.573,-0.0757 c 0,0.6304 -0.605,2.3448 -2.3951,2.3448 -2.6726,0 -2.723,-2.8994 -2.723,-4.3619 0,-1.664 0.5798,-3.8827 2.7987,-3.8827 h 0.1764 c 1.5127,0 2.0169,1.3111 2.1683,2.1683 h 3.5802 c -0.3276,-4.1854 -3.807,-5.1434 -5.9249,-5.1434 -4.5384,0 -6.4294,3.1012 -6.4294,7.4378 0,2.8237 1.1599,6.6813 6.2023,6.6813 4.9166,0 6.0008,-3.8576 6.1269,-5.2442 z m 18.9853,-1.8154 c 0,-4.8408 -3.2524,-7.0595 -6.8578,-7.0595 -3.6055,0 -6.858,2.2187 -6.858,7.0595 0,4.8409 3.2525,7.0596 6.858,7.0596 3.6054,0 6.8578,-2.2187 6.8578,-7.0596 z m -3.6306,0 c 0,1.7144 -0.5043,4.0845 -3.2272,4.0845 -2.723,0 -3.2273,-2.3701 -3.2273,-4.0845 0,-1.7143 0.5043,-4.0844 3.2273,-4.0844 2.7229,0 3.2272,2.3701 3.2272,4.0844 z m 18.2289,-2.5718 c 0,-2.9498 -2.0423,-4.4877 -4.6645,-4.4877 -2.5465,0 -3.5548,1.5126 -4.034,2.3195 h -0.05 v -1.9666 h -3.3784 v 13.4133 h 3.5298 v -7.6899 c 0,-2.0422 1.2101,-3.1012 2.7733,-3.1012 2.244,0 2.2944,1.664 2.2944,2.6473 v 8.1438 h 3.5298 z m 14.3208,-0.0461 c -0.2774,-3.7862 -3.4035,-4.4416 -6.0257,-4.4416 -4.1854,0 -5.4208,2.5212 -5.4208,4.492 0,5.0133 8.32,3.324 8.32,5.5679 0,0.5043 -0.4284,1.3866 -2.2437,1.3866 -2.2187,0 -2.9248,-0.8319 -2.9248,-1.9665 h -3.6305 c 0.1008,3.5801 3.4037,4.6391 6.4545,4.6391 2.0926,0 5.8743,-0.7058 5.8743,-4.6138 0,-4.9376 -8.3957,-3.3997 -8.3957,-5.5176 0,-0.584 0.2521,-1.3151 2.1685,-1.3151 1.9161,0 2.2187,0.9076 2.3698,1.769 z" />
      <g
         id="Layer1166">
        <path
           id="path10845"
           style="fill:none;stroke:#ab0000;stroke-width:9.70110035;stroke-linecap:round;stroke-linejoin:round;stroke-dasharray:none"
           d="m 1029.8844,336.4145 c -6.6712,6.4604 -15.761,10.4383 -25.7814,10.4383 -10.0204,0 -19.1103,-3.9779 -25.7814,-10.4383 m -2e-4,-53.2545 c 6.6711,-6.4606 15.7612,-10.4385 25.7816,-10.4385 10.0204,0 19.1105,3.9779 25.7816,10.4385" />
        <path
           id="path10847"
           style="fill:none;stroke:#000000;stroke-width:6.92939997;stroke-linecap:round;stroke-linejoin:round;stroke-dasharray:none"
           d="m 957.9296,325.2658 c -3.9614,-3.9613 -6.4114,-9.4338 -6.4114,-15.4787 0,-6.0448 2.45,-11.5173 6.4114,-15.4786 m -11.1487,42.106 c -6.8144,-6.8147 -11.0292,-16.2287 -11.0292,-26.6274 0,-10.3986 4.2146,-19.8124 11.0292,-26.6271 m -11.1484,64.4029 c -9.6677,-9.6677 -15.6473,-23.0233 -15.6473,-37.7758 0,-14.7522 5.9796,-28.1082 15.6473,-37.7757" />
        <path
           id="path10849"
           style="fill:none;stroke:#000000;stroke-width:6.92939997;stroke-linecap:round;stroke-linejoin:round;stroke-dasharray:none"
           d="m 1050.2764,325.2658 c 3.9613,-3.9613 6.4113,-9.4338 6.4113,-15.4787 0,-6.0448 -2.45,-11.5173 -6.4113,-15.4786 m 11.1486,42.106 c 6.8145,-6.8147 11.0292,-16.2287 11.0292,-26.6274 0,-10.3986 -4.2145,-19.8124 -11.0292,-26.6271 m 11.1485,64.4029 c 9.6677,-9.6677 15.6472,-23.0233 15.6472,-37.7758 0,-14.7522 -5.9795,-28.1082 -15.6472,-37.7757" />
      </g>
      <path
         id="path10852"
         style="fill:#ab0000;fill-rule:evenodd"
         d="m 1000.487,308.0955 c 0,-5.5402 -5.794,-6.5129 -8.9658,-6.5129 -4.6098,0 -9.3888,0.9727 -10.0655,7.8662 h 5.7094 c 0.1692,-1.311 0.6767,-3.1297 3.6372,-3.1297 1.5224,0 3.8907,0.1269 3.8907,2.6222 0,1.2688 -1.1418,1.6494 -2.0722,1.7762 l -5.3288,0.8036 c -3.7639,0.5497 -6.5552,2.7913 -6.5552,7.1896 0,4.6521 3.468,6.5552 6.8512,6.5552 4.0178,0 5.9209,-1.8608 7.2742,-3.2564 0.1269,1.2687 0.2114,1.607 0.5498,2.6643 h 6.386 v -0.8881 c -0.7189,-0.2537 -1.311,-0.8458 -1.311,-3.5103 z m -5.794,8.5006 c 0,2.7489 -2.6643,4.4405 -5.2865,4.4405 -1.1418,0 -2.7489,-0.6343 -2.7489,-2.7066 0,-2.4528 1.8185,-3.0026 4.0178,-3.3832 2.4529,-0.3806 3.4256,-0.7613 4.0176,-1.2266 z m 26.6861,-3.0028 c 0,2.6645 -1.0574,6.809 -4.8636,6.809 -3.764,0 -5.2442,-3.1295 -5.2442,-6.4707 0,-3.5947 1.015,-7.2318 5.0751,-7.2318 3.7638,0 5.0327,3.3411 5.0327,6.8935 z m -9.854,-19.2849 h -5.9209 v 30.3654 h 5.794 v -2.8335 h 0.085 c 1.4379,2.5375 4.06,3.4256 6.5129,3.4256 6.6821,0 9.4733,-5.9209 9.4733,-12.0955 0,-7.7817 -4.3983,-11.5878 -9.3464,-11.5878 -3.8062,0 -5.5826,2.0722 -6.513,3.5101 h -0.085 z" />
    </g>
    <g
       transform="matrix(0.22717909,0,0,0.22717909,15.508583,79.496392)"
       id="Layer1167">
      <path
         id="path10855"
         style="fill:#000000;fill-rule:evenodd"
         d="m 141.6597,513.7699 c 0,2.7576 -2.2357,4.9932 -4.9932,4.9932 -2.7575,0 -4.9932,-2.2356 -4.9932,-4.9932 0,-6.6451 2.7149,-12.6826 7.0885,-17.0562 4.3739,-4.3736 10.4117,-7.0885 17.0563,-7.0885 3.2435,0 6.3577,0.6572 9.2148,1.8453 2.9649,1.233 5.6259,3.0277 7.8414,5.2432 5.8693,5.8693 6.4597,11.1903 7.0496,16.5102 0.3953,3.5649 0.7909,7.1308 4.2017,10.5416 1.3222,1.3223 2.885,2.3831 4.6037,3.0977 1.6492,0.6858 3.4703,1.0651 5.3919,1.0651 3.8885,0 7.4271,-1.5943 9.9956,-4.1628 2.5685,-2.5687 4.1628,-6.1073 4.1628,-9.9956 0,-2.7575 2.2357,-4.9932 4.9932,-4.9932 2.7575,0 4.9932,2.2357 4.9932,4.9932 0,6.6446 -2.7149,12.6824 -7.0886,17.0563 -4.3736,4.3736 -10.4111,7.0885 -17.0562,7.0885 -3.2432,0 -6.3577,-0.6573 -9.2148,-1.8453 -2.965,-1.233 -5.626,-3.0278 -7.8414,-5.2432 -5.8693,-5.8693 -6.4598,-11.1901 -7.0497,-16.5102 -0.3952,-3.565 -0.7908,-7.1308 -4.2017,-10.5417 -1.3222,-1.3222 -2.8849,-2.383 -4.6037,-3.0976 -1.6492,-0.6858 -3.4706,-1.0651 -5.3918,-1.0651 -3.8883,0 -7.4269,1.5943 -9.9956,4.1627 -2.5685,2.5685 -4.1628,6.1071 -4.1628,9.9956 z" />
      <path
         id="path10857"
         style="fill:#ab0000;fill-rule:evenodd"
         d="m 129.6757,458.588 c 0,-3.861 3.1301,-6.9911 6.9911,-6.9911 3.8609,0 6.9911,3.1301 6.9911,6.9911 v 19.1515 c 0,3.861 -3.1302,6.9911 -6.9911,6.9911 -3.861,0 -6.9911,-3.1301 -6.9911,-6.9911 z m 90.5882,16.8788 c 0,3.8609 -3.1302,6.9911 -6.9911,6.9911 -3.861,0 -6.9911,-3.1302 -6.9911,-6.9911 0,-3.337 -1.3703,-6.3758 -3.5775,-8.583 -2.2072,-2.2072 -5.246,-3.5775 -8.583,-3.5775 -3.3367,0 -6.3755,1.3703 -8.583,3.5775 -2.2071,2.2072 -3.5775,5.246 -3.5775,8.583 0,3.8609 -3.1301,6.9911 -6.9911,6.9911 -3.8609,0 -6.9911,-3.1302 -6.9911,-6.9911 0,-7.1967 2.9393,-13.7343 7.6738,-18.4689 4.7352,-4.7345 11.2728,-7.6738 18.4689,-7.6738 7.1967,0 13.7343,2.9393 18.4689,7.6738 4.7345,4.7346 7.6738,11.2722 7.6738,18.4689 z" />
      <path
         id="path10859"
         style="fill:#000000;fill-rule:evenodd"
         d="m 133.7331,563.876 c 0,-3.9456 -2.7312,-6.0026 -6.2379,-6.0026 -2.5627,0 -4.5857,1.3152 -5.1924,2.7989 h -0.0674 v -8.5992 h -4.7208 v 24.2131 h 4.7208 v -10.2855 c 0,-2.7315 1.6182,-4.1481 3.709,-4.1481 3.0005,0 3.0682,2.2259 3.0682,3.5411 v 10.8925 h 4.7205 z m 19.6909,-5.5304 h -4.9902 l -3.6752,13.2195 h -0.0675 l -3.8438,-13.2195 h -5.2597 l 6.6083,18.6824 c -0.4385,2.4619 -1.3823,2.6978 -3.1019,2.6978 -0.4048,0 -0.7082,-0.0337 -0.9104,-0.0674 v 3.777 c 0.6744,0.0337 1.4834,0.0674 2.1241,0.0674 4.1135,0 4.7205,-0.8767 6.9458,-7.52 z m 8.0583,-4.8562 h -4.7208 v 4.8562 h -2.4272 v 3.3722 h 2.4272 v 10.8925 c 0,2.327 0.7422,3.8781 4.8219,3.8781 h 0.6068 c 0.7418,0 1.4837,-0.0337 2.2252,-0.0674 v -3.5744 c -0.337,0.0337 -0.6741,0.0674 -0.9775,0.0674 -1.9219,0 -1.9556,-0.4048 -1.9556,-1.4503 v -9.7459 h 2.9331 v -3.3722 h -2.9331 z m 16.589,16.2546 c 0,0.843 -0.8093,3.1363 -3.2031,3.1363 -3.5741,0 -3.6416,-3.8781 -3.6416,-5.8344 0,-2.2255 0.7756,-5.1933 3.7427,-5.1933 h 0.236 c 2.023,0 2.6974,1.7537 2.8997,2.9004 h 4.7879 c -0.4382,-5.5981 -5.0913,-6.8796 -7.9236,-6.8796 -6.069,0 -8.598,4.1481 -8.598,9.9484 0,3.777 1.5509,8.9366 8.2947,8.9366 6.5746,0 8.0243,-5.1596 8.1932,-7.0144 z m 25.3891,-2.4281 c 0,-6.4748 -4.3494,-9.4425 -9.1713,-9.4425 -4.8213,0 -9.171,2.9677 -9.171,9.4425 0,6.4748 4.3497,9.4425 9.171,9.4425 4.8219,0 9.1713,-2.9677 9.1713,-9.4425 z m -4.8553,0 c 0,2.2933 -0.6744,5.4629 -4.316,5.4629 -3.6415,0 -4.316,-3.1696 -4.316,-5.4629 0,-2.2933 0.6745,-5.4633 4.316,-5.4633 3.6416,0 4.316,3.17 4.316,5.4633 z m 33.8186,-3.4399 c 0,-3.9456 -2.7314,-6.0026 -6.2379,-6.0026 -2.8659,0 -4.1811,1.9896 -4.7878,2.8666 -1.2138,-1.9222 -2.3938,-2.8666 -4.9902,-2.8666 -3.1693,0 -4.4842,1.9222 -5.0912,3.1026 h -0.0678 v -2.6304 h -4.5182 v 17.9406 h 4.7208 V 565.36 c 0,-1.9559 0.7081,-3.5074 2.9331,-3.5074 2.8326,0 2.8326,2.1248 2.8326,3.6422 v 10.7914 h 4.7202 v -10.7577 c 0,-2.1244 0.8432,-3.6759 3.2033,-3.6759 1.3826,0 2.5624,0.877 2.5624,3.5411 v 10.8925 h 4.7207 z" />
    </g>
    <path
       id="path10862"
       style="fill:none;stroke:#000000;stroke-width:0.12878783;stroke-linecap:butt;stroke-linejoin:miter;stroke-dasharray:none"
       d="m 86.651555,175.08068 v 43.46813 h 62.787305 v -43.46813 z" />
    <g
       transform="matrix(0.22717909,0,0,0.22717909,15.508583,79.496392)"
       id="Layer1168">
      <path
         id="path10864"
         style="fill:#ab0000;fill-rule:evenodd"
         d="m 516.3587,491.7885 h -9.2818 v 8.6187 h 9.2818 z" />
      <path
         id="path10866"
         style="fill:#000000;fill-rule:evenodd"
         d="m 458.0167,513.8657 c 0,-8.6851 -9.0829,-10.21 -14.0552,-10.21 -7.2265,0 -14.7181,1.5249 -15.7788,12.3314 h 8.9501 c 0.2653,-2.0551 1.0608,-4.906 5.7016,-4.906 2.3867,0 6.0994,0.1989 6.0994,4.1105 0,1.9889 -1.7901,2.5856 -3.2485,2.7845 l -8.3536,1.2597 c -5.9005,0.8618 -10.2761,4.3756 -10.2761,11.2706 0,7.2928 5.4364,10.2762 10.7402,10.2762 6.2983,0 9.2817,-2.9171 11.4033,-5.1049 0.1988,1.9889 0.3313,2.5193 0.8618,4.1767 h 10.0108 v -1.3922 c -1.127,-0.3978 -2.055,-1.326 -2.055,-5.5027 z m -9.0829,13.3258 c 0,4.3093 -4.1768,6.9613 -8.2872,6.9613 -1.79,0 -4.3094,-0.9945 -4.3094,-4.2431 0,-3.8452 2.8509,-4.7072 6.2983,-5.3038 3.8453,-0.5967 5.3702,-1.1934 6.2983,-1.9227 z m 41.8339,-4.7072 c 0,4.1769 -1.6576,10.674 -7.6243,10.674 -5.9005,0 -8.2209,-4.906 -8.2209,-10.1436 0,-5.6353 1.5911,-11.3369 7.9556,-11.3369 5.9006,0 7.8896,5.2376 7.8896,10.8065 z m -15.4475,-30.2318 h -9.2816 v 47.6019 h 9.0827 v -4.442 h 0.1327 c 2.254,3.978 6.3645,5.3702 10.2098,5.3702 10.475,0 14.8507,-9.2818 14.8507,-18.9612 0,-12.1988 -6.895,-18.1657 -14.6518,-18.1657 -5.9669,0 -8.7513,3.2487 -10.2098,5.5029 h -0.1327 z m 31.7567,12.3314 v 35.2705 h 9.2818 v -35.2705 z m 45.0162,7.6243 v -7.6243 h -28.5743 v 7.4254 h 16.8395 l -18.0991,20.6186 v 7.2265 h 30.4968 v -7.6243 h -18.4971 z" />
      <path
         id="path10868"
         style="fill:#000000;fill-rule:evenodd"
         d="m 403.6159,529.9873 c 2.7854,-1.613 3.0319,-1.5254 5.2238,-0.7438 0.3509,0.1251 0.796,0.2839 1.4298,0.4652 0.5984,0.1711 1.1294,0.3508 1.5736,0.5012 0.2258,0.0764 0.25,0.0844 0.7603,-0.7964 0.5177,-0.8933 0.4985,-0.9104 0.3135,-1.073 -0.3038,-0.2672 -0.6669,-0.5869 -1.204,-1.1061 -0.4454,-0.4308 -0.8207,-0.7499 -1.1164,-1.0014 -0.0479,-0.0405 -0.0936,-0.0826 -0.1374,-0.126 -1.6623,-1.4163 -1.8506,-1.6584 -1.8506,-4.7823 0,-3.2079 0.1987,-3.3771 1.9883,-4.8994 0.2611,-0.2221 0.5926,-0.5043 1.1162,-1.0105 0.5364,-0.5186 0.9001,-0.8387 1.2038,-1.1057 0.1854,-0.163 0.2046,-0.1801 -0.3132,-1.0733 -0.5105,-0.881 -0.5346,-0.8729 -0.7608,-0.7964 -0.4441,0.1502 -0.9749,0.3301 -1.5732,0.5012 -0.6338,0.1813 -1.0792,0.3403 -1.4299,0.4652 -2.1925,0.7815 -2.4383,0.8691 -5.2235,-0.7441 -2.791,-1.6173 -2.8345,-1.8538 -3.2586,-4.1628 -0.064,-0.3477 -0.1453,-0.7899 -0.315,-1.4694 -0.1748,-0.6989 -0.2741,-1.1946 -0.3569,-1.6091 -0.0453,-0.2271 -0.05,-0.2505 -1.0742,-0.2505 -1.024,0 -1.0287,0.0234 -1.0742,0.2507 -0.0829,0.4144 -0.1821,0.9096 -0.357,1.609 -0.1697,0.6792 -0.251,1.1216 -0.3149,1.4695 -0.4241,2.3089 -0.4679,2.5459 -3.2586,4.1625 -2.789,1.6154 -3.0351,1.5278 -5.2326,0.7441 l -0.1097,-0.0424 c -0.3319,-0.1177 -0.7468,-0.2614 -1.3111,-0.4228 -0.5982,-0.171 -1.1289,-0.3507 -1.5734,-0.5011 -0.226,-0.0765 -0.25,-0.0846 -0.7606,0.7964 -0.5176,0.8931 -0.4982,0.9104 -0.313,1.0733 0.3037,0.2672 0.6659,0.5856 1.2037,1.1058 0.5238,0.5064 0.8553,0.7886 1.1165,1.0107 1.7896,1.5226 1.9877,1.6911 1.9877,4.8991 0,3.208 -0.1981,3.3767 -1.9879,4.8992 -0.2611,0.222 -0.5927,0.5042 -1.1164,1.0106 -0.538,0.5201 -0.9001,0.8387 -1.2036,1.1057 -0.1852,0.1629 -0.2046,0.1804 0.313,1.0733 0.5107,0.8809 0.5347,0.8728 0.7604,0.7964 0.4444,-0.1504 0.9755,-0.3302 1.5736,-0.5012 0.6338,-0.1813 1.0792,-0.3402 1.4299,-0.4652 2.1922,-0.7818 2.438,-0.8692 5.2235,0.7442 2.7907,1.6166 2.8345,1.8539 3.2586,4.1627 0.064,0.3477 0.1453,0.7899 0.3151,1.4694 0.1748,0.6996 0.2741,1.1948 0.3569,1.6094 0.0454,0.227 0.0502,0.2502 1.0741,0.2502 1.024,0 1.0289,-0.0233 1.0742,-0.2505 0.0829,-0.4146 0.1821,-0.9098 0.357,-1.6094 0.1698,-0.6789 0.2511,-1.1212 0.3149,-1.4691 0.424,-2.3081 0.4677,-2.5465 3.2583,-4.1631 z m 3.6853,3.6184 c -0.3942,-0.1406 -0.4389,-0.1563 -1.3682,0.3819 -0.9503,0.5505 -0.9581,0.5923 -1.032,0.9953 -0.0859,0.4682 -0.1954,1.0631 -0.3692,1.7589 -0.1204,0.482 -0.2197,0.9774 -0.3027,1.3921 -0.7225,3.611 -0.7964,3.9793 -5.6176,3.9793 -4.8213,0 -4.8949,-0.368 -5.6174,-3.979 -0.0831,-0.4147 -0.1823,-0.9102 -0.3027,-1.3921 -0.1737,-0.6952 -0.2833,-1.2909 -0.3694,-1.7592 -0.0739,-0.4027 -0.0817,-0.4443 -1.0322,-0.9949 -0.9297,-0.5384 -0.9739,-0.5227 -1.368,-0.3823 -0.4304,0.1534 -0.9769,0.3484 -1.7014,0.5556 -0.5734,0.164 -0.9996,0.3084 -1.3564,0.4291 -3.4695,1.1744 -3.8344,1.2981 -6.2448,-2.8598 -2.424,-4.181 -2.1358,-4.4351 0.628,-6.8658 0.3303,-0.2906 0.7248,-0.6377 1.0589,-0.9607 0.492,-0.4757 0.9626,-0.8761 1.3337,-1.1918 0.3066,-0.2608 0.3407,-0.29 0.3407,-1.3876 0,-1.0977 -0.0341,-1.1267 -0.3406,-1.3876 -0.371,-0.3156 -0.8416,-0.7161 -1.3337,-1.1918 -0.3343,-0.3233 -0.7288,-0.6703 -1.059,-0.9607 -2.7638,-2.4311 -3.0516,-2.6846 -0.628,-6.8658 2.4094,-4.1576 2.7758,-4.034 6.2451,-2.8599 0.3567,0.1207 0.7829,0.265 1.3561,0.4289 0.6663,0.1907 1.1821,0.371 1.5957,0.518 l 0.1148,0.0376 c 0.3892,0.1388 0.4329,0.1541 1.3589,-0.3821 0.9505,-0.5506 0.9583,-0.5921 1.0322,-0.9948 0.0859,-0.4681 0.1954,-1.0632 0.3693,-1.7591 0.1204,-0.482 0.2197,-0.9774 0.3026,-1.3918 0.7227,-3.6109 0.7964,-3.9794 5.6176,-3.9794 4.8212,0 4.895,0.3682 5.6176,3.9792 0.0827,0.4144 0.182,0.9093 0.3025,1.3918 0.1738,0.6952 0.2834,1.2909 0.3694,1.7592 0.0739,0.4026 0.0816,0.4441 1.0323,0.995 0.9294,0.5384 0.9738,0.5226 1.3679,0.3822 0.4305,-0.1534 0.9768,-0.3483 1.7014,-0.5556 0.5731,-0.1639 0.9992,-0.3084 1.356,-0.4291 3.469,-1.174 3.8357,-1.2981 6.2453,2.8599 2.4238,4.1812 2.1356,4.4347 -0.628,6.8658 -0.3302,0.2903 -0.7232,0.636 -1.059,0.9606 -0.4922,0.4758 -0.9627,0.8763 -1.3335,1.1916 -0.3068,0.261 -0.3411,0.2902 -0.3411,1.3879 0,0.9482 0.0255,1.0991 0.2301,1.2907 0.0375,0.028 0.0745,0.0571 0.1107,0.0879 0.3365,0.286 0.7634,0.6494 1.3337,1.2007 0.3352,0.3241 0.7289,0.6705 1.0593,0.961 2.7638,2.4311 3.0509,2.6842 0.6276,6.8656 -2.4097,4.1579 -2.7758,4.034 -6.2448,2.8598 -0.3567,-0.1207 -0.783,-0.2651 -1.3564,-0.4291 -0.7246,-0.2072 -1.2708,-0.4022 -1.7013,-0.5556 z" />
      <path
         id="path10870"
         style="fill:#ab0000;fill-rule:evenodd"
         d="m 384.1728,538.5401 c 1.2384,-1.2875 3.2863,-1.3272 4.5738,-0.0887 1.2874,1.2384 1.3271,3.2863 0.0887,4.5738 l -4.8729,5.0396 c -0.8337,0.8623 -1.4526,1.5667 -1.9706,2.1564 -4.1567,4.7316 -4.5951,5.2302 -11.9368,1.0078 -7.387,-4.2476 -7.1766,-4.8717 -5.154,-10.859 0.238,-0.7044 0.5221,-1.5453 0.8758,-2.7817 0.4062,-1.42 0.7853,-2.4837 1.0839,-3.3222 0.4754,-1.3345 0.5281,-1.4824 -0.8736,-3.9101 -0.034,-0.0588 -0.0659,-0.1183 -0.0957,-0.1782 -1.3127,-2.2623 -1.4914,-2.2956 -2.8472,-2.5441 -0.9003,-0.1649 -2.0425,-0.3743 -3.4254,-0.72 -1.0267,-0.2566 -2.0135,-0.4545 -2.8408,-0.6203 -6.2074,-1.2443 -6.8544,-1.3742 -6.8396,-9.8982 0.0141,-8.4861 0.6656,-8.6163 6.8365,-9.8494 0.8286,-0.1653 1.818,-0.3632 2.8499,-0.6211 1.3834,-0.3457 2.5247,-0.5549 3.4244,-0.7194 1.3817,-0.2529 1.5369,-0.2816 2.9286,-2.7003 1.4093,-2.4494 1.3604,-2.5871 0.8839,-3.9262 -0.2986,-0.8388 -0.678,-1.9045 -1.0852,-3.3281 -0.3311,-1.1578 -0.6292,-2.0393 -0.8787,-2.7771 -2.0236,-5.9841 -2.2299,-6.594 5.1376,-10.8475 7.359,-4.2486 7.7841,-3.7653 11.9518,0.976 0.5737,0.6525 1.2592,1.4325 1.9707,2.1683 0.9622,0.995 1.7295,1.8964 2.3333,2.6055 0.9087,1.0675 1.0027,1.1777 3.8368,1.1817 2.7934,0.004 2.8954,-0.1159 3.801,-1.181 0.5612,-0.6602 1.2735,-1.498 2.3405,-2.6014 0.8339,-0.8623 1.4529,-1.5671 1.971,-2.1568 4.1566,-4.7316 4.5945,-5.2296 11.9364,-1.0076 7.387,4.2485 7.177,4.8712 5.1542,10.8589 -0.2379,0.7045 -0.5218,1.5446 -0.8758,2.7821 l -1.9292,6.7438 c -0.4898,1.7214 -2.2823,2.7198 -4.0037,2.2301 -1.7214,-0.4898 -2.7198,-2.2824 -2.23,-4.0037 l 1.9292,-6.7439 c 0.3134,-1.0958 0.6747,-2.165 0.9772,-3.061 0.4914,-1.4545 0.5424,-1.6059 -2.24,-3.2061 -2.7554,-1.5845 -2.8602,-1.4656 -3.8531,-0.3355 -0.5984,0.6812 -1.3132,1.4949 -2.1737,2.3848 -0.8971,0.9278 -1.5484,1.6938 -2.0616,2.2974 -2.6521,3.1193 -2.9502,3.4699 -8.7424,3.4617 -5.8122,-0.008 -6.0872,-0.331 -8.7527,-3.4624 -0.4721,-0.5544 -1.0718,-1.2589 -2.0799,-2.3015 -0.9821,-1.0158 -1.6305,-1.7535 -2.1734,-2.3711 -1.0009,-1.1384 -1.1031,-1.2546 -3.8685,0.3419 -2.7569,1.5916 -2.7076,1.7379 -2.2235,3.1694 0.2923,0.8645 0.6415,1.8969 0.9802,3.0813 0.3724,1.3018 0.7004,2.2231 0.9584,2.948 1.372,3.8557 1.5129,4.2519 -1.3906,9.2981 -2.8905,5.0238 -3.3419,5.1064 -7.3631,5.8425 -0.7321,0.1339 -1.6613,0.3041 -3.0189,0.6435 -1.3322,0.3331 -2.3241,0.5314 -3.1541,0.697 -1.4801,0.2957 -1.6366,0.3271 -1.6417,3.4891 -0.006,3.2068 0.1504,3.2384 1.6448,3.5379 0.8284,0.1659 1.8174,0.3644 3.1451,0.6962 1.3585,0.3397 2.2877,0.5101 3.0199,0.6442 3.9772,0.7292 4.4619,0.8186 7.2718,5.6693 0.0365,0.055 0.0719,0.1115 0.1055,0.1695 2.9043,5.0301 2.7525,5.4563 1.3803,9.3076 -0.2582,0.7251 -0.586,1.6449 -0.9571,2.942 -0.3137,1.0967 -0.6746,2.165 -0.9772,3.0608 -0.4914,1.4543 -0.5425,1.6063 2.2398,3.2061 2.7555,1.5847 2.8605,1.4656 3.8534,0.3354 0.5984,-0.6813 1.3131,-1.4948 2.1733,-2.3844 z" />
    </g>
  </g>
  <g
     style="display:none"
     id="layer4">
    <path
       id="path10764-8"
       style="fill:#ab0000;fill-rule:evenodd;stroke:#ffffff;stroke-width:36.62006378;stroke-miterlimit:4;stroke-dasharray:none;stroke-opacity:1;paint-order:stroke fill markers"
       d="m 144.62298,38.129934 c 0,-10.690647 8.6687,-19.359341 19.35933,-19.359341 10.69109,0 19.35934,8.668694 19.35934,19.359341 v 61.892496 l 58.83632,-19.116908 c 10.14877,-3.299041 21.05081,2.253468 24.34943,12.402243 3.29903,10.148755 -2.25347,21.050785 -12.40182,24.349405 l -58.86819,19.1274 36.39894,50.09968 c 6.26467,8.64436 4.33415,20.73249 -4.31023,26.99715 -8.64394,6.26464 -20.73204,4.33411 -26.99671,-4.30983 l -36.36582,-50.05353 -36.36706,50.05437 c -6.26467,8.64437 -18.35278,10.5749 -26.99715,4.31023 -8.643942,-6.26467 -10.574477,-18.35277 -4.309817,-26.99714 L 132.70976,136.78541 73.839483,117.65842 C 63.690695,114.3598 58.138182,103.45735 61.437236,93.308599 64.735861,83.159841 75.638308,77.607738 85.787081,80.906373 l 58.835899,19.117307 z" />
    <path
       id="path10766-8"
       style="fill:#000000;fill-rule:evenodd;stroke:#ffffff;stroke-width:36.62006378;stroke-miterlimit:4;stroke-dasharray:none;stroke-opacity:1;paint-order:stroke fill markers"
       d="m 65.263625,160.62952 c 0,-8.75284 7.026619,-15.84961 15.692929,-15.84961 8.666305,0 15.692922,7.09677 15.692922,15.84961 v 28.93603 l 27.224044,-8.93405 c 8.22557,-2.70063 17.06372,1.84594 19.73767,10.15362 2.67441,8.3077 -1.82768,17.23455 -10.05328,19.93519 l -27.25165,8.9427 16.85523,23.43092 c 5.07707,7.07658 3.51306,16.97398 -3.49355,22.10175 -7.00664,5.12776 -16.80669,3.54767 -21.883767,-3.52892 l -16.827619,-23.3939 -16.829049,23.39295 c -5.076607,7.07609 -14.876654,8.6562 -21.883283,3.52843 -7.006631,-5.12729 -8.57064,-15.02515 -3.494035,-22.10176 l 16.855704,-23.43044 -27.250227,-8.94318 c -8.225567,-2.70065 -12.727686,-11.62701 -10.053735,-19.9347 2.673953,-8.30768 11.512082,-12.85474 19.737651,-10.15409 l 27.224045,8.93405 z" />
  </g>
  <g
     style="display:inline"
     id="layer2">
    <path
       id="path10833-9"
       style="display:inline;fill:#ab0000;fill-rule:evenodd;stroke:#ffffff;stroke-width:47.70000076;stroke-linecap:round;stroke-miterlimit:4;stroke-dasharray:none;stroke-opacity:1;paint-order:stroke fill markers"
       d="M 131.43091,43.933007 251.5851,23.908123 c 4.59302,-0.764979 8.93735,2.337815 9.70263,6.930803 0.078,0.465807 0.11507,0.928768 0.11537,1.386064 h 0.0179 V 253.494 c 0,4.6654 -3.78291,8.44857 -8.4483,8.44857 -0.66789,0 -1.31708,-0.0772 -1.93984,-0.22385 L 130.89375,241.6961 c -4.12721,-0.68749 -7.05087,-4.26514 -7.04605,-8.31657 h -0.0179 V 52.339679 c 0,-4.379546 3.33355,-7.981049 7.60127,-8.406553 z M 233.93927,58.055798 140.72649,75.354311 V 210.36469 l 93.21278,17.29847 z" />
    <path
       id="path10839-6"
       style="fill:#000000;fill-opacity:1;fill-rule:evenodd;stroke:#ffffff;stroke-width:44.31052017;stroke-miterlimit:4;stroke-dasharray:none;stroke-opacity:1;paint-order:stroke fill markers"
       d="m 126.25596,181.16865 c 0,-5.92114 7.8585,-10.72248 13.77965,-10.72248 5.92159,0 12.7606,4.80134 12.7606,10.72248 v 57.45209 c 0,5.92115 -4.8009,10.72205 -10.7225,10.72205 -0.42403,0 -0.8414,-0.0223 -1.25211,-0.0666 L 33.970801,240.37148 c -5.603456,-0.46176 -9.843566,-5.15566 -9.83735,-10.6803 l -0.0051,-80.14939 c 0,-5.92159 4.807449,-10.45369 10.722491,-10.7225 12.691093,-0.57674 31.576524,-0.66899 73.295348,0 V 97.39276 c -1.35,-32.337957 -39.154646,-29.385067 -39.605145,0 h -0.0444 l -0.0027,15.50764 c -0.0011,5.89782 -6.959017,11.58892 -12.718191,11.69913 -6.013696,0.11508 -13.737917,-5.80131 -13.737917,-11.69913 l 0.0031,-15.50764 h -0.0444 c 0,-12.79648 5.189143,-29.47723 13.574626,-37.863045 8.385812,-8.386144 19.971514,-13.574614 32.768003,-13.574614 12.795774,0 24.381864,5.187636 32.768624,13.574614 8.38697,8.38498 13.57483,19.971967 13.57483,32.767783 v 62.339562 c 0,5.92114 -4.80112,10.72271 -10.7227,10.72271 H 50.664608 v 48.86597 l 75.587372,7.14884 z" />
  </g>
</svg>
