<?xml version="1.0" encoding="UTF-8"?>
<!DOCTYPE svg PUBLIC "-//W3C//DTD SVG 1.1//EN" "http://www.w3.org/Graphics/SVG/1.1/DTD/svg11.dtd">
<svg xmlns="http://www.w3.org/2000/svg" 
    xml:space="preserve" 
    width="4849px" 
    height="1803px" 
    version="1.1" 
    style="shape-rendering:geometricPrecision; text-rendering:geometricPrecision; image-rendering:optimizeQuality; fill-rule:evenodd; clip-rule:evenodd"
    viewBox="0 0 4855.97 1804.93"
    xmlns:xlink="http://www.w3.org/1999/xlink"
>
    <defs>
        <style type="text/css">
            <![CDATA[
                .dot {fill:#AB0000;fill-rule:nonzero}
                .abiz {fill:#000000;fill-rule:nonzero}
                .sgear {fill:#000000;fill-rule:nonzero}
                .bgear {fill:#AB0000;fill-rule:nonzero}
            ]]>
        </style>
    </defs>
    <g id="abiz">
        <polygon class="dot" points="3984.53,312.88 3762.3,312.88 3762.3,519.23 3984.53,519.23 "/>
        <path class="abiz" d="M2587.67 841.46c0,-207.94 -217.46,-244.45 -336.51,-244.45 -173.02,0 -352.39,36.51 -377.79,295.24l214.29 0c6.35,-49.2 25.4,-117.46 136.51,-117.46 57.14,0 146.04,4.76 146.04,98.42 0,47.62 -42.86,61.9 -77.78,66.66l-200.01 30.16c-141.27,20.64 -246.03,104.77 -246.03,269.85 0,174.61 130.16,246.04 257.15,246.04 150.79,0 222.22,-69.84 273.02,-122.23 4.76,47.62 7.93,60.32 20.63,100.01l239.69 0 0 -33.34c-26.99,-9.52 -49.21,-31.75 -49.21,-131.75l0 -457.15zm-217.46 319.05c0,103.18 -100.01,166.68 -198.42,166.68 -42.86,0 -103.18,-23.81 -103.18,-101.6 0,-92.06 68.26,-112.7 150.8,-126.98 92.07,-14.29 128.58,-28.57 150.8,-46.04l0 107.94zm1001.6 -112.7c0,100.01 -39.68,255.57 -182.54,255.57 -141.27,0 -196.83,-117.47 -196.83,-242.87 0,-134.92 38.1,-271.43 190.48,-271.43 141.28,0 188.89,125.4 188.89,258.73zm-369.84 -723.82l-222.23 0 0 1139.71 217.46 0 0 -106.36 3.18 0c53.97,95.25 152.38,128.58 244.45,128.58 250.8,0 355.56,-222.23 355.56,-453.98 0,-292.07 -165.08,-434.93 -350.8,-434.93 -142.86,0 -209.53,77.78 -244.45,131.75l-3.17 0 0 -404.77zm760.33 295.24l0 844.47 222.23 0 0 -844.47 -222.23 0zm1077.8 182.55l0 -182.55 -684.14 0 0 177.78 403.18 0 -433.34 493.67 0 173.02 730.17 0 0 -182.55 -442.86 0 426.99 -479.37z"/>
        <path class="sgear" d="M1285.18 1227.45c66.69,-38.62 72.59,-36.52 125.07,-17.81 8.4,3 19.06,6.8 34.24,11.14 14.32,4.1 27.03,8.4 37.67,12 5.41,1.83 5.99,2.02 18.21,-19.06 12.39,-21.39 11.93,-21.8 7.5,-25.7 -7.27,-6.39 -15.97,-14.05 -28.83,-26.48 -10.66,-10.31 -19.65,-17.95 -26.73,-23.98 -1.14,-0.97 -2.24,-1.97 -3.28,-3.01 -39.81,-33.91 -44.31,-39.71 -44.31,-114.5 0,-76.81 4.75,-80.86 47.6,-117.31 6.25,-5.31 14.19,-12.07 26.73,-24.19 12.84,-12.42 21.55,-20.08 28.82,-26.47 4.44,-3.91 4.9,-4.32 -7.5,-25.7 -12.22,-21.09 -12.8,-20.9 -18.22,-19.07 -10.63,3.6 -23.34,7.9 -37.66,12 -15.18,4.34 -25.84,8.15 -34.24,11.14 -52.49,18.71 -58.38,20.81 -125.06,-17.82 -66.83,-38.72 -67.87,-44.38 -78.02,-99.66 -1.53,-8.33 -3.48,-18.91 -7.54,-35.19 -4.19,-16.73 -6.57,-28.6 -8.55,-38.52 -1.08,-5.44 -1.2,-6 -25.72,-6 -24.51,0 -24.63,0.56 -25.72,6 -1.98,9.93 -4.36,21.78 -8.54,38.53 -4.07,16.26 -6.01,26.85 -7.54,35.18 -10.16,55.28 -11.2,60.96 -78.02,99.66 -66.78,38.68 -72.67,36.58 -125.28,17.82l-2.63 -1.02c-7.95,-2.82 -17.88,-6.26 -31.39,-10.12 -14.32,-4.1 -27.03,-8.4 -37.67,-12 -5.41,-1.83 -5.99,-2.02 -18.21,19.07 -12.4,21.38 -11.93,21.8 -7.5,25.7 7.27,6.39 15.95,14.02 28.82,26.47 12.54,12.13 20.48,18.88 26.73,24.2 42.85,36.46 47.6,40.49 47.6,117.3 0,76.8 -4.75,80.84 -47.6,117.3 -6.25,5.31 -14.19,12.07 -26.73,24.19 -12.88,12.46 -21.55,20.08 -28.82,26.48 -4.43,3.9 -4.9,4.32 7.5,25.7 12.22,21.08 12.8,20.89 18.2,19.06 10.64,-3.6 23.36,-7.9 37.68,-12 15.17,-4.34 25.84,-8.14 34.24,-11.14 52.48,-18.71 58.37,-20.81 125.06,17.82 66.82,38.71 67.86,44.39 78.02,99.67 1.53,8.32 3.48,18.91 7.54,35.18 4.19,16.75 6.56,28.61 8.55,38.53 1.08,5.44 1.2,5.99 25.71,5.99 24.52,0 24.64,-0.56 25.72,-6 1.99,-9.92 4.36,-21.78 8.55,-38.53 4.06,-16.25 6.01,-26.84 7.54,-35.17 10.15,-55.26 11.2,-60.97 78.01,-99.68zm88.24 86.64c-9.44,-3.37 -10.51,-3.75 -32.76,9.14 -22.75,13.18 -22.94,14.18 -24.71,23.83 -2.06,11.21 -4.68,25.45 -8.84,42.11 -2.88,11.54 -5.26,23.4 -7.25,33.33 -17.3,86.46 -19.07,95.28 -134.5,95.28 -115.43,0 -117.19,-8.81 -134.49,-95.27 -1.99,-9.93 -4.37,-21.79 -7.25,-33.33 -4.16,-16.65 -6.78,-30.91 -8.84,-42.12 -1.77,-9.64 -1.96,-10.64 -24.72,-23.82 -22.26,-12.89 -23.31,-12.52 -32.75,-9.15 -10.31,3.67 -23.39,8.34 -40.74,13.3 -13.72,3.92 -23.93,7.38 -32.47,10.27 -83.07,28.12 -91.81,31.08 -149.52,-68.47 -58.03,-100.1 -51.13,-106.19 15.04,-164.38 7.91,-6.96 17.35,-15.27 25.35,-23 11.78,-11.39 23.05,-20.98 31.93,-28.54 7.34,-6.24 8.16,-6.94 8.16,-33.22 0,-26.28 -0.82,-26.98 -8.15,-33.22 -8.89,-7.56 -20.16,-17.15 -31.94,-28.54 -8,-7.74 -17.45,-16.05 -25.35,-23 -66.17,-58.21 -73.06,-64.28 -15.04,-164.39 57.69,-99.54 66.46,-96.58 149.52,-68.47 8.55,2.89 18.75,6.35 32.47,10.27 15.96,4.57 28.31,8.88 38.21,12.4l2.75 0.9c9.31,3.33 10.36,3.69 32.53,-9.15 22.76,-13.18 22.95,-14.17 24.72,-23.81 2.05,-11.21 4.67,-25.46 8.84,-42.12 2.88,-11.54 5.26,-23.4 7.24,-33.33 17.31,-86.45 19.07,-95.27 134.5,-95.27 115.43,0 117.2,8.81 134.5,95.27 1.98,9.92 4.36,21.77 7.25,33.32 4.16,16.65 6.78,30.91 8.84,42.12 1.77,9.64 1.95,10.64 24.71,23.83 22.26,12.89 23.32,12.51 32.76,9.15 10.3,-3.68 23.38,-8.34 40.73,-13.31 13.72,-3.92 23.93,-7.38 32.47,-10.27 83.06,-28.11 91.83,-31.08 149.53,68.47 58.03,100.11 51.13,106.18 -15.04,164.39 -7.91,6.95 -17.31,15.23 -25.35,23 -11.79,11.39 -23.05,20.98 -31.93,28.53 -7.35,6.25 -8.17,6.95 -8.17,33.23 0,22.7 0.61,26.31 5.51,30.9 0.9,0.67 1.78,1.37 2.65,2.1 8.06,6.85 18.28,15.55 31.93,28.75 8.03,7.76 17.45,16.05 25.36,23.01 66.18,58.21 73.05,64.27 15.03,164.38 -57.69,99.55 -66.46,96.59 -149.51,68.47 -8.54,-2.89 -18.75,-6.35 -32.48,-10.27 -17.35,-4.96 -30.43,-9.63 -40.73,-13.3z"/>
        <path class="bgear" d="M819.66 1432.23c29.65,-30.83 78.69,-31.78 109.51,-2.13 30.83,29.65 31.78,78.69 2.13,109.51l-116.68 120.67c-19.96,20.64 -34.77,37.51 -47.17,51.62 -99.53,113.29 -110.02,125.23 -285.8,24.13 -176.86,-101.7 -171.83,-116.64 -123.4,-259.99 5.7,-16.86 12.5,-37 20.97,-66.6 9.72,-34 18.8,-59.47 25.95,-79.54 11.38,-31.95 12.64,-35.49 -20.92,-93.62 -0.81,-1.41 -1.58,-2.83 -2.29,-4.27 -31.43,-54.16 -35.71,-54.96 -68.17,-60.91 -21.55,-3.95 -48.9,-8.96 -82.01,-17.24 -24.58,-6.14 -48.21,-10.88 -68.02,-14.85 -148.62,-29.79 -164.11,-32.9 -163.75,-236.99 0.33,-203.18 15.93,-206.29 163.68,-235.82 19.84,-3.95 43.53,-8.69 68.23,-14.87 33.13,-8.27 60.45,-13.28 81.99,-17.22 33.08,-6.06 36.8,-6.74 70.12,-64.65 33.74,-58.65 32.57,-61.95 21.16,-94.01 -7.15,-20.08 -16.23,-45.59 -25.98,-79.68 -7.93,-27.72 -15.07,-48.83 -21.04,-66.49 -48.45,-143.27 -53.39,-157.88 123.01,-259.72 176.19,-101.72 186.37,-90.15 286.16,23.37 13.73,15.62 30.14,34.3 47.18,51.92 23.04,23.82 41.41,45.4 55.86,62.38 21.76,25.56 24.01,28.19 91.87,28.29 66.88,0.09 69.32,-2.77 91,-28.27 13.44,-15.81 30.49,-35.87 56.04,-62.29 19.97,-20.65 34.79,-37.52 47.19,-51.64 99.52,-113.28 110,-125.21 285.79,-24.12 176.86,101.72 171.83,116.62 123.4,259.99 -5.69,16.86 -12.49,36.98 -20.97,66.61l-46.19 161.46c-11.72,41.22 -54.64,65.12 -95.86,53.39 -41.21,-11.72 -65.11,-54.64 -53.39,-95.86l46.19 -161.46c7.51,-26.24 16.16,-51.84 23.4,-73.29 11.76,-34.82 12.99,-38.45 -53.63,-76.76 -65.97,-37.94 -68.48,-35.09 -92.25,-8.03 -14.33,16.31 -31.45,35.79 -52.05,57.1 -21.48,22.21 -37.07,40.55 -49.36,55 -63.5,74.68 -70.63,83.08 -209.31,82.88 -139.16,-0.19 -145.75,-7.92 -209.56,-82.9 -11.31,-13.27 -25.67,-30.14 -49.8,-55.1 -23.52,-24.32 -39.04,-41.98 -52.04,-56.77 -23.96,-27.26 -26.41,-30.04 -92.62,8.19 -66.01,38.1 -64.83,41.61 -53.24,75.88 7,20.7 15.36,45.42 23.47,73.77 8.92,31.17 16.77,53.23 22.95,70.59 32.85,92.31 36.22,101.8 -33.3,222.62 -69.2,120.28 -80.01,122.26 -176.29,139.88 -17.53,3.21 -39.77,7.28 -72.28,15.41 -31.9,7.97 -55.64,12.72 -75.52,16.69 -35.43,7.08 -39.18,7.83 -39.3,83.53 -0.14,76.78 3.6,77.54 39.38,84.71 19.83,3.97 43.51,8.72 75.3,16.67 32.53,8.13 54.77,12.21 72.3,15.42 95.23,17.46 106.83,19.6 174.11,135.74 0.87,1.32 1.72,2.67 2.53,4.06 69.53,120.43 65.9,130.64 33.04,222.85 -6.18,17.36 -14.03,39.38 -22.91,70.44 -7.51,26.25 -16.15,51.83 -23.4,73.28 -11.76,34.82 -12.99,38.46 53.63,76.76 65.97,37.94 68.49,35.09 92.26,8.03 14.33,-16.31 31.44,-35.79 52.03,-57.09l116.67 -120.66z"/>
    </g>
</svg>
