<?xml version="1.0" encoding="UTF-8"?>
<!DOCTYPE svg PUBLIC "-//W3C//DTD SVG 1.1//EN" "http://www.w3.org/Graphics/SVG/1.1/DTD/svg11.dtd">
<svg xmlns="http://www.w3.org/2000/svg" 
    xml:space="preserve" 
    width="2965px" 
    height="3272px" 
    version="1.1" 
    style="shape-rendering:geometricPrecision; text-rendering:geometricPrecision; image-rendering:optimizeQuality; fill-rule:evenodd; clip-rule:evenodd"
    viewBox="0 0 2965 3272.02"
    xmlns:xlink="http://www.w3.org/1999/xlink"
>
    <defs>
        <style type="text/css">
            <![CDATA[
                .sgear {fill:#668899;fill-rule:nonzero}
                .bgear {fill:#668899;fill-rule:nonzero}
            ]]>
        </style>
    </defs>
    <g id="abiz">
        <path class="sgear" d="M2329.81 2225.16c120.89,-70.02 131.59,-66.21 226.73,-32.29 15.23,5.43 34.55,12.33 62.06,20.19 25.97,7.43 49.02,15.23 68.3,21.76 9.8,3.31 10.85,3.66 33,-34.57 22.47,-38.77 21.63,-39.51 13.61,-46.57 -13.19,-11.6 -28.95,-25.48 -52.26,-48.01 -19.34,-18.7 -35.63,-32.55 -48.46,-43.47 -2.08,-1.75 -4.06,-3.58 -5.96,-5.46 -72.15,-61.47 -80.32,-71.98 -80.32,-207.57 0,-139.24 8.62,-146.58 86.29,-212.65 11.34,-9.64 25.73,-21.89 48.45,-43.86 23.28,-22.51 39.07,-36.4 52.25,-47.99 8.05,-7.08 8.88,-7.82 -13.59,-46.59 -22.16,-38.24 -23.21,-37.89 -33.02,-34.57 -19.28,6.52 -42.32,14.33 -68.29,21.76 -27.51,7.87 -46.84,14.77 -62.06,20.19 -95.16,33.92 -105.83,37.72 -226.72,-32.3 -121.14,-70.19 -123.03,-80.46 -141.43,-180.68 -2.78,-15.09 -6.31,-34.28 -13.68,-63.78 -7.58,-30.33 -11.9,-51.85 -15.49,-69.83 -1.96,-9.87 -2.17,-10.88 -46.62,-10.88 -44.45,0 -44.65,1.01 -46.63,10.88 -3.59,17.99 -7.9,39.48 -15.49,69.84 -7.37,29.48 -10.9,48.68 -13.67,63.78 -18.4,100.21 -20.3,110.5 -141.43,180.67 -121.06,70.11 -131.74,66.31 -227.12,32.29l-4.76 -1.84c-14.4,-5.1 -32.41,-11.34 -56.91,-18.35 -25.96,-7.42 -49,-15.22 -68.28,-21.75 -9.82,-3.32 -10.86,-3.67 -33.02,34.57 -22.46,38.76 -21.63,39.52 -13.58,46.59 13.18,11.59 28.9,25.41 52.24,47.99 22.73,21.98 37.12,34.23 48.46,43.87 77.67,66.09 86.28,73.4 86.28,212.64 0,139.24 -8.61,146.56 -86.29,212.64 -11.33,9.64 -25.72,21.89 -48.45,43.87 -23.35,22.57 -39.07,36.4 -52.24,47.98 -8.05,7.08 -8.88,7.84 13.58,46.59 22.17,38.23 23.21,37.88 33,34.57 19.29,-6.53 42.35,-14.33 68.3,-21.76 27.51,-7.86 46.85,-14.76 62.07,-20.19 95.15,-33.93 105.82,-37.73 226.72,32.3 121.13,70.17 123.03,80.47 141.43,180.68 2.78,15.09 6.31,34.28 13.68,63.78 7.59,30.36 11.89,51.86 15.49,69.85 1.97,9.85 2.18,10.86 46.62,10.86 44.45,0 44.66,-1.01 46.62,-10.87 3.6,-18 7.91,-39.49 15.5,-69.85 7.37,-29.48 10.89,-48.67 13.67,-63.77 18.4,-100.18 20.3,-110.53 141.42,-180.69zm159.95 157.05c-17.11,-6.1 -19.05,-6.79 -59.38,16.57 -41.25,23.9 -41.59,25.71 -44.8,43.2 -3.72,20.32 -8.47,46.15 -16.02,76.35 -5.23,20.91 -9.53,42.42 -13.14,60.42 -31.36,156.73 -34.56,172.71 -243.82,172.71 -209.26,0 -212.46,-15.97 -243.82,-172.7 -3.6,-18 -7.91,-39.5 -13.14,-60.42 -7.54,-30.18 -12.29,-56.03 -16.03,-76.36 -3.21,-17.48 -3.54,-19.28 -44.8,-43.18 -40.35,-23.37 -42.27,-22.69 -59.37,-16.59 -18.69,6.66 -42.41,15.12 -73.85,24.11 -24.89,7.12 -43.39,13.39 -58.88,18.63 -150.58,50.97 -166.42,56.34 -271.04,-124.13 -105.21,-181.47 -92.7,-192.5 27.26,-298 14.33,-12.61 31.45,-27.68 45.96,-41.7 21.35,-20.64 41.78,-38.02 57.88,-51.72 13.31,-11.33 14.79,-12.59 14.79,-60.23 0,-47.65 -1.48,-48.91 -14.78,-60.23 -16.11,-13.7 -36.53,-31.08 -57.89,-51.73 -14.51,-14.03 -31.63,-29.09 -45.96,-41.7 -119.96,-105.51 -132.45,-116.52 -27.26,-298 104.57,-180.45 120.48,-175.09 271.06,-124.12 15.48,5.23 33.98,11.5 58.86,18.61 28.92,8.28 51.31,16.1 69.26,22.48l4.98 1.64c16.89,6.02 18.79,6.68 58.98,-16.59 41.26,-23.9 41.59,-25.7 44.8,-43.18 3.73,-20.32 8.48,-46.15 16.03,-76.35 5.23,-20.92 9.54,-42.42 13.14,-60.41 31.36,-156.73 34.56,-172.72 243.82,-172.72 209.26,0 212.46,15.98 243.82,172.71 3.59,17.99 7.9,39.47 13.13,60.41 7.54,30.18 12.3,56.03 16.03,76.36 3.21,17.47 3.55,19.28 44.81,43.19 40.34,23.36 42.27,22.68 59.37,16.58 18.69,-6.66 42.4,-15.12 73.85,-24.11 24.88,-7.12 43.37,-13.39 58.86,-18.62 150.56,-50.96 166.48,-56.35 271.06,124.12 105.2,181.48 92.7,192.49 -27.25,298 -14.34,12.6 -31.39,27.61 -45.97,41.7 -21.36,20.65 -41.78,38.03 -57.88,51.72 -13.31,11.33 -14.8,12.59 -14.8,60.24 0,41.15 1.1,47.7 9.98,56.02 1.63,1.21 3.24,2.48 4.81,3.81 14.61,12.42 33.14,28.19 57.89,52.12 14.55,14.07 31.63,29.1 45.97,41.71 119.97,105.52 132.42,116.5 27.25,297.99 -104.59,180.47 -120.48,175.09 -271.05,124.13 -15.48,-5.24 -33.99,-11.51 -58.88,-18.63 -31.45,-8.99 -55.15,-17.45 -73.84,-24.11z"/>
        <path class="bgear" d="M1485.91 2596.38c53.75,-55.88 142.63,-57.6 198.51,-3.85 55.89,53.75 57.61,142.64 3.86,198.52l-211.51 218.74c-36.18,37.42 -63.04,68 -85.53,93.59 -180.41,205.37 -199.44,227.01 -518.1,43.74 -320.62,-184.36 -311.49,-211.45 -223.7,-471.32 10.33,-30.57 22.66,-67.07 38.01,-120.73 17.63,-61.64 34.09,-107.8 47.05,-144.2 20.63,-57.92 22.92,-64.34 -37.92,-169.71 -1.48,-2.55 -2.86,-5.14 -4.15,-7.73 -56.98,-98.2 -64.73,-99.64 -123.58,-110.43 -39.08,-7.15 -88.65,-16.24 -148.67,-31.25 -44.57,-11.14 -87.4,-19.73 -123.3,-26.92 -269.43,-54.01 -297.51,-59.65 -296.87,-429.62 0.61,-368.33 28.89,-373.98 296.73,-427.5 35.96,-7.17 78.91,-15.76 123.7,-26.96 60.04,-15 109.58,-24.08 148.62,-31.22 59.98,-10.98 66.71,-12.22 127.12,-117.2 61.17,-106.32 59.05,-112.3 38.36,-170.42 -12.96,-36.4 -29.43,-82.66 -47.1,-144.45 -14.37,-50.25 -27.31,-88.51 -38.14,-120.53 -87.83,-259.74 -96.78,-286.21 222.99,-470.82 319.41,-184.41 337.86,-163.43 518.76,42.36 24.89,28.32 54.65,62.17 85.53,94.11 41.76,43.19 75.07,82.31 101.27,113.09 39.44,46.33 43.52,51.11 166.53,51.29 121.25,0.16 125.67,-5.03 164.98,-51.26 24.36,-28.66 55.27,-65.02 101.59,-112.91 36.19,-37.43 63.06,-68.02 85.54,-93.61 180.42,-205.37 199.42,-226.99 518.09,-43.74 320.62,184.4 311.51,211.43 223.71,471.32 -10.33,30.57 -22.65,67.04 -38.01,120.75l-83.74 292.71c-21.26,74.71 -99.06,118.05 -173.77,96.79 -74.72,-21.26 -118.05,-99.06 -96.79,-173.78l83.73 -292.7c13.61,-47.57 29.29,-93.98 42.42,-132.86 21.32,-63.13 23.54,-69.71 -97.23,-139.16 -119.59,-68.77 -124.14,-63.61 -167.24,-14.56 -25.97,29.57 -56.99,64.88 -94.35,103.51 -38.93,40.27 -67.2,73.51 -89.47,99.71 -115.12,135.39 -128.06,150.61 -379.46,150.25 -252.27,-0.35 -264.2,-14.36 -379.89,-150.28 -20.5,-24.06 -46.52,-54.64 -90.28,-99.89 -42.62,-44.09 -70.77,-76.11 -94.33,-102.91 -43.44,-49.42 -47.88,-54.46 -167.91,14.84 -119.66,69.08 -117.52,75.42 -96.51,137.56 12.69,37.52 27.84,82.33 42.55,133.74 16.16,56.5 30.39,96.49 41.59,127.95 59.56,167.35 65.67,184.55 -60.35,403.57 -125.46,218.05 -145.05,221.64 -319.59,253.59 -31.77,5.81 -72.11,13.2 -131.03,27.93 -57.82,14.45 -100.87,23.06 -136.9,30.25 -64.24,12.84 -71.03,14.2 -71.26,151.44 -0.24,139.19 6.53,140.56 71.4,153.56 35.95,7.2 78.88,15.81 136.5,30.22 58.97,14.74 99.3,22.14 131.08,27.95 172.63,31.65 193.66,35.53 315.62,246.07 1.59,2.39 3.12,4.84 4.58,7.36 126.06,218.33 119.47,236.82 59.91,403.99 -11.21,31.47 -25.43,71.39 -41.54,127.69 -13.62,47.6 -29.28,93.96 -42.42,132.84 -21.32,63.13 -23.54,69.73 97.22,139.16 119.6,68.79 124.16,63.62 167.25,14.56 25.98,-29.57 56.99,-64.88 94.33,-103.49l211.51 -218.74z"/>
    </g>
</svg>
