<?xml version="1.0" encoding="UTF-8"?>
<!DOCTYPE svg PUBLIC "-//W3C//DTD SVG 1.1//EN" "http://www.w3.org/Graphics/SVG/1.1/DTD/svg11.dtd">
<svg 
	xmlns="http://www.w3.org/2000/svg" 
	xml:space="preserve" 
	width="3033px" 
	height="1853px" 
	version="1.1" 
	style="shape-rendering:geometricPrecision; text-rendering:geometricPrecision; image-rendering:optimizeQuality; fill-rule:evenodd; clip-rule:evenodd"
	viewBox="0 0 3033 1853"
	xmlns:xlink="http://www.w3.org/1999/xlink"
>
	<defs>
		<style type="text/css">
			<![CDATA[
				.camera {fill:#668899;fill-rule:nonzero}
				.key {fill:#668899}
				.lockimg {fill:#668899;fill-rule:nonzero}
			]]>
		</style>
	</defs>
	<g id="lockimg">
		<g>
			<path class="camera" d="M277 1474c-76,0 -146,-31 -196,-81 -50,-50 -81,-120 -81,-196l0 -773c0,-77 31,-146 81,-196 50,-50 120,-81 196,-81l0 0 0 -30c0,-34 27,-61 60,-61l236 0c34,0 61,27 61,61l0 30 520 0 877 0c76,0 145,31 196,81 25,25 45,56 59,89 13,31 -2,66 -32,79l-28 12c-31,13 -67,-2 -80,-33 -6,-15 -15,-28 -27,-40 -22,-23 -54,-37 -88,-37l-569 0c-182,-151 -395,-129 -494,-51 -33,14 -63,31 -90,51l-601 0c-35,0 -66,14 -89,37 -22,23 -37,54 -37,89l0 773c0,35 15,66 37,89 23,22 54,37 89,37 33,0 60,27 60,60l0 30c0,34 -27,61 -60,61z"/>
			<path class="key" d="M724 1033c-380,-380 -109,-1033 428,-1033 293,0 541,210 594,492 401,0 802,0 1202,0 47,0 85,38 85,85l0 42c0,47 -38,85 -85,85l0 264c0,47 -38,85 -85,85l-42 0c-47,0 -85,-38 -85,-85l0 -264 -137 0 0 204c0,46 -38,84 -85,84l-42 0c-47,0 -85,-38 -85,-84l0 -204 -638 0c-80,482 -676,678 -1025,329zm706 -706c-247,-247 -671,-71 -671,278 0,349 424,525 671,278 153,-154 153,-402 0,-556z"/>
		</g>
		<path class="lockimg" d="M592 1254l-96 0 0 460 325 0 0 -83 -229 0 0 -377zm617 290c0,-124 -83,-180 -174,-180 -92,0 -175,56 -175,180 0,123 83,179 175,179 91,0 174,-56 174,-179zm-92 0c0,43 -13,103 -82,103 -69,0 -82,-60 -82,-103 0,-44 13,-104 82,-104 69,0 82,60 82,104zm358 46c0,16 -16,59 -61,59 -68,0 -70,-73 -70,-111 0,-42 15,-98 72,-98l4 0c38,0 51,33 55,55l91 0c-8,-107 -97,-131 -150,-131 -116,0 -164,79 -164,189 0,72 30,170 158,170 125,0 152,-98 156,-133l-91 0zm233 16l37 -38 81 146 108 0 -124 -209 121 -132 -110 0 -113 130 0 -249 -90 0 0 460 90 0 0 -108zm267 -233l0 341 89 0 0 -341 -89 0zm89 -124l-89 0 0 84 89 0 0 -84zm574 229c0,-75 -52,-114 -119,-114 -54,0 -79,38 -91,55 -23,-37 -45,-55 -94,-55 -61,0 -86,37 -97,59l-2 0 0 -50 -85 0 0 341 89 0 0 -208c0,-37 14,-66 56,-66 54,0 54,40 54,69l0 205 90 0 0 -204c0,-41 16,-70 61,-70 26,0 48,16 48,67l0 207 90 0 0 -236zm309 -105l0 51 -1 0c-11,-23 -37,-60 -100,-60 -75,0 -142,58 -142,176 0,119 65,176 147,176 54,0 76,-25 91,-51l1 1 0 41c0,55 -23,78 -71,78 -52,0 -59,-17 -63,-34l-97 0c4,72 78,102 149,102 168,0 172,-98 172,-157l0 -323 -86 0zm-151 173c0,-80 38,-104 71,-104 50,0 77,45 77,100 0,46 -15,98 -76,98 -54,0 -72,-51 -72,-94z"/>
	</g>
</svg>
