<?xml version="1.0" encoding="UTF-8"?>
<!DOCTYPE svg PUBLIC "-//W3C//DTD SVG 1.1//EN" "http://www.w3.org/Graphics/SVG/1.1/DTD/svg11.dtd">
<svg 
	xmlns="http://www.w3.org/2000/svg" 
	xml:space="preserve" 
	width="4073px" 
	height="2236px" 
	version="1.1" 
	style="shape-rendering:geometricPrecision; text-rendering:geometricPrecision; image-rendering:optimizeQuality; fill-rule:evenodd; clip-rule:evenodd"
	viewBox="0 0 3709 2036"
	xmlns:xlink="http://www.w3.org/1999/xlink"
>
	<defs>
		<style type="text/css">
		<![CDATA[
			.ab {fill:#FFFFFF; fill-rule:nonzero}
			.tags {fill:#FFFFFF; fill-rule:nonzero}
			.tagslash {fill:#AB0000}
		]]>
		</style>
	</defs>
	<g id="abcontenidos">
		<path class="tags" d="M1990 0l-1450 1038 1118 692 -411 0 -1100 -692 1466 -1038 377 0zm-1990 2036l772 -553 204 128 -599 425 -377 0zm1036 -742l414 -296 -418 -259 187 -133 624 392 -600 424 -207 -128zm-291 -733l-413 -256 410 0 193 122 -190 134z"/>
		<polygon class="tagslash" points="1213,1006 997,872 777,1030 992,1164 "/>
		<path class="ab" d="M2611 1311l0 0c-41,41 -91,62 -149,62 -57,0 -107,-21 -148,-62 -41,-41 -62,-91 -62,-149 0,-57 21,-107 63,-149 42,-42 91,-63 147,-63 58,0 108,21 149,63 41,41 62,91 62,149 0,58 -21,108 -62,149zm62 -529l0 42c-62,-28 -132,-42 -210,-42 -103,0 -193,37 -267,112 -75,75 -113,164 -113,268 0,105 37,194 112,269 74,74 163,111 268,111 76,0 146,-21 210,-63l0 63 172 0 0 -760 -172 0zm804 529l0 0c-42,41 -92,62 -150,62 -58,0 -108,-21 -149,-62 -41,-41 -62,-91 -62,-149 0,-57 21,-107 63,-149 42,-42 91,-63 148,-63 58,0 108,21 150,63 41,41 62,91 62,149 0,58 -21,108 -62,149zm119 -418c-75,-74 -166,-111 -271,-111 -73,0 -143,21 -209,65l0 -658 -169 0 0 1353 175 0 -6 -45c61,30 131,45 209,45 105,0 196,-37 271,-111 75,-75 113,-164 113,-269 0,-105 -38,-195 -113,-269z"/>
	</g>
</svg>
