<?xml version="1.0" encoding="UTF-8"?>
<!DOCTYPE svg PUBLIC "-//W3C//DTD SVG 1.1//EN" "http://www.w3.org/Graphics/SVG/1.1/DTD/svg11.dtd">
<svg 
	xmlns="http://www.w3.org/2000/svg" 
	xml:space="preserve" 
	width="3033px" 
	height="831px" 
	version="1.1" 
	style="shape-rendering:geometricPrecision; text-rendering:geometricPrecision; image-rendering:optimizeQuality; fill-rule:evenodd; clip-rule:evenodd"
	viewBox="0 0 3033 831"
	xmlns:xlink="http://www.w3.org/1999/xlink"
>
	<defs>
		<style type="text/css">
		<![CDATA[
			.tag {fill:#FFFFFF;fill-rule:nonzero}
			.tagslash, .idot {fill:#AB0000}
			.ab {fill:#FFFFFF;fill-rule:nonzero}
			.contenidos {fill:#FFFFFF;fill-rule:nonzero}
		]]>
		</style>
	</defs>
	<g id="abcontenidos">
		<g>
			<path class="tag" d="M640 0l-466 334 359 222 -132 0 -354 -222 471 -334 122 0zm-640 655l248 -178 66 41 -193 137 -121 0zm333 -239l133 -95 -134 -83 60 -43 200 126 -192 136 -67 -41zm-94 -236l-132 -82 132 0 62 39 -62 43z"/>
			<polygon class="tagslash" points="390,323 321,280 250,331 319,374 "/>
		</g>
		<polygon class="idot" points="2277,481 2208,438 2137,489 2206,532 "/>
		<path class="ab" d="M840 422l0 0c-14,13 -30,19 -48,19 -19,0 -35,-6 -48,-19 -13,-14 -20,-30 -20,-48 0,-19 7,-35 20,-48 14,-14 30,-20 48,-20 18,0 34,6 48,20 13,13 19,29 19,48 0,18 -6,34 -19,48zm19 -171l0 14c-19,-9 -42,-14 -67,-14 -33,0 -62,12 -86,36 -24,24 -36,53 -36,87 0,33 12,62 36,86 23,24 52,36 86,36 24,0 47,-7 67,-21l0 21 56 0 0 -245 -56 0zm259 171l0 0c-13,13 -29,19 -48,19 -19,0 -35,-6 -48,-19 -13,-14 -20,-30 -20,-48 0,-19 7,-35 20,-48 14,-14 30,-20 48,-20 19,0 35,6 48,20 13,13 20,29 20,48 0,18 -7,34 -20,48zm38 -135c-24,-24 -53,-36 -87,-36 -23,0 -46,7 -67,21l0 -211 -54 0 0 435 56 0 -2 -15c19,10 42,15 67,15 34,0 63,-12 87,-36 25,-24 37,-53 37,-86 0,-34 -12,-63 -37,-87z"/>
		<path class="contenidos" d="M1097 624c-24,-23 -52,-35 -86,-35 -33,0 -62,12 -86,35 -23,24 -35,53 -35,86 0,33 12,62 35,85 24,24 53,36 86,36 34,0 62,-12 86,-36 24,-23 36,-52 36,-85 0,-33 -12,-62 -36,-86zm-20 152l0 0c-18,18 -40,28 -66,28 -26,0 -48,-10 -66,-28 -19,-19 -28,-41 -28,-66 0,-26 9,-48 28,-66 18,-19 40,-28 66,-28 26,0 48,9 66,28 18,18 28,40 28,66 0,25 -10,47 -28,66zm-201 20c-23,23 -51,35 -85,35 -33,0 -61,-12 -85,-36 -24,-23 -36,-52 -36,-85 0,-33 12,-62 36,-86 24,-23 52,-35 85,-35 34,0 62,11 85,33 -3,3 -9,10 -19,21 -6,-7 -16,-13 -30,-19 -14,-5 -26,-8 -36,-8 -25,0 -47,9 -66,28 -18,18 -27,40 -27,66 0,25 9,47 27,66 19,18 41,28 66,28 10,0 22,-3 36,-9 14,-5 24,-11 30,-18l19 19zm2156 -98c3,36 -7,67 -32,93 -24,27 -54,40 -90,40 -15,0 -30,-3 -46,-10 -16,-6 -29,-15 -39,-25 2,-3 8,-10 19,-20 6,8 16,14 30,19 13,6 25,9 36,9 23,0 43,-8 60,-23 17,-15 28,-33 33,-56l-213 0 -2 -3c-3,-36 7,-67 31,-94 25,-26 55,-39 91,-39 33,0 61,11 84,33 -2,3 -9,10 -19,21 -6,-7 -16,-13 -30,-19 -14,-5 -25,-8 -35,-8 -24,0 -44,8 -61,23 -16,15 -27,34 -32,57l215 2zm-304 -74c-24,-23 -53,-35 -86,-35 -34,0 -62,12 -86,35 -24,24 -36,53 -36,86 0,33 12,62 36,85 24,24 52,36 86,36 33,0 62,-12 86,-36 24,-23 35,-52 35,-85 0,-33 -11,-62 -35,-86zm-20 152l0 0c-19,18 -41,28 -66,28 -26,0 -48,-10 -66,-28 -19,-19 -28,-41 -28,-66 0,-26 9,-48 28,-66 18,-19 40,-28 66,-28 26,0 48,9 66,28 18,18 27,40 27,66 0,25 -9,47 -27,66zm-244 -403l0 259c-24,-29 -55,-43 -93,-43 -33,0 -61,12 -85,35 -24,24 -36,53 -36,86 0,33 12,62 36,85 24,24 52,36 85,36 37,0 68,-14 93,-43l0 43 29 0 0 -458 -29 0zm-27 403l0 0c-18,18 -40,28 -66,28 -25,0 -47,-10 -66,-28 -18,-19 -27,-41 -27,-66 0,-26 9,-48 27,-66 19,-19 41,-28 66,-28 26,0 48,9 66,28 18,18 27,40 27,66 0,25 -9,47 -27,66zm-218 55l-28 0 0 -214c-9,-1 -18,-1 -28,0l0 -28 56 0 0 242zm-83 0l-27 0 0 -130c0,-12 -6,-27 -17,-43 -12,-16 -23,-26 -35,-32 -14,-6 -28,-10 -42,-10 -10,0 -23,4 -41,10 -12,5 -24,15 -35,31 -11,17 -17,31 -17,43l0 131 -29 0 0 -242 29 0 0 43c26,-29 57,-43 92,-43 44,0 77,18 102,54 13,21 20,39 20,55l0 133zm-476 -108l213 0 0 -25c0,-16 -7,-34 -21,-55 -24,-36 -58,-54 -101,-54 -33,0 -62,12 -85,35 -24,24 -36,53 -36,86 0,33 12,62 36,85 23,24 52,36 85,36 33,0 61,-12 84,-35l-19 -19c-5,7 -15,13 -29,18 -14,6 -26,9 -36,9 -31,0 -58,-16 -80,-48 -1,-1 -3,-6 -6,-15 -4,-9 -5,-14 -5,-15 0,-2 0,-3 0,-3zm31 -84l0 0c17,-15 37,-23 60,-23 23,0 43,8 60,23 18,15 28,34 32,57l-183 0c4,-23 14,-42 31,-57zm-59 157l-18 -19c-6,7 -16,13 -30,18 -14,6 -26,9 -36,9 -15,0 -29,-4 -41,-11 -13,-6 -24,-17 -35,-32 -12,-15 -17,-29 -17,-42l0 -103 93 0 0 -28 -93 0 0 -215 -28 0 0 346c0,30 13,56 38,78 25,23 53,34 83,34 34,0 62,-12 84,-35zm-231 35l-28 0 0 -130c0,-12 -5,-27 -17,-43 -11,-16 -23,-26 -34,-32 -15,-6 -29,-10 -42,-10 -10,0 -24,4 -42,10 -12,5 -23,15 -35,31 -11,17 -16,31 -16,43l0 131 -29 0 0 -242 29 0 0 43c25,-29 56,-43 92,-43 43,0 77,18 101,54 14,21 21,39 21,55l0 133zm1620 -243c2,0 4,0 6,1 2,2 3,3 4,5 1,2 2,4 2,6 0,2 -1,4 -2,6 -1,2 -2,4 -4,5 -2,1 -4,2 -6,2 -3,0 -5,-1 -7,-2 -1,-1 -3,-3 -4,-5 -1,-2 -2,-4 -2,-6 0,-2 1,-4 2,-6 1,-2 3,-3 5,-5 2,-1 4,-1 6,-1zm0 2c-2,0 -4,0 -5,1 -2,1 -3,2 -4,4 -1,2 -2,3 -2,5 0,2 1,4 2,5 1,2 2,3 4,4 1,1 3,2 5,2 1,0 3,-1 5,-2 1,-1 3,-2 4,-4 0,-1 1,-3 1,-5 0,-2 -1,-3 -1,-5 -1,-2 -3,-3 -4,-4 -2,-1 -4,-1 -5,-1zm-6 17l0 -13 5 0c1,0 2,0 3,0 1,0 1,1 2,1 0,1 0,2 0,2 0,1 0,2 -1,3 0,1 -1,1 -2,1 0,0 1,1 1,1 0,0 1,1 2,2l1 3 -2 0 -1 -2c-1,-2 -2,-3 -3,-3 0,0 -1,-1 -1,-1l-2 0 0 6 -2 0zm2 -7l3 0c1,0 2,-1 3,-1 0,0 0,-1 0,-1 0,-1 0,-1 0,-1 0,-1 -1,-1 -1,-1 0,0 -1,0 -2,0l-3 0 0 4z"/>
	</g>
</svg>
