<?xml version="1.0" encoding="UTF-8"?>
<!-- Created with Inkscape (http://www.inkscape.org/) -->
<svg width="264.58mm" height="61.14mm" version="1.1" viewBox="0 0 264.58 61.14" xmlns="http://www.w3.org/2000/svg">
	<g transform="translate(-16.208 -74.43)">
		<g transform="matrix(.22233 0 0 .22233 -168.52 -79.735)">
			<g transform="translate(-173.14)">
				<path d="m1141.5 693.41 91.666 68.75-91.666 68.75-91.666-68.75z" color="#000000" fill="#f00" style="-inkscape-stroke:none;paint-order:stroke fill markers"/>
				<path d="m1046.5 772.16 90 67.5v90.625l-90-67.5z" color="#000000" fill="#ab0000" style="-inkscape-stroke:none;paint-order:stroke fill markers"/>
				<path d="m1236.5 772.16v90.625l-90 67.5v-90.625z" color="#000000" fill="#ba0000" style="-inkscape-stroke:none;paint-order:stroke fill markers"/>
				<path d="m1046.5 833.41-42.5 31.875 137.5 103.13 137.5-103.13-42.5-31.875v18.75l17.5 13.125-112.5 84.375-112.5-84.375 17.5-13.125z" vector-effect="non-scaling-stroke" style="-inkscape-stroke:hairline;paint-order:stroke fill markers"/>
			</g>
			<g transform="matrix(1.0882 0 0 1.0882 514.36 684.2)">
				<g stroke-width="7.4544" aria-label="RedKube">
					<path d="m666.73 135.79t-10.734 10.734q-12.523-15.505-28.327-15.505-4.4726 0-16.101 4.1744-5.6653 2.0872-11.927 11.032-5.9635 8.6471-5.9635 14.611v65.3h-27.134v-122.25h27.73v10.436q15.803-10.436 33.396-10.436 25.643 0 46.813 21.469-4.7708 7.4544-7.7526 10.436z"/>
					<path d="m778.85 170.97h-94.223q-0.29817-0.29817-0.29817 1.1927 0 0.59635 2.0872 6.5598 2.3854 5.9635 2.9818 6.858 14.611 20.872 35.483 20.872 6.5598 0 15.803-3.5781 9.2434-3.5781 13.12-8.0507l8.3489 8.3489q-15.207 15.505-37.272 15.505t-37.868-15.803q-15.803-15.803-15.803-37.868t15.803-37.868q15.803-15.803 37.868-15.803 28.625 0 44.726 23.854 9.2434 14.014 9.2434 24.45zm-13.12-12.225q-2.6836-15.207-14.312-25.047-11.331-10.138-26.538-10.138-15.207 0-26.538 10.138-11.331 9.8398-14.014 25.047z"/>
					<path d="m895.43 218.68h-12.822v-19.083q-16.996 19.083-41.148 19.083-22.065 0-37.868-15.803-15.803-15.803-15.803-37.868t15.803-37.868q15.803-15.803 37.868-15.803 25.047 0 41.148 19.083v-114.5h12.822zm-12.523-53.672q0-17.294-12.225-29.221-11.927-12.225-29.221-12.225-16.996 0-29.221 12.225-12.225 12.225-12.225 29.221 0 16.996 12.225 29.221 12.225 12.225 29.221 12.225 16.996 0 29.221-12.225 12.225-12.225 12.225-29.221z"/>
					<path d="m1015.9 229.42-52.181-67.984-24.749 12.523v52.181h-27.134v-217.67h27.134v134.78l85.576-41.744q4.1745 6.5598 12.225 24.152-18.487 8.6471-47.41 23.258l47.708 64.108q-5.9635 4.7708-21.17 16.4z"/>
					<path d="m1147.7 218.68h-12.822v-19.083q-16.996 19.083-41.148 19.083-20.276 0-36.974-14.909t-16.698-34.886v-57.548h12.225v57.846q0 8.6471 7.4544 18.487 7.4544 9.8398 15.505 14.312 8.0507 4.4726 18.487 4.4726 6.8581 0 18.785-4.4726 7.7525-2.9818 15.207-13.716 7.7525-11.032 7.7525-19.381v-57.548h12.225z"/>
					<path d="m1267.3 165.01q0 22.065-15.803 37.868-15.803 15.803-38.166 15.803-24.748 0-41.148-19.083-0.2982 0.59635 0.2981 19.083h-12.822v-202.76h12.822v114.5q16.996-19.083 40.85-19.083 22.363 0 38.166 15.803t15.803 37.868zm-12.523 0q0-17.294-12.225-29.221-11.927-12.225-29.221-12.225-16.996 0-29.221 12.225-12.225 12.225-12.225 29.221 0 16.996 12.225 29.221 12.225 12.225 29.221 12.225t29.221-12.225q12.225-12.225 12.225-29.221z"/>
					<path d="m1384.4 170.97h-94.223q-0.2982-0.29817-0.2982 1.1927 0 0.59635 2.0872 6.5598 2.3854 5.9635 2.9818 6.858 14.61 20.872 35.483 20.872 6.5598 0 15.803-3.5781 9.2434-3.5781 13.12-8.0507l8.3489 8.3489q-15.207 15.505-37.272 15.505-22.065 0-37.868-15.803-15.803-15.803-15.803-37.868t15.803-37.868q15.803-15.803 37.868-15.803 28.625 0 44.726 23.854 9.2435 14.014 9.2435 24.45zm-13.12-12.225q-2.6836-15.207-14.312-25.047-11.331-10.138-26.538-10.138t-26.538 10.138q-11.331 9.8398-14.014 25.047z"/>
				</g>
			</g>
		</g>
	</g>
</svg>
