<?xml version="1.0" encoding="UTF-8"?>
<!DOCTYPE svg PUBLIC "-//W3C//DTD SVG 1.1//EN" "http://www.w3.org/Graphics/SVG/1.1/DTD/svg11.dtd">
<svg xmlns="http://www.w3.org/2000/svg" xml:space="preserve" width="3163px" height="2977px" version="1.1" style="shape-rendering:geometricPrecision; text-rendering:geometricPrecision; image-rendering:optimizeQuality; fill-rule:evenodd; clip-rule:evenodd"
    viewBox="0 0 3253 3062"
    xmlns:xlink="http://www.w3.org/1999/xlink"
>
    <defs>
        <style type="text/css">
            <![CDATA[
                .face {fill:#AB0000;fill-rule:nonzero}
                .cloud {fill:#FFFFFF;fill-rule:nonzero}
                .text {fill:#FFFFFF;fill-rule:nonzero}
            ]]>
        </style>
    </defs>
    <g id="nubelita">
        <path class="cloud" d="M134 1116c68,-96 160,-174 268,-227 -54,-619 581,-1071 1150,-817 86,38 163,90 230,153 405,-86 799,190 856,599 580,82 823,797 405,1214 -213,213 -536,271 -810,142 -192,91 -415,91 -607,0 -192,91 -415,91 -607,0 -469,221 -1019,-120 -1019,-648 0,-155 49,-299 134,-416z"/>
        <path class="text" d="M2909 2813c0,51 -14,191 -44,229 -23,29 -66,21 -71,-15 -86,33 -201,-6 -201,-136 0,-149 149,-181 228,-132 -11,-73 -58,-107 -116,-76 -37,19 -51,20 -73,-13 -9,-14 -3,-43 31,-63 61,-36 159,-25 205,38 28,38 41,94 41,168zm-91 75c0,-46 -18,-69 -64,-69 -95,0 -78,99 -55,121 23,22 119,37 119,-52zm-232 -181c0,23 -18,48 -53,36 -34,-11 -55,-23 -95,-21 -13,63 -24,221 73,184 75,-29 75,38 60,61 -34,52 -263,79 -232,-206 1,-8 2,-17 4,-27 -35,7 -100,23 -100,-31 0,-44 78,-54 123,-59 41,-123 119,-79 107,-26l-8 22c50,3 121,15 121,67zm-368 -66c0,70 -2,295 -27,345 -24,46 -87,19 -83,-18 3,-38 16,-71 19,-137 2,-51 -5,-178 8,-211 16,-39 83,-39 83,21zm15 -123c0,98 -144,62 -110,-20 23,-54 110,-48 110,20zm-187 487c0,29 -4,57 -40,57 -33,0 -46,-30 -49,-61 -10,-85 -15,-357 -5,-434 3,-29 16,-53 45,-53 60,0 45,70 42,130 -7,139 -1,182 5,318 1,19 2,33 2,43zm-143 -273c0,65 -48,71 -99,81 -69,14 -112,18 -172,14 3,55 22,95 80,95 61,0 71,-77 121,-55 29,12 40,50 16,75 -78,86 -206,84 -265,16 -93,-108 -32,-391 158,-391 95,0 161,71 161,165zm-91 -6c-12,-110 -130,-93 -170,17 59,3 110,-4 170,-17zm-286 76c0,219 -188,258 -274,207 -10,72 -92,57 -89,-5 7,-115 14,-363 -8,-464 -9,-42 -5,-46 24,-65 13,-8 51,-6 64,47l12 106c113,-67 271,-17 271,174zm-90 2c0,-61 -24,-121 -91,-121 -21,0 -39,4 -54,12 -13,7 -24,17 -34,31l0 165c7,17 17,30 29,38 50,35 150,4 150,-125zm-352 215c-40,28 -64,-19 -74,-56 -68,76 -183,84 -234,2 -49,-78 -37,-252 -20,-347 15,-88 96,-65 96,-17 0,56 -65,335 44,335 153,0 60,-265 116,-333 15,-19 78,-38 73,52 -7,122 -9,184 16,309 5,23 0,41 -17,55zm-406 -230c0,42 -15,213 -77,213 -22,0 -42,-17 -42,-39 0,-14 62,-181 13,-258 -31,-50 -138,-30 -138,86 0,74 54,236 -27,236 -48,0 -42,-43 -45,-82 -6,-82 -33,-283 -9,-345 21,-54 90,-37 81,17l-3 18c81,-74 247,-59 247,154z"/>
        <path class="face" d="M1226 1200c98,0 179,244 580,244 248,0 318,-146 389,-146 70,0 99,86 33,150 -165,158 -408,188 -627,138 -108,-25 -196,-73 -282,-132 -51,-35 -159,-115 -159,-178 0,-44 21,-76 66,-76zm329 -267c143,0 163,242 -8,242 -150,0 -151,-242 8,-242zm426 -33c123,0 170,192 43,246 -131,54 -218,-114 -133,-209 24,-26 55,-37 90,-37z"/>
    </g>
</svg>
