<?xml version="1.0" encoding="UTF-8"?>
<!DOCTYPE svg PUBLIC "-//W3C//DTD SVG 1.1//EN" "http://www.w3.org/Graphics/SVG/1.1/DTD/svg11.dtd">
<svg xmlns="http://www.w3.org/2000/svg" xml:space="preserve" width="4547px" height="1063px" version="1.1" style="shape-rendering:geometricPrecision; text-rendering:geometricPrecision; image-rendering:optimizeQuality; fill-rule:evenodd; clip-rule:evenodd"
viewBox="0 0 4489 1050"
xmlns:xlink="http://www.w3.org/1999/xlink"
>
    <defs>
        <style type="text/css">
            <![CDATA[
                .text {fill:#FFFFFF;fill-rule:nonzero}
            ]]>
        </style>
    </defs>
    <g id="nubelita">
        <path class="text" d="M4489 614c0,89 -25,334 -79,401 -39,50 -114,36 -124,-27 -149,59 -351,-10 -351,-238 0,-259 260,-316 398,-231 -19,-126 -101,-186 -201,-132 -65,34 -90,35 -129,-24 -16,-23 -5,-74 55,-110 105,-62 277,-43 359,68 48,66 72,164 72,293zm-160 132c0,-81 -33,-121 -113,-121 -165,0 -135,172 -96,211 41,40 209,65 209,-90zm-407 -317c0,40 -31,84 -93,64 -58,-20 -94,-42 -164,-37 -24,110 -43,386 126,321 131,-51 132,67 106,106 -61,92 -461,139 -406,-359 1,-15 4,-31 6,-47 -60,12 -174,39 -174,-55 0,-76 136,-95 214,-103 74,-216 209,-138 188,-46l-14 39c88,6 211,26 211,117zm-643 -115c0,121 -3,516 -48,603 -41,80 -151,34 -145,-31 6,-68 28,-125 34,-240 4,-90 -9,-312 14,-368 28,-70 145,-69 145,36zm26 -215c0,171 -251,109 -192,-35 40,-95 192,-85 192,35zm-327 851c0,51 -6,100 -70,100 -58,0 -80,-52 -86,-108 -16,-148 -25,-623 -8,-759 6,-49 28,-91 79,-91 104,0 78,121 73,227 -13,243 -2,319 9,557 2,33 3,57 3,74zm-250 -477c0,113 -84,123 -173,142 -121,25 -196,32 -300,23 5,97 38,167 139,167 107,0 124,-135 212,-97 50,22 69,88 28,133 -137,149 -361,146 -464,26 -162,-187 -56,-683 277,-683 167,0 281,125 281,289zm-159 -12c-21,-191 -227,-162 -297,31 102,6 192,-7 297,-31zm-500 134c0,383 -330,452 -479,361 -18,127 -162,100 -156,-7 12,-202 24,-636 -14,-812 -16,-74 -9,-81 41,-113 23,-15 91,-11 113,82l20 186c199,-118 475,-30 475,303zm-158 3c0,-105 -42,-211 -159,-211 -37,0 -68,7 -94,20 -23,13 -43,31 -59,55l-1 290c13,29 30,51 51,66 88,61 262,6 262,-220zm-616 377c-69,49 -111,-34 -129,-98 -119,132 -319,147 -410,4 -85,-136 -64,-441 -35,-608 27,-154 168,-114 168,-30 0,99 -113,586 78,586 267,0 105,-463 202,-581 28,-34 136,-68 127,90 -12,214 -15,322 29,541 8,39 0,70 -30,96zm-710 -403c0,74 -26,372 -134,372 -39,0 -74,-29 -74,-68 0,-24 108,-315 23,-450 -55,-88 -242,-53 -242,149 0,131 95,413 -46,413 -84,0 -75,-74 -80,-142 -10,-145 -56,-496 -15,-604 36,-95 156,-65 142,30l-5 31c141,-130 431,-104 431,269z"/>
    </g>
</svg>
