<?xml version="1.0" encoding="UTF-8"?>
<!DOCTYPE svg PUBLIC "-//W3C//DTD SVG 1.1//EN" "http://www.w3.org/Graphics/SVG/1.1/DTD/svg11.dtd">
<svg xmlns="http://www.w3.org/2000/svg" xml:space="preserve" width="4568px" height="1813px" version="1.1" style="shape-rendering:geometricPrecision; text-rendering:geometricPrecision; image-rendering:optimizeQuality; fill-rule:evenodd; clip-rule:evenodd"
	viewBox="0 0 4607 1828"
	xmlns:xlink="http://www.w3.org/1999/xlink"
>
	<defs>
		<style type="text/css">
			<![CDATA[
				.text {fill:#FFFFFF;fill-rule:nonzero}
				.face {fill:#FFFFFF;fill-rule:nonzero}
				.cloud {fill:#FFFFFF;fill-rule:nonzero}
			]]>
		</style>
	</defs>
	<g id="nubelita">
		<path class="text" d="M4607 1558c0,56 -16,207 -49,249 -25,31 -71,22 -77,-17 -93,37 -218,-6 -218,-147 0,-161 162,-196 247,-143 -12,-79 -62,-116 -125,-83 -40,21 -55,22 -80,-14 -9,-15 -3,-47 34,-69 66,-38 172,-26 223,43 30,41 45,101 45,181zm-100 82c0,-50 -20,-75 -70,-75 -102,0 -84,107 -59,131 25,25 129,40 129,-56zm-252 -196c0,24 -19,52 -57,39 -37,-12 -59,-26 -103,-23 -14,68 -26,240 79,199 81,-31 82,42 66,66 -38,57 -287,86 -253,-223 1,-9 3,-19 5,-29 -38,8 -109,25 -109,-34 0,-47 85,-59 133,-64 46,-134 130,-85 117,-29l-9 25c54,3 131,16 131,73zm-399 -72c0,75 -2,320 -29,374 -26,50 -94,21 -91,-19 4,-42 18,-78 21,-149 3,-56 -5,-194 9,-228 18,-43 90,-43 90,22zm16 -133c0,106 -155,67 -119,-22 25,-59 119,-53 119,22zm-203 527c0,32 -4,62 -43,62 -36,0 -49,-32 -53,-66 -10,-92 -16,-387 -6,-471 4,-31 18,-57 50,-57 64,0 48,76 45,141 -8,151 -1,198 6,346 1,20 1,35 1,45zm-155 -295c0,70 -52,76 -107,88 -75,15 -122,19 -186,14 3,61 24,104 86,104 67,0 77,-84 132,-60 30,13 43,54 17,82 -85,92 -224,91 -288,16 -101,-116 -35,-423 172,-423 103,0 174,77 174,179zm-98 -7c-13,-119 -141,-101 -184,18 63,4 118,-4 184,-18zm-310 83c0,237 -205,280 -298,224 -11,78 -100,62 -96,-5 7,-126 14,-394 -9,-504 -10,-46 -6,-50 25,-70 14,-9 57,-6 70,51l13 115c123,-73 295,-18 295,189zm-98 2c0,-66 -27,-132 -99,-132 -23,0 -42,5 -58,13 -15,8 -27,19 -37,34l-1 180c8,18 19,31 32,40 54,39 163,5 163,-135zm-383 233c-43,31 -68,-21 -80,-61 -73,82 -198,92 -254,3 -53,-85 -40,-274 -22,-378 17,-95 104,-70 104,-18 0,62 -69,364 49,364 165,0 65,-288 125,-361 17,-21 85,-42 79,56 -7,133 -9,200 18,336 5,24 0,43 -19,59zm-440 -250c0,46 -16,231 -83,231 -24,0 -46,-18 -46,-42 0,-15 67,-196 14,-280 -34,-54 -150,-33 -150,93 0,81 59,256 -28,256 -53,0 -47,-46 -50,-88 -6,-90 -35,-308 -10,-375 23,-59 98,-40 89,19l-4 19c88,-80 268,-64 268,167z"/>
		<path class="cloud" d="M2410 1134c0,45 -36,81 -81,81 -44,0 -81,-36 -81,-81 0,-102 -41,-194 -108,-261 -67,-67 -159,-108 -261,-108 -44,0 -80,-36 -80,-80 0,-39 -6,-77 -17,-112 -24,-76 -72,-141 -134,-186 -63,-46 -139,-72 -218,-72 -36,0 -74,6 -111,17 -31,10 -64,0 -84,-23 -42,-46 -93,-84 -151,-110 -55,-24 -116,-38 -181,-38 -30,0 -59,3 -87,8 -104,21 -194,77 -258,155 -64,77 -102,177 -102,283 0,29 3,58 9,86 7,41 -17,80 -55,92 -73,25 -136,73 -180,135 -43,60 -69,134 -69,214 0,70 18,132 48,185 33,56 81,103 137,135 56,32 120,50 186,50 61,0 124,-16 183,-50 26,-15 57,-14 81,1 57,32 120,49 184,49 64,0 128,-17 185,-50 26,-15 57,-14 81,1 56,32 120,49 184,49 64,0 128,-17 184,-50 39,-22 88,-9 110,30 22,38 9,87 -29,110 -82,47 -174,71 -265,71 -77,0 -154,-17 -225,-50 -71,33 -148,50 -225,50 -77,0 -154,-17 -225,-50 -73,34 -149,50 -223,50 -94,0 -186,-25 -266,-71 -80,-46 -148,-113 -196,-195 -44,-76 -70,-166 -70,-265 0,-115 37,-221 99,-308 51,-71 119,-129 198,-168 -1,-17 -2,-34 -2,-51 0,-144 52,-279 139,-385 87,-106 210,-183 352,-211 38,-7 77,-11 117,-11 87,0 171,19 247,53 63,28 120,66 170,113 36,-8 73,-11 110,-11 114,0 224,37 313,102 89,65 158,158 193,268 8,27 14,56 18,85 117,16 221,70 300,149 96,96 156,229 156,375z"/>
		<path class="face" d="M1468 667c91,0 126,142 31,182 -97,40 -161,-85 -98,-155 18,-19 41,-27 67,-27zm-316 24c106,0 121,180 -6,180 -111,0 -112,-180 6,-180zm-243 198c72,0 132,181 429,181 184,0 235,-108 288,-108 52,0 74,63 24,111 -121,117 -302,139 -464,102 -80,-18 -145,-54 -209,-98 -38,-26 -117,-85 -117,-132 0,-33 15,-56 49,-56z"/>
	</g>
</svg>
