<?xml version="1.0" encoding="UTF-8"?>
<!DOCTYPE svg PUBLIC "-//W3C//DTD SVG 1.1//EN" "http://www.w3.org/Graphics/SVG/1.1/DTD/svg11.dtd">
<svg 
	xmlns="http://www.w3.org/2000/svg" 
	xml:space="preserve" 
	width="3033px" 
	height="1693px" 
	version="1.1" 
	style="shape-rendering:geometricPrecision; text-rendering:geometricPrecision; image-rendering:optimizeQuality; fill-rule:evenodd; clip-rule:evenodd"
	viewBox="0 0 3033 1693"
	xmlns:xlink="http://www.w3.org/1999/xlink"
>
	<defs>
		<style type="text/css">
			<![CDATA[
				.weak {fill:#000000; fill-rule:nonzero}
				.arrow {fill:#000000; fill-rule:nonzero}
				.strong {fill:#AB0000; fill-rule:nonzero}
				.passwered {fill:#000000; fill-rule:nonzero}
			]]>
		</style>
	</defs>
	<g id="passwered">
		<g>
			<path class="weak" d="M956 731c0,-34 28,-62 62,-62 34,0 61,28 61,62l0 112 107 -35c32,-10 66,7 77,40 10,32 -7,66 -39,77l-107 35 66 90c20,28 14,66 -14,86 -27,20 -66,14 -85,-14l-66 -90 -66 90c-20,28 -58,34 -86,14 -27,-20 -33,-58 -13,-86l65 -90 -106 -35c-32,-11 -50,-45 -40,-77 11,-33 46,-50 78,-40l106 35 0 -112z"/>
			<path class="arrow" d="M1077 506c-9,32 -42,52 -75,43 -33,-9 -52,-42 -44,-75 21,-79 63,-148 118,-204 55,-55 125,-96 204,-117 26,-7 52,-12 78,-14l-32 -38c-22,-26 -19,-65 7,-87 26,-21 65,-18 87,8l126 151c22,25 18,64 -8,86l-150 126c-26,22 -65,19 -86,-7 -22,-26 -19,-65 7,-87l32 -26c-10,1 -20,4 -30,6 -57,15 -108,45 -148,86 -41,41 -71,92 -86,149z"/>
			<path class="strong" d="M1718 300c0,-47 38,-86 86,-86 47,0 86,39 86,86l0 275 261 -85c45,-14 94,10 108,55 15,45 -10,94 -55,108l-261 85 161 223c28,38 20,92 -19,120 -38,28 -92,19 -120,-19l-161 -223 -162 223c-27,38 -81,47 -120,19 -38,-28 -47,-82 -19,-120l162 -223 -262 -85c-45,-14 -69,-63 -55,-108 15,-45 63,-69 109,-55l261 85 0 -275z"/>
		</g>
		<path class="passwered" d="M91 1528l104 0c117,0 139,-100 139,-139 0,-85 -51,-139 -135,-139l-199 0 0 435 91 0 0 -157zm0 -75l0 -128 72 0c56,0 80,17 80,60 0,19 0,68 -68,68l-84 0zm550 -6c0,-79 -83,-93 -129,-93 -66,0 -134,14 -144,113l82 0c2,-19 9,-45 52,-45 22,0 56,2 56,37 0,19 -17,24 -30,26l-76 11c-54,8 -94,40 -94,103 0,67 49,94 98,94 57,0 85,-26 104,-46 2,18 3,23 8,38l91 0 0 -13c-10,-3 -18,-12 -18,-50l0 -175zm-83 122c0,39 -39,64 -76,64 -17,0 -40,-9 -40,-39 0,-35 27,-43 58,-49 35,-5 49,-10 58,-17l0 41zm424 -108c-7,-91 -82,-107 -145,-107 -101,0 -130,61 -130,108 0,120 200,80 200,134 0,12 -11,33 -54,33 -54,0 -71,-20 -71,-47l-87 0c3,86 82,111 155,111 51,0 142,-17 142,-111 0,-118 -202,-81 -202,-132 0,-14 6,-32 52,-32 46,0 53,22 57,43l83 0zm337 0c-7,-91 -82,-107 -145,-107 -101,0 -130,61 -130,108 0,120 200,80 200,134 0,12 -11,33 -54,33 -54,0 -71,-20 -71,-47l-87 0c3,86 82,111 155,111 51,0 142,-17 142,-111 0,-118 -202,-81 -202,-132 0,-14 6,-32 52,-32 46,0 53,22 57,43l83 0zm489 -99l-87 0 -51 232 -1 0 -48 -232 -86 0 -45 232 -1 0 -51 -232 -90 0 91 323 87 0 51 -235 1 0 50 235 87 0 93 -323zm222 228c-6,23 -30,35 -54,35 -69,0 -73,-54 -76,-78l221 0 0 -15c0,-148 -87,-178 -151,-178 -141,0 -155,124 -155,163 0,133 70,176 161,176 55,0 119,-25 142,-103l-88 0zm-127 -99c4,-42 26,-67 66,-67 27,0 60,15 65,67l-131 0zm274 194l85 0 0 -168c0,-36 12,-77 78,-77 8,0 17,0 24,1l0 -86c-5,-1 -10,-1 -16,-1 -51,0 -71,31 -88,64l-2 0 0 -56 -81 0 0 323zm414 -95c-7,23 -31,35 -54,35 -69,0 -74,-54 -76,-78l221 0 0 -15c0,-148 -88,-178 -151,-178 -142,0 -155,124 -155,163 0,133 70,176 161,176 55,0 119,-25 141,-103l-87 0zm-128 -99c5,-42 26,-67 66,-67 28,0 61,15 66,67l-132 0zm570 -241l-85 0 0 154 -1 0c-13,-20 -39,-50 -93,-50 -71,0 -134,54 -134,166 0,88 40,173 135,173 36,0 73,-12 94,-49l1 0 0 41 83 0 0 -435zm-226 276c0,-51 18,-99 72,-99 58,0 73,52 73,104 0,48 -21,93 -75,93 -55,0 -70,-60 -70,-98z"/>
	</g>
</svg>
